<svg width="148" height="32" viewBox="0 0 148 32" fill="none" xmlns="http://www.w3.org/2000/svg">
<g clip-path="url(#clip0_1457_1506)">
<path d="M9.24571 0.767426L0 23.1312H3.1554L6.14091 15.924H15.177L18.1625 23.1312H21.3143L12.0975 0.767426H9.24571ZM14.0312 13.1222H7.29392L10.6734 4.79639L14.0312 13.1222Z" fill="#159AB2"/>
<path d="M34.4057 0.434403C32.8887 0.401371 31.3812 0.681631 29.977 1.25771C28.5729 1.8338 27.3023 2.69336 26.2444 3.78282C24.0143 5.95476 22.8793 8.76019 22.8793 12.1086C22.8579 13.6183 23.1498 15.116 23.7365 16.5068C24.3232 17.8976 25.192 19.1513 26.2877 20.1883C27.3388 21.264 28.5963 22.1155 29.9846 22.6916C31.3729 23.2677 32.8633 23.5564 34.366 23.5403C36.5394 23.5653 38.6736 22.9593 40.5105 21.7955C41.714 22.9073 43.2937 23.5205 44.931 23.5113H45.6105V20.6154L44.6454 20.6733C43.9562 20.6288 43.2929 20.3932 42.7298 19.9928C43.7582 18.9664 44.572 17.745 45.1237 16.4C45.6754 15.055 45.9539 13.6133 45.943 12.1593C45.943 8.79639 44.8262 5.96925 42.6394 3.75024C41.5648 2.66514 40.2802 1.81132 38.8643 1.24114C37.4485 0.670955 35.9313 0.396432 34.4057 0.434403ZM29.707 16.1991C31.2079 16.1911 32.6975 16.4586 34.1021 16.9882C35.0636 17.3502 36.2093 18.0489 37.6081 19.1602L38.237 19.6634C37.0931 20.2855 35.8044 20.5916 34.5033 20.5502C32.8214 20.6025 31.1635 20.1404 29.7504 19.2254C28.6946 18.5528 27.7949 17.6617 27.1118 16.6118C27.9524 16.3269 28.8341 16.1826 29.7214 16.1846L29.707 16.1991ZM34.3624 3.32309C35.5069 3.28908 36.6457 3.49718 37.7045 3.9338C38.7632 4.37043 39.7181 5.02576 40.5069 5.85703C41.3325 6.67828 41.9804 7.66106 42.4101 8.7441C42.8398 9.82715 43.0421 10.9872 43.0045 12.152C43.0097 13.2266 42.8026 14.2916 42.395 15.2856C41.9875 16.2797 41.3875 17.1831 40.6298 17.9439C39.1895 16.5939 37.5677 15.4523 35.8118 14.552C32.7133 13.1645 29.2125 12.9711 25.9805 14.0091C25.8549 13.3786 25.7931 12.737 25.7962 12.0941C25.7643 10.9398 25.9695 9.79114 26.3991 8.71949C26.8287 7.64784 27.4736 6.67601 28.2938 5.86427C29.0753 5.03901 30.0196 4.38563 31.0669 3.94566C32.1141 3.50568 33.2413 3.28874 34.3768 3.30861L34.3624 3.32309Z" fill="#159AB2"/>
<path d="M83.2728 0.767426H80.4138L71.1645 23.1312H74.3199L77.3018 15.924H86.3379L89.3198 23.1312H92.4752L83.2728 0.767426ZM85.2029 13.1222H78.4584L81.8415 4.79639L85.2029 13.1222Z" fill="#159AB2"/>
<path d="M64.9621 0.923065V14.5991C64.9621 17.1909 64.7922 17.8317 63.8272 18.8851C62.826 20.0145 61.3802 20.6081 59.6453 20.6081C57.9104 20.6081 56.4646 20.0145 55.4598 18.8814C54.4983 17.8317 54.3285 17.1909 54.3285 14.5991V0.923065H50.8658V15.4027C50.8658 18.3276 51.6321 20.1448 53.508 21.6833C55.2538 23.067 57.4266 23.798 59.6525 23.7502C61.8708 23.806 64.0372 23.0737 65.7681 21.6833C67.644 20.1448 68.3778 18.3855 68.3778 15.4027V0.923065H64.9621Z" fill="#159AB2"/>
<path d="M102.552 3.0009V23.4498H99.2992V3.0009H92.3523L92.4318 0H109.449L109.51 3.0009H102.552Z" fill="#C8C8C6"/>
<path d="M112.022 23.4498V4.94119L114.393 4.78553L114.642 8.76743H114.704C115.86 6.07784 117.892 4.51404 120.418 4.51404C121.042 4.50677 121.663 4.59216 122.262 4.76743L122.074 7.76834C121.477 7.58663 120.854 7.50229 120.23 7.51857C117.339 7.51857 114.986 9.98734 114.986 13.991V23.4317L112.022 23.4498Z" fill="#C8C8C6"/>
<path d="M139.463 17.3213C139.463 21.4516 137.121 23.7937 132.234 23.7937C127.347 23.7937 125.023 21.419 125.023 17.3213V4.81448H127.958V17.2597C127.958 19.7611 129.404 21.0751 132.266 21.0751C135.075 21.0751 136.542 19.7937 136.542 17.2597V4.81448H139.477L139.463 17.3213Z" fill="#C8C8C6"/>
<path d="M145.202 0.217186C145.76 0.212887 146.306 0.374427 146.772 0.681337C147.238 0.988247 147.602 1.42671 147.818 1.94117C148.035 2.45562 148.094 3.0229 147.989 3.57114C147.883 4.11937 147.617 4.62386 147.225 5.02069C146.833 5.41753 146.332 5.68883 145.786 5.80022C145.24 5.91162 144.673 5.85809 144.157 5.64642C143.641 5.43476 143.199 5.07448 142.888 4.61124C142.577 4.14801 142.41 3.60267 142.408 3.04433C142.406 2.67484 142.477 2.3085 142.616 1.96631C142.755 1.62411 142.96 1.31279 143.22 1.05017C143.479 0.787545 143.788 0.578789 144.128 0.435852C144.468 0.292914 144.833 0.218606 145.202 0.217186ZM145.221 5.48415C145.702 5.48058 146.171 5.33445 146.569 5.0642C146.967 4.79394 147.277 4.41166 147.458 3.96554C147.64 3.51942 147.686 3.02943 147.59 2.55735C147.493 2.08527 147.26 1.65223 146.919 1.31282C146.577 0.973418 146.143 0.74284 145.671 0.650157C145.199 0.557473 144.71 0.606834 144.266 0.792018C143.822 0.977202 143.443 1.28992 143.176 1.69074C142.909 2.09157 142.766 2.56256 142.766 3.04433C142.764 3.36809 142.826 3.68909 142.949 3.98863C143.071 4.28816 143.252 4.56024 143.481 4.78901C143.71 5.01778 143.982 5.19866 144.281 5.32111C144.58 5.44357 144.901 5.50514 145.224 5.50225L145.221 5.48415ZM145.918 3.22533L146.713 4.60451H146.142L145.419 3.25791H144.527V4.60451H144.024V1.3466H145.401C146.28 1.3466 146.587 1.73755 146.587 2.30587C146.597 2.51151 146.537 2.71448 146.417 2.88153C146.297 3.04858 146.123 3.1698 145.925 3.22533H145.918ZM145.43 1.77737H144.537V2.86334H145.51C145.918 2.86334 146.113 2.63528 146.113 2.32759C146.113 2.0199 145.925 1.79185 145.434 1.79185L145.43 1.77737Z" fill="#6E6F71"/>
<path d="M113.45 31.3267V32H110.312V26.7511H111.035V31.3267H113.45Z" fill="#C8C8C6"/>
<path d="M115.777 26.7511H116.5V32H115.777V26.7511Z" fill="#C8C8C6"/>
<path d="M123.368 26.7511L121.503 32H120.686L118.817 26.7511H119.616L120.935 30.7765L121.105 31.3122H121.123L121.286 30.7765L122.612 26.7511H123.368Z" fill="#C8C8C6"/>
<path d="M125.685 26.7511H126.407V32H125.685V26.7511Z" fill="#C8C8C6"/>
<path d="M132.675 32L130.203 28.3801L129.895 27.9059V28.4706V31.9855H129.252V26.7511H129.903L132.556 30.733V30.1756V26.7728H133.192V32.0217L132.675 32Z" fill="#C8C8C6"/>
<path d="M139.568 31.6995C139.086 31.9048 138.566 32.0072 138.042 32C136.387 32 135.682 31.1674 135.682 29.2923C135.682 27.4172 136.405 26.5629 138.064 26.5629C138.539 26.5638 139.011 26.6509 139.456 26.8199L139.369 27.4643C138.966 27.3003 138.535 27.2179 138.1 27.2217C136.933 27.2217 136.434 27.6959 136.434 29.2851C136.434 30.8742 136.875 31.3267 138.021 31.3267C138.33 31.3343 138.639 31.2853 138.931 31.1819V29.1222H139.568V31.6995Z" fill="#C8C8C6"/>
<path d="M80.5367 26.7511H81.2596V32H80.5367V26.7511Z" fill="#C8C8C6"/>
<path d="M85.9258 32H84.1186V26.7511H85.9258C87.5162 26.7511 88.1812 27.5149 88.1812 29.3538C88.1595 31.2652 87.4258 32 85.9258 32ZM85.9077 27.4244H84.8234V31.3339H85.9077C86.9342 31.3339 87.415 30.943 87.415 29.3538C87.4113 27.8443 86.9704 27.4244 85.8969 27.4244H85.9077Z" fill="#C8C8C6"/>
<path d="M94.0149 31.3484L93.9932 32H90.6535V26.7511H93.8775L93.8956 27.41H91.3655V28.9701H93.5342V29.571H91.3655V31.3484H94.0149Z" fill="#C8C8C6"/>
<path d="M95.8764 32L97.7414 26.7511H98.5763L100.441 32H99.6462L98.3233 27.9747L98.1571 27.4389H98.1354L97.9763 27.9747L96.6462 32H95.8764Z" fill="#C8C8C6"/>
<path d="M105.805 31.3267L105.783 32H102.646V26.7511H103.369V31.3267H105.805Z" fill="#C8C8C6"/>
<path d="M71.7356 32H70.5067V28.7819H71.685C72.3175 28.7819 72.6392 29.057 72.6392 29.5819C72.6579 29.7371 72.6224 29.894 72.5387 30.026C72.4551 30.158 72.3284 30.2569 72.1801 30.3059C72.3576 30.3386 72.5165 30.4365 72.6255 30.5805C72.7345 30.7246 72.7858 30.9042 72.7693 31.0842C72.7693 31.6561 72.4765 32 71.7356 32ZM71.6705 29.1656H70.9295V30.1611H71.703C72.0645 30.1611 72.2199 29.9982 72.2199 29.6615C72.2199 29.3249 72.05 29.1656 71.6705 29.1656ZM71.7247 30.505H70.9295V31.6235H71.7392C72.1187 31.6235 72.3319 31.4751 72.3319 31.0516C72.3319 30.6281 72.1404 30.505 71.7247 30.505Z" fill="#C8C8C6"/>
<path d="M73.6367 28.7819L74.3343 30.1937L74.4861 30.505L74.6307 30.1937L75.3283 28.7819H75.8054L74.6922 30.9104V31.9964H74.2512V30.9104L73.1199 28.7819H73.6367Z" fill="#C8C8C6"/>
</g>
<defs>
<clipPath id="clip0_1457_1506">
<rect width="148" height="32" fill="white"/>
</clipPath>
</defs>
</svg>
