<svg width="204" height="44" viewBox="0 0 204 44" fill="none" xmlns="http://www.w3.org/2000/svg">
<g clip-path="url(#clip0_1457_1544)">
<path d="M12.7441 1.05521L0 31.8054H4.34933L8.4645 21.8955H20.9196L25.0348 31.8054H29.3791L16.6749 1.05521H12.7441ZM19.3403 18.043H10.0538L14.712 6.59503L19.3403 18.043Z" fill="#159AB2"/>
<path d="M47.4241 0.597292C45.3331 0.551873 43.2551 0.937231 41.3197 1.72935C39.3842 2.52146 37.6328 3.70336 36.1747 5.20136C33.1007 8.18779 31.5364 12.0453 31.5364 16.6493C31.5068 18.7252 31.9092 20.7845 32.7179 22.6969C33.5266 24.6092 34.7241 26.333 36.2344 27.7588C37.6831 29.2379 39.4165 30.4088 41.3301 31.2009C43.2438 31.993 45.2981 32.39 47.3693 32.3679C50.3652 32.4023 53.3069 31.569 55.8388 29.9688C57.4976 31.4975 59.6751 32.3407 61.9319 32.3281H62.8685V28.3462L61.5383 28.4258C60.5883 28.3646 59.674 28.0406 58.8978 27.49C60.3153 26.0787 61.4371 24.3993 62.1975 22.5499C62.958 20.7006 63.3419 18.7183 63.3268 16.719C63.3268 12.095 61.7874 8.2077 58.7732 5.15657C57.292 3.66455 55.5213 2.49055 53.5697 1.70655C51.6182 0.922551 49.5269 0.545083 47.4241 0.597292ZM40.9475 22.2738C43.0162 22.2628 45.0695 22.6306 47.0056 23.3588C48.3309 23.8566 49.9102 24.8172 51.8382 26.3453L52.7051 27.0371C51.1283 27.8925 49.352 28.3134 47.5586 28.2566C45.2403 28.3285 42.955 27.693 41.0072 26.4348C39.552 25.5102 38.3119 24.2848 37.3703 22.8412C38.529 22.4494 39.7442 22.251 40.9674 22.2538L40.9475 22.2738ZM47.3643 4.56924C48.9419 4.52248 50.5116 4.80861 51.971 5.40897C53.4304 6.00932 54.7466 6.91041 55.8338 8.0534C56.9719 9.18262 57.8649 10.5339 58.4572 12.0231C59.0495 13.5123 59.3283 15.1074 59.2764 16.7091C59.2837 18.1866 58.9982 19.6509 58.4364 21.0177C57.8746 22.3845 57.0477 23.6268 56.0032 24.6729C54.0179 22.8167 51.7826 21.2469 49.3621 20.0091C45.0913 18.1012 40.2659 17.8353 35.811 19.2624C35.6378 18.3956 35.5526 17.5134 35.5569 16.6294C35.5129 15.0422 35.7958 13.4628 36.388 11.9893C36.9801 10.5158 37.869 9.1795 38.9995 8.06335C40.0767 6.92863 41.3784 6.03023 42.8219 5.42526C44.2654 4.8203 45.8191 4.522 47.3843 4.54933L47.3643 4.56924Z" fill="#159AB2"/>
<path d="M114.781 1.05521H110.841L98.0916 31.8054H102.441L106.551 21.8955H119.006L123.116 31.8054H127.466L114.781 1.05521ZM117.442 18.043H108.145L112.809 6.59503L117.442 18.043Z" fill="#159AB2"/>
<path d="M89.5424 1.26923V20.0738C89.5424 23.6376 89.3082 24.5186 87.978 25.967C86.598 27.5199 84.6052 28.3362 82.2138 28.3362C79.8224 28.3362 77.8296 27.5199 76.4446 25.962C75.1194 24.5186 74.8852 23.6376 74.8852 20.0738V1.26923H70.1124V21.1787C70.1124 25.2005 71.1686 27.6991 73.7543 29.8145C76.1606 31.7172 79.1557 32.7222 82.2238 32.6566C85.2814 32.7332 88.2675 31.7264 90.6534 29.8145C93.2391 27.6991 94.2504 25.2801 94.2504 21.1787V1.26923H89.5424Z" fill="#159AB2"/>
<path d="M141.356 4.12624V32.2434H136.872V4.12624H127.296L127.406 0H150.861L150.946 4.12624H141.356Z" fill="#C8C8C6"/>
<path d="M154.409 32.2435V6.79413L157.677 6.5801L158.021 12.0552H158.105C159.7 8.35702 162.5 6.2068 165.982 6.2068C166.842 6.1968 167.698 6.31422 168.523 6.55521L168.264 10.6815C167.441 10.4316 166.583 10.3156 165.723 10.338C161.737 10.338 158.494 13.7326 158.494 19.2376V32.2186L154.409 32.2435Z" fill="#C8C8C6"/>
<path d="M192.232 23.8167C192.232 29.4959 189.004 32.7163 182.268 32.7163C175.533 32.7163 172.329 29.4511 172.329 23.8167V6.6199H176.375V23.7321C176.375 27.1715 178.367 28.9783 182.313 28.9783C186.184 28.9783 188.207 27.2163 188.207 23.7321V6.6199H192.252L192.232 23.8167Z" fill="#C8C8C6"/>
<path d="M200.144 0.298638C200.912 0.292727 201.665 0.514845 202.307 0.936846C202.949 1.35885 203.451 1.96174 203.75 2.66911C204.048 3.37648 204.13 4.1565 203.985 4.91032C203.839 5.66414 203.473 6.35782 202.932 6.90346C202.392 7.44911 201.701 7.82215 200.948 7.97532C200.195 8.12848 199.414 8.05488 198.702 7.76384C197.991 7.4728 197.383 6.97742 196.954 6.34047C196.525 5.70352 196.295 4.95368 196.293 4.18597C196.289 3.67791 196.387 3.17419 196.578 2.70368C196.77 2.23316 197.053 1.80509 197.411 1.44399C197.769 1.08288 198.194 0.795842 198.663 0.599304C199.132 0.402765 199.635 0.300592 200.144 0.298638ZM200.169 7.54071C200.832 7.5358 201.479 7.33488 202.027 6.96328C202.576 6.59168 203.003 6.06604 203.253 5.45262C203.504 4.83921 203.567 4.16547 203.434 3.51636C203.302 2.86725 202.98 2.27182 202.509 1.80514C202.039 1.33846 201.441 1.02141 200.79 0.893973C200.139 0.766534 199.465 0.834404 198.853 1.08903C198.241 1.34366 197.718 1.77364 197.35 2.32478C196.982 2.87591 196.786 3.52352 196.786 4.18597C196.783 4.63113 196.868 5.07251 197.037 5.48437C197.206 5.89623 197.456 6.27034 197.771 6.5849C198.086 6.89945 198.461 7.14817 198.874 7.31654C199.286 7.48491 199.728 7.56958 200.174 7.5656L200.169 7.54071ZM201.13 4.43483L202.226 6.33121H201.439L200.443 4.47963H199.212V6.33121H198.52V1.85158H200.418C201.629 1.85158 202.052 2.38913 202.052 3.17058C202.066 3.45334 201.983 3.73242 201.818 3.96211C201.652 4.1918 201.413 4.35848 201.14 4.43483H201.13ZM200.458 2.44388H199.227V3.9371H200.567C201.13 3.9371 201.399 3.62352 201.399 3.20045C201.399 2.77737 201.14 2.46379 200.463 2.46379L200.458 2.44388Z" fill="#6E6F71"/>
<path d="M156.377 43.0742V44H152.052V36.7828H153.049V43.0742H156.377Z" fill="#C8C8C6"/>
<path d="M159.585 36.7828H160.581V44H159.585V36.7828Z" fill="#C8C8C6"/>
<path d="M170.047 36.7828L167.477 44H166.351L163.775 36.7828H164.876L166.694 42.3177L166.929 43.0543H166.953L167.178 42.3177L169.006 36.7828H170.047Z" fill="#C8C8C6"/>
<path d="M173.241 36.7828H174.237V44H173.241V36.7828Z" fill="#C8C8C6"/>
<path d="M182.876 44L179.468 39.0226L179.045 38.3706V39.1471V43.9801H178.158V36.7828H179.055L182.712 42.2579V41.4914V36.8127H183.589V44.0299L182.876 44Z" fill="#C8C8C6"/>
<path d="M192.377 43.5869C191.712 43.8692 190.996 44.0099 190.274 44C187.993 44 187.021 42.8552 187.021 40.2769C187.021 37.6987 188.018 36.524 190.304 36.524C190.96 36.5253 191.61 36.645 192.222 36.8774L192.103 37.7634C191.548 37.538 190.953 37.4246 190.354 37.4299C188.745 37.4299 188.057 38.0819 188.057 40.267C188.057 42.452 188.665 43.0742 190.245 43.0742C190.672 43.0847 191.097 43.0172 191.5 42.8751V40.043H192.377V43.5869Z" fill="#C8C8C6"/>
<path d="M111.01 36.7828H112.006V44H111.01V36.7828Z" fill="#C8C8C6"/>
<path d="M118.438 44H115.947V36.7828H118.438C120.63 36.7828 121.547 37.833 121.547 40.3615C121.517 42.9896 120.506 44 118.438 44ZM118.413 37.7086H116.919V43.0842H118.413C119.828 43.0842 120.491 42.5466 120.491 40.3615C120.486 38.286 119.878 37.7086 118.398 37.7086H118.413Z" fill="#C8C8C6"/>
<path d="M129.588 43.1041L129.558 44H124.955V36.7828H129.399L129.424 37.6887H125.936V39.8339H128.925V40.6602H125.936V43.1041H129.588Z" fill="#C8C8C6"/>
<path d="M132.154 44L134.725 36.7828H135.876L138.446 44H137.35L135.527 38.4652L135.298 37.7285H135.268L135.048 38.4652L133.215 44H132.154Z" fill="#C8C8C6"/>
<path d="M145.84 43.0742L145.81 44H141.485V36.7828H142.482V43.0742H145.84Z" fill="#C8C8C6"/>
<path d="M98.8787 44H97.1848V39.5751H98.809C99.6809 39.5751 100.124 39.9534 100.124 40.6751C100.15 40.8885 100.101 41.1043 99.9858 41.2857C99.8705 41.4672 99.6958 41.6032 99.4915 41.6706C99.7362 41.7155 99.9551 41.8502 100.105 42.0483C100.256 42.2463 100.326 42.4933 100.304 42.7407C100.304 43.5272 99.9001 44 98.8787 44ZM98.7891 40.1027H97.7677V41.4715H98.8339C99.3321 41.4715 99.5463 41.2475 99.5463 40.7846C99.5463 40.3217 99.3122 40.1027 98.7891 40.1027ZM98.8638 41.9444H97.7677V43.4824H98.8837C99.4068 43.4824 99.7008 43.2783 99.7008 42.6959C99.7008 42.1136 99.4367 41.9444 98.8638 41.9444Z" fill="#C8C8C6"/>
<path d="M101.499 39.5751L102.461 41.5163L102.67 41.9444L102.869 41.5163L103.831 39.5751H104.489L102.954 42.5018V43.995H102.346V42.5018L100.787 39.5751H101.499Z" fill="#C8C8C6"/>
</g>
<defs>
<clipPath id="clip0_1457_1544">
<rect width="204" height="44" fill="white"/>
</clipPath>
</defs>
</svg>
