<svg width="240" height="52" viewBox="0 0 240 52" fill="none" xmlns="http://www.w3.org/2000/svg">
<g clip-path="url(#clip0_1457_2580)">
<path d="M14.993 1.24707L0 37.5883H5.11686L9.95824 25.8765H24.6113L29.4527 37.5883H34.5637L19.6176 1.24707H14.993ZM22.7533 21.3236H11.828L17.3082 7.79413L22.7533 21.3236Z" fill="white"/>
<path d="M55.7931 0.705824C53.333 0.652147 50.8883 1.10757 48.6114 2.04371C46.3344 2.97984 44.2739 4.37663 42.5584 6.147C38.942 9.67641 37.1016 14.2352 37.1016 19.6764C37.0669 22.1297 37.5402 24.5634 38.4917 26.8235C39.4431 29.0836 40.8519 31.1207 42.6288 32.8058C44.3331 34.5539 46.3724 35.9376 48.6237 36.8737C50.875 37.8099 53.2918 38.279 55.7286 38.2529C59.2531 38.2935 62.7139 37.3087 65.6927 35.4176C67.6443 37.2243 70.206 38.2207 72.861 38.2058H73.9629V33.4999L72.398 33.5941C71.2803 33.5218 70.2048 33.1389 69.2915 32.4882C70.9592 30.8202 72.2789 28.8355 73.1736 26.6499C74.0682 24.4642 74.5199 22.1216 74.5022 19.7588C74.5022 14.2941 72.691 9.69994 69.145 6.09406C67.4023 4.33077 65.3192 2.94331 63.0232 2.01677C60.7273 1.09022 58.2669 0.644123 55.7931 0.705824ZM48.1735 26.3235C50.6073 26.3105 53.023 26.7452 55.3007 27.6058C56.8598 28.1941 58.7178 29.3294 60.9861 31.1352L62.006 31.9529C60.1509 32.9638 58.0612 33.4612 55.9513 33.3941C53.2239 33.479 50.5353 32.7281 48.2438 31.2411C46.5318 30.1483 45.0728 28.7001 43.9651 26.9941C45.3282 26.5311 46.7579 26.2966 48.1969 26.2999L48.1735 26.3235ZM55.7228 5.39994C57.5787 5.34468 59.4254 5.68284 61.1423 6.39235C62.8593 7.10186 64.4078 8.16678 65.6869 9.51759C67.0257 10.8521 68.0763 12.4491 68.7731 14.2091C69.47 15.969 69.7981 17.8542 69.737 19.747C69.7455 21.4932 69.4096 23.2238 68.7487 24.8391C68.0878 26.4544 67.1149 27.9225 65.8861 29.1588C63.5504 26.9651 60.9207 25.1099 58.0731 23.647C53.0486 21.3922 47.3716 21.078 42.1305 22.7647C41.9268 21.7401 41.8266 20.6976 41.8316 19.6529C41.7799 17.777 42.1127 15.9105 42.8094 14.1691C43.5061 12.4277 44.5518 10.8484 45.8817 9.52935C47.149 8.18832 48.6805 7.12657 50.3787 6.41161C52.077 5.69665 53.9049 5.34412 55.7462 5.37641L55.7228 5.39994Z" fill="white"/>
<path d="M135.037 1.24707H130.401L115.402 37.5883H120.519L125.354 25.8765H140.007L144.843 37.5883H149.96L135.037 1.24707ZM138.167 21.3236H127.23L132.716 7.79413L138.167 21.3236Z" fill="white"/>
<path d="M105.344 1.5V23.7235C105.344 27.9353 105.069 28.9765 103.504 30.6882C101.88 32.5235 99.5355 33.4882 96.7221 33.4882C93.9087 33.4882 91.5642 32.5235 89.9348 30.6824C88.3757 28.9765 88.1002 27.9353 88.1002 23.7235V1.5H82.4852V25.0294C82.4852 29.7824 83.7277 32.7353 86.7697 35.2353C89.6007 37.4839 93.1243 38.6717 96.7338 38.5941C100.331 38.6847 103.844 37.4949 106.651 35.2353C109.693 32.7353 110.883 29.8765 110.883 25.0294V1.5H105.344Z" fill="white"/>
<path d="M166.301 4.87647V38.1059H161.026V4.87647H149.76L149.889 0H177.484L177.584 4.87647H166.301Z" fill="white"/>
<path d="M181.657 38.1058V8.02929L185.502 7.77634L185.907 14.2469H186.006C187.882 9.87634 191.176 7.33517 195.273 7.33517C196.284 7.32336 197.291 7.46212 198.262 7.74694L197.957 12.6234C196.989 12.3281 195.98 12.1911 194.968 12.2175C190.279 12.2175 186.463 16.2293 186.463 22.7352V38.0764L181.657 38.1058Z" fill="white"/>
<path d="M226.156 28.1473C226.156 34.859 222.358 38.6649 214.433 38.6649C206.509 38.6649 202.74 34.8061 202.74 28.1473V7.82373H207.499V28.0473C207.499 32.112 209.844 34.2473 214.486 34.2473C219.04 34.2473 221.42 32.1649 221.42 28.0473V7.82373H226.179L226.156 28.1473Z" fill="white"/>
<path d="M235.463 0.353163C236.367 0.346178 237.253 0.60868 238.008 1.10741C238.764 1.60614 239.354 2.31864 239.706 3.15463C240.057 3.99062 240.153 4.91246 239.982 5.80333C239.811 6.69421 239.38 7.51401 238.744 8.15887C238.108 8.80372 237.295 9.24458 236.409 9.4256C235.524 9.60662 234.604 9.51963 233.768 9.17568C232.931 8.83172 232.215 8.24626 231.71 7.49351C231.206 6.74075 230.935 5.85457 230.933 4.94728C230.929 4.34684 231.043 3.75155 231.269 3.19548C231.495 2.63942 231.827 2.13352 232.248 1.70676C232.669 1.28 233.17 0.940768 233.721 0.708495C234.273 0.476222 234.865 0.355472 235.463 0.353163ZM235.493 8.91198C236.273 8.90617 237.034 8.66872 237.679 8.22956C238.325 7.7904 238.827 7.16918 239.121 6.44424C239.416 5.71929 239.49 4.92306 239.334 4.15593C239.179 3.3888 238.8 2.68511 238.246 2.13358C237.693 1.58204 236.989 1.20735 236.223 1.05674C235.458 0.906131 234.665 0.986341 233.945 1.28727C233.225 1.58819 232.61 2.09635 232.177 2.74769C231.744 3.39903 231.513 4.16439 231.513 4.94728C231.509 5.47338 231.609 5.99501 231.808 6.48175C232.007 6.9685 232.301 7.41063 232.672 7.78238C233.043 8.15413 233.484 8.44806 233.969 8.64705C234.454 8.84603 234.974 8.94609 235.499 8.94139L235.493 8.91198ZM236.624 5.24139L237.913 7.48257H236.987L235.815 5.29434H234.367V7.48257H233.553V2.18845H235.786C237.21 2.18845 237.708 2.82375 237.708 3.74728C237.725 4.08144 237.627 4.41127 237.432 4.68273C237.238 4.95418 236.957 5.15116 236.636 5.24139H236.624ZM235.833 2.88845H234.385V4.65316H235.962C236.624 4.65316 236.94 4.28257 236.94 3.78257C236.94 3.28257 236.636 2.91198 235.839 2.91198L235.833 2.88845Z" fill="white"/>
<path d="M183.972 50.906V52.0001H178.885V43.4707H180.057V50.906H183.972Z" fill="white"/>
<path d="M187.747 43.4707H188.919V52.0001H187.747V43.4707Z" fill="white"/>
<path d="M200.056 43.4707L197.031 52.0001H195.707L192.676 43.4707H193.972L196.111 50.0119L196.387 50.8825H196.416L196.68 50.0119L198.831 43.4707H200.056Z" fill="white"/>
<path d="M203.813 43.4707H204.985V52.0001H203.813V43.4707Z" fill="white"/>
<path d="M215.148 52.0001L211.139 46.1178L210.641 45.3472V46.2648V51.9766H209.598V43.4707H210.653L214.955 49.9413V49.0354V43.506H215.987V52.0354L215.148 52.0001Z" fill="white"/>
<path d="M226.326 51.5116C225.544 51.8452 224.702 52.0115 223.852 51.9998C221.168 51.9998 220.025 50.6469 220.025 47.5998C220.025 44.5528 221.197 43.1646 223.888 43.1646C224.659 43.1661 225.423 43.3076 226.144 43.5822L226.003 44.6293C225.35 44.3629 224.651 44.2289 223.946 44.2351C222.053 44.2351 221.244 45.0057 221.244 47.5881C221.244 50.1704 221.959 50.9057 223.817 50.9057C224.32 50.9181 224.82 50.8384 225.294 50.6704V47.3234H226.326V51.5116Z" fill="white"/>
<path d="M130.6 43.4707H131.772V52.0001H130.6V43.4707Z" fill="white"/>
<path d="M139.339 52.0001H136.409V43.4707H139.339C141.918 43.4707 142.997 44.7119 142.997 47.7001C142.961 50.806 141.772 52.0001 139.339 52.0001ZM139.31 44.5648H137.551V50.9178H139.31C140.974 50.9178 141.754 50.2825 141.754 47.7001C141.748 45.2472 141.033 44.5648 139.292 44.5648H139.31Z" fill="white"/>
<path d="M152.457 50.9413L152.421 52.0001H147.006V43.4707H152.234L152.263 44.5413H148.16V47.0766H151.677V48.0531H148.16V50.9413H152.457Z" fill="white"/>
<path d="M155.475 52.0001L158.5 43.4707H159.854L162.878 52.0001H161.588L159.443 45.4589L159.174 44.5884H159.138L158.881 45.4589L156.724 52.0001H155.475Z" fill="white"/>
<path d="M171.576 50.906L171.541 52.0001H166.453V43.4707H167.625V50.906H171.576Z" fill="white"/>
<path d="M116.328 51.9999H114.335V46.7705H116.246C117.272 46.7705 117.793 47.2176 117.793 48.0705C117.824 48.3227 117.766 48.5777 117.63 48.7921C117.495 49.0066 117.289 49.1673 117.049 49.247C117.337 49.3001 117.594 49.4593 117.771 49.6933C117.948 49.9273 118.031 50.2192 118.004 50.5117C118.004 51.4411 117.529 51.9999 116.328 51.9999ZM116.222 47.394H115.021V49.0117H116.275C116.861 49.0117 117.113 48.747 117.113 48.1999C117.113 47.6529 116.838 47.394 116.222 47.394ZM116.31 49.5705H115.021V51.3882H116.334C116.949 51.3882 117.295 51.147 117.295 50.4587C117.295 49.7705 116.984 49.5705 116.31 49.5705Z" fill="white"/>
<path d="M119.411 46.7705L120.542 49.0646L120.788 49.5705L121.023 49.0646L122.154 46.7705H122.928L121.122 50.2293V51.994H120.407V50.2293L118.573 46.7705H119.411Z" fill="white"/>
</g>
<defs>
<clipPath id="clip0_1457_2580">
<rect width="240" height="52" fill="white"/>
</clipPath>
</defs>
</svg>
