<svg width="141" height="24" viewBox="0 0 141 24" fill="none" xmlns="http://www.w3.org/2000/svg">
<g clip-path="url(#clip0_1457_620)">
<path d="M14.2033 12.316C15.3198 12.4062 16.2577 12.8573 17.0617 13.7145C17.8656 14.5716 18.2676 15.7445 18.2676 17.2333C18.2676 19.0378 17.6869 20.5265 16.4811 21.6092C15.2752 22.6919 13.578 23.2333 11.3002 23.2333H0.313171V1.84979H11.2555C13.176 1.84979 14.7392 2.39115 15.9004 3.42874C17.0617 4.51145 17.6423 5.90994 17.6423 7.66934C17.6423 9.02272 17.285 10.0603 16.5257 10.8723C15.7664 11.6844 15.0072 12.0904 14.1586 12.1806L14.2033 12.316ZM5.5387 10.6919H10.0943C10.8536 10.6919 11.4788 10.4663 11.9701 10.0152C12.4167 9.56408 12.6847 9.02272 12.6847 8.25581C12.6847 7.57912 12.4614 7.08288 12.0148 6.67686C11.5682 6.27085 10.9875 6.09039 10.3176 6.09039H5.5387V10.6919ZM10.3623 18.9926C11.1662 18.9926 11.8361 18.7671 12.2828 18.3611C12.7294 17.9551 12.9527 17.3686 12.9527 16.6017C12.9527 15.8799 12.7294 15.3385 12.2381 14.9325C11.7915 14.5265 11.1662 14.3009 10.4516 14.3009H5.5387V18.9926H10.3623Z" fill="#0C2B45"/>
<path d="M36.3559 23.2331H31.309V21.6993C30.0585 23.0527 28.4059 23.7294 26.4408 23.7294C24.565 23.7294 23.0911 23.0978 21.9745 21.8797C20.858 20.6617 20.2773 19.0376 20.2773 17.0527V7.21808H25.2796V15.97C25.2796 16.9173 25.5475 17.6842 26.0388 18.2707C26.5301 18.8572 27.2001 19.1279 28.004 19.1279C29.0312 19.1279 29.8352 18.767 30.4158 18.0451C30.9964 17.3233 31.2644 16.1955 31.2644 14.6617V7.21808H36.3112L36.3559 23.2331Z" fill="#0C2B45"/>
<path d="M51.9431 23.2331H38.5443V22.2857L44.8417 11.2782H38.723V7.21808H51.8538V8.16545L45.5563 19.173H51.8984V23.2331H51.9431Z" fill="#0C2B45"/>
<path d="M67.4852 23.2332H54.1311V22.2859L60.3839 11.2784H54.2651V7.2182H67.3959V8.16557L61.0985 19.1731H67.4406L67.4852 23.2332Z" fill="#0C2B45"/>
<path d="M74.9892 11.0077H84.145V15.6092H74.9892V23.2784H69.7637V1.84979H84.949V6.4513H74.9892V11.0077Z" fill="#0C2B45"/>
<path d="M121.17 16.5563H109.558C109.871 18.5413 111.345 19.6691 113.533 19.6691C115.275 19.6691 117.017 18.9924 118.312 17.9548L120.232 21.3383C118.446 22.8721 116.168 23.7292 113.533 23.7292C108.218 23.7292 104.6 20.4811 104.6 15.248C104.6 12.7668 105.404 10.7368 107.012 9.15782C108.62 7.57888 110.63 6.76685 112.997 6.76685C115.275 6.76685 117.195 7.53376 118.759 9.11271C120.322 10.6917 121.126 12.7217 121.17 15.2932V16.5563ZM110.943 11.5488C110.317 11.9999 109.871 12.6315 109.647 13.3984H116.168C115.945 12.5864 115.543 11.9548 114.962 11.5037C114.382 11.0977 113.712 10.8721 112.997 10.8721C112.238 10.8721 111.568 11.0977 110.943 11.5488Z" fill="#0C2B45"/>
<path d="M102.68 16.5563H91.0677C91.3803 18.5413 92.8542 19.6691 95.0426 19.6691C96.7845 19.6691 98.5263 18.9924 99.8215 17.9548L101.742 21.3383C99.9555 22.8721 97.6777 23.7292 95.0426 23.7292C89.7278 23.7292 86.1101 20.4811 86.1101 15.248C86.1101 12.7668 86.914 10.7368 88.5219 9.15782C90.1297 7.57888 92.1396 6.76685 94.5067 6.76685C96.7845 6.76685 98.705 7.53376 100.268 9.11271C101.831 10.6917 102.635 12.7217 102.68 15.2932V16.5563ZM92.4522 11.5488C91.8269 11.9999 91.3803 12.6315 91.157 13.3984H97.6777C97.4544 12.5864 97.0525 11.9548 96.4718 11.5037C95.8912 11.0977 95.2213 10.8721 94.5067 10.8721C93.7474 10.8721 93.0775 11.0977 92.4522 11.5488Z" fill="#0C2B45"/>
<path d="M140.688 23.2332H135.641V21.97C134.346 23.1429 132.738 23.7294 130.728 23.7294C128.584 23.7294 126.753 22.9174 125.235 21.3384C123.716 19.7595 122.957 17.7294 122.957 15.2482C122.957 12.767 123.716 10.7369 125.235 9.15797C126.753 7.57902 128.584 6.76699 130.728 6.76699C132.738 6.76699 134.39 7.35346 135.641 8.52639V0.270752H140.688V23.2332ZM134.524 18.2256C135.284 17.4587 135.686 16.4662 135.686 15.2482C135.686 14.0753 135.284 13.0828 134.524 12.2708C133.765 11.5038 132.827 11.0978 131.8 11.0978C130.683 11.0978 129.79 11.5038 129.076 12.2708C128.361 13.0377 128.004 14.0302 128.004 15.2482C128.004 16.4662 128.361 17.5038 129.076 18.2708C129.79 19.0377 130.683 19.3986 131.8 19.3986C132.827 19.3986 133.72 18.9926 134.524 18.2256Z" fill="#0C2B45"/>
</g>
<defs>
<clipPath id="clip0_1457_620">
<rect width="141" height="24" fill="white"/>
</clipPath>
</defs>
</svg>
