<svg width="24" height="24" viewBox="0 0 24 24" fill="none" xmlns="http://www.w3.org/2000/svg">
<path d="M11.9945 12C13.453 12 14.8525 11.4205 15.8838 10.3893C16.9152 9.3581 17.4945 7.95853 17.4945 6.50001C17.4945 5.04148 16.9151 3.64204 15.8838 2.61069C14.8526 1.57934 13.4531 1 11.9945 1C10.536 1 9.1366 1.57946 8.10525 2.61069C7.07391 3.64191 6.49458 5.04148 6.49458 6.50001C6.49458 7.95853 7.07404 9.35797 8.10525 10.3893C9.13647 11.4207 10.536 12 11.9945 12ZM11.9945 2.57152C13.0366 2.57152 14.0354 2.98499 14.772 3.72257C15.5096 4.45918 15.9231 5.45799 15.9231 6.50008C15.9231 7.54217 15.5096 8.54096 14.772 9.27759C14.0354 10.0152 13.0366 10.4286 11.9945 10.4286C10.9525 10.4286 9.95368 10.0152 9.21705 9.27759C8.47948 8.54099 8.06601 7.54217 8.06601 6.50008C8.06601 5.45799 8.47948 4.4592 9.21705 3.72257C9.95365 2.98499 10.9525 2.57152 11.9945 2.57152ZM21.1871 20.1477C21.0703 19.6724 20.9151 19.2069 20.7236 18.757C19.325 15.5592 15.9779 13.5714 11.9943 13.5714C7.4687 13.5714 3.78382 16.1799 2.82513 20.0692C2.64835 20.7734 2.80647 21.5198 3.25333 22.0924C3.69921 22.665 4.38573 22.9999 5.11151 22.9999H18.877C19.6067 23.0049 20.2972 22.6709 20.747 22.0964C21.1821 21.5474 21.3443 20.8303 21.1871 20.1477ZM19.5136 21.122C19.3624 21.3194 19.1257 21.4324 18.8772 21.4285H5.11169C4.86419 21.4363 4.6275 21.3273 4.4733 21.1338C4.31812 20.9403 4.2641 20.686 4.32598 20.4463C5.14311 17.225 8.14462 15.1427 11.9944 15.1427C15.3414 15.1427 18.1388 16.7691 19.2858 19.3855C19.439 19.7489 19.5627 20.1251 19.655 20.5091C19.7081 20.7242 19.655 20.9521 19.5136 21.122Z" fill="#102D33"/>
</svg>
