<svg width="293" height="56" viewBox="0 0 293 56" fill="none" xmlns="http://www.w3.org/2000/svg">
<rect x="1" y="1" width="291" height="54" rx="27" fill="white"/>
<rect x="1" y="1" width="291" height="54" rx="27" stroke="#F8B866" stroke-width="2"/>
<path d="M44.9732 33.334C44.3252 33.646 43.6112 33.886 42.8312 34.054C42.0632 34.234 41.1752 34.324 40.1672 34.324C39.1352 34.324 38.1932 34.162 37.3412 33.838C36.4892 33.502 35.7572 33.04 35.1452 32.452C34.5332 31.852 34.0532 31.144 33.7052 30.328C33.3692 29.5 33.2012 28.588 33.2012 27.592C33.2012 26.572 33.3752 25.654 33.7232 24.838C34.0832 24.01 34.5692 23.308 35.1812 22.732C35.8052 22.156 36.5372 21.712 37.3772 21.4C38.2172 21.088 39.1292 20.932 40.1132 20.932C41.1332 20.932 42.0632 21.082 42.9032 21.382C43.7552 21.67 44.4392 22.054 44.9552 22.534L43.3892 24.226C43.0652 23.866 42.6092 23.56 42.0212 23.308C41.4452 23.056 40.8152 22.93 40.1312 22.93C39.4592 22.93 38.8472 23.05 38.2952 23.29C37.7552 23.53 37.2932 23.86 36.9092 24.28C36.5252 24.7 36.2252 25.192 36.0092 25.756C35.8052 26.32 35.7032 26.932 35.7032 27.592C35.7032 28.276 35.8052 28.906 36.0092 29.482C36.2252 30.046 36.5252 30.538 36.9092 30.958C37.3052 31.378 37.7792 31.708 38.3312 31.948C38.8952 32.176 39.5312 32.29 40.2392 32.29C41.2112 32.29 42.0572 32.14 42.7772 31.84V28.6H40.0952V26.728H44.9732V33.334ZM53.7111 28.816C53.7111 28.54 53.6691 28.276 53.5851 28.024C53.5131 27.772 53.3931 27.55 53.2251 27.358C53.0571 27.166 52.8411 27.016 52.5771 26.908C52.3251 26.788 52.0251 26.728 51.6771 26.728C51.0291 26.728 50.4771 26.926 50.0211 27.322C49.5771 27.706 49.3311 28.204 49.2831 28.816H53.7111ZM55.8711 29.788C55.8711 29.884 55.8711 29.98 55.8711 30.076C55.8711 30.172 55.8651 30.268 55.8531 30.364H49.2831C49.3071 30.676 49.3851 30.964 49.5171 31.228C49.6611 31.48 49.8471 31.702 50.0751 31.894C50.3031 32.074 50.5611 32.218 50.8491 32.326C51.1371 32.434 51.4371 32.488 51.7491 32.488C52.2891 32.488 52.7451 32.392 53.1171 32.2C53.4891 31.996 53.7951 31.72 54.0351 31.372L55.4751 32.524C54.6231 33.676 53.3871 34.252 51.7671 34.252C51.0951 34.252 50.4771 34.15 49.9131 33.946C49.3491 33.73 48.8571 33.43 48.4371 33.046C48.0291 32.662 47.7051 32.194 47.4651 31.642C47.2371 31.078 47.1231 30.442 47.1231 29.734C47.1231 29.038 47.2371 28.408 47.4651 27.844C47.7051 27.268 48.0291 26.782 48.4371 26.386C48.8451 25.978 49.3251 25.666 49.8771 25.45C50.4411 25.222 51.0471 25.108 51.6951 25.108C52.2951 25.108 52.8471 25.21 53.3511 25.414C53.8671 25.606 54.3111 25.9 54.6831 26.296C55.0551 26.68 55.3431 27.166 55.5471 27.754C55.7631 28.33 55.8711 29.008 55.8711 29.788ZM56.721 27.088V25.36H58.233V22.858H60.357V25.36H62.517V27.088H60.357V31.102C60.357 31.486 60.423 31.804 60.555 32.056C60.699 32.308 61.011 32.434 61.491 32.434C61.635 32.434 61.791 32.422 61.959 32.398C62.127 32.362 62.277 32.314 62.409 32.254L62.481 33.946C62.289 34.018 62.061 34.072 61.797 34.108C61.533 34.156 61.281 34.18 61.041 34.18C60.465 34.18 59.997 34.102 59.637 33.946C59.277 33.778 58.989 33.556 58.773 33.28C58.569 32.992 58.425 32.668 58.341 32.308C58.269 31.936 58.233 31.54 58.233 31.12V27.088H56.721ZM71.3267 28.474L66.5387 21.256H69.3107L72.5147 26.62L75.7547 21.256H78.3827L73.5947 28.474V34H71.3267V28.474ZM77.1641 29.644C77.1641 28.96 77.2841 28.342 77.5241 27.79C77.7761 27.226 78.1121 26.746 78.5321 26.35C78.9521 25.954 79.4501 25.648 80.0261 25.432C80.6021 25.216 81.2141 25.108 81.8621 25.108C82.5101 25.108 83.1221 25.216 83.6981 25.432C84.2741 25.648 84.7721 25.954 85.1921 26.35C85.6121 26.746 85.9421 27.226 86.1821 27.79C86.4341 28.342 86.5601 28.96 86.5601 29.644C86.5601 30.328 86.4341 30.952 86.1821 31.516C85.9421 32.08 85.6121 32.566 85.1921 32.974C84.7721 33.37 84.2741 33.682 83.6981 33.91C83.1221 34.138 82.5101 34.252 81.8621 34.252C81.2141 34.252 80.6021 34.138 80.0261 33.91C79.4501 33.682 78.9521 33.37 78.5321 32.974C78.1121 32.566 77.7761 32.08 77.5241 31.516C77.2841 30.952 77.1641 30.328 77.1641 29.644ZM79.3601 29.644C79.3601 29.98 79.4081 30.316 79.5041 30.652C79.6121 30.988 79.7681 31.288 79.9721 31.552C80.1761 31.816 80.4341 32.032 80.7461 32.2C81.0581 32.368 81.4301 32.452 81.8621 32.452C82.2941 32.452 82.6661 32.368 82.9781 32.2C83.2901 32.032 83.5481 31.816 83.7521 31.552C83.9561 31.288 84.1061 30.988 84.2021 30.652C84.3101 30.316 84.3641 29.98 84.3641 29.644C84.3641 29.308 84.3101 28.978 84.2021 28.654C84.1061 28.318 83.9561 28.018 83.7521 27.754C83.5481 27.49 83.2901 27.28 82.9781 27.124C82.6661 26.956 82.2941 26.872 81.8621 26.872C81.4301 26.872 81.0581 26.956 80.7461 27.124C80.4341 27.28 80.1761 27.49 79.9721 27.754C79.7681 28.018 79.6121 28.318 79.5041 28.654C79.4081 28.978 79.3601 29.308 79.3601 29.644ZM96.5384 34H94.4864V32.614H94.4504C94.2584 33.046 93.9224 33.43 93.4424 33.766C92.9744 34.09 92.4164 34.252 91.7684 34.252C91.2044 34.252 90.7184 34.156 90.3104 33.964C89.9144 33.76 89.5844 33.496 89.3204 33.172C89.0684 32.848 88.8824 32.476 88.7624 32.056C88.6424 31.636 88.5824 31.204 88.5824 30.76V25.36H90.7424V30.148C90.7424 30.4 90.7604 30.664 90.7964 30.94C90.8324 31.216 90.9104 31.468 91.0304 31.696C91.1504 31.912 91.3124 32.092 91.5164 32.236C91.7324 32.38 92.0144 32.452 92.3624 32.452C92.6984 32.452 92.9924 32.386 93.2444 32.254C93.5084 32.11 93.7184 31.93 93.8744 31.714C94.0424 31.498 94.1684 31.252 94.2524 30.976C94.3364 30.688 94.3784 30.4 94.3784 30.112V25.36H96.5384V34ZM99.131 25.36H101.201V26.8H101.237C101.477 26.296 101.813 25.888 102.245 25.576C102.677 25.264 103.181 25.108 103.757 25.108C103.841 25.108 103.931 25.114 104.027 25.126C104.123 25.126 104.207 25.138 104.279 25.162V27.142C104.135 27.106 104.009 27.082 103.901 27.07C103.805 27.058 103.709 27.052 103.613 27.052C103.121 27.052 102.725 27.142 102.425 27.322C102.125 27.502 101.891 27.718 101.723 27.97C101.555 28.222 101.441 28.48 101.381 28.744C101.321 29.008 101.291 29.218 101.291 29.374V34H99.131V25.36ZM110.296 21.256H118.522V23.236H112.564V26.728H118.18V28.636H112.564V34H110.296V21.256ZM119.75 25.36H121.82V26.8H121.856C122.096 26.296 122.432 25.888 122.864 25.576C123.296 25.264 123.8 25.108 124.376 25.108C124.46 25.108 124.55 25.114 124.646 25.126C124.742 25.126 124.826 25.138 124.898 25.162V27.142C124.754 27.106 124.628 27.082 124.52 27.07C124.424 27.058 124.328 27.052 124.232 27.052C123.74 27.052 123.344 27.142 123.044 27.322C122.744 27.502 122.51 27.718 122.342 27.97C122.174 28.222 122.06 28.48 122 28.744C121.94 29.008 121.91 29.218 121.91 29.374V34H119.75V25.36ZM132.074 28.816C132.074 28.54 132.032 28.276 131.948 28.024C131.876 27.772 131.756 27.55 131.588 27.358C131.42 27.166 131.204 27.016 130.94 26.908C130.688 26.788 130.388 26.728 130.04 26.728C129.392 26.728 128.84 26.926 128.384 27.322C127.94 27.706 127.694 28.204 127.646 28.816H132.074ZM134.234 29.788C134.234 29.884 134.234 29.98 134.234 30.076C134.234 30.172 134.228 30.268 134.216 30.364H127.646C127.67 30.676 127.748 30.964 127.88 31.228C128.024 31.48 128.21 31.702 128.438 31.894C128.666 32.074 128.924 32.218 129.212 32.326C129.5 32.434 129.8 32.488 130.112 32.488C130.652 32.488 131.108 32.392 131.48 32.2C131.852 31.996 132.158 31.72 132.398 31.372L133.838 32.524C132.986 33.676 131.75 34.252 130.13 34.252C129.458 34.252 128.84 34.15 128.276 33.946C127.712 33.73 127.22 33.43 126.8 33.046C126.392 32.662 126.068 32.194 125.828 31.642C125.6 31.078 125.486 30.442 125.486 29.734C125.486 29.038 125.6 28.408 125.828 27.844C126.068 27.268 126.392 26.782 126.8 26.386C127.208 25.978 127.688 25.666 128.24 25.45C128.804 25.222 129.41 25.108 130.058 25.108C130.658 25.108 131.21 25.21 131.714 25.414C132.23 25.606 132.674 25.9 133.046 26.296C133.418 26.68 133.706 27.166 133.91 27.754C134.126 28.33 134.234 29.008 134.234 29.788ZM142.41 28.816C142.41 28.54 142.368 28.276 142.284 28.024C142.212 27.772 142.092 27.55 141.924 27.358C141.756 27.166 141.54 27.016 141.276 26.908C141.024 26.788 140.724 26.728 140.376 26.728C139.728 26.728 139.176 26.926 138.72 27.322C138.276 27.706 138.03 28.204 137.982 28.816H142.41ZM144.57 29.788C144.57 29.884 144.57 29.98 144.57 30.076C144.57 30.172 144.564 30.268 144.552 30.364H137.982C138.006 30.676 138.084 30.964 138.216 31.228C138.36 31.48 138.546 31.702 138.774 31.894C139.002 32.074 139.26 32.218 139.548 32.326C139.836 32.434 140.136 32.488 140.448 32.488C140.988 32.488 141.444 32.392 141.816 32.2C142.188 31.996 142.494 31.72 142.734 31.372L144.174 32.524C143.322 33.676 142.086 34.252 140.466 34.252C139.794 34.252 139.176 34.15 138.612 33.946C138.048 33.73 137.556 33.43 137.136 33.046C136.728 32.662 136.404 32.194 136.164 31.642C135.936 31.078 135.822 30.442 135.822 29.734C135.822 29.038 135.936 28.408 136.164 27.844C136.404 27.268 136.728 26.782 137.136 26.386C137.544 25.978 138.024 25.666 138.576 25.45C139.14 25.222 139.746 25.108 140.394 25.108C140.994 25.108 141.546 25.21 142.05 25.414C142.566 25.606 143.01 25.9 143.382 26.296C143.754 26.68 144.042 27.166 144.246 27.754C144.462 28.33 144.57 29.008 144.57 29.788ZM149.763 21.256H152.247L154.713 30.616H154.749L157.557 21.256H159.897L162.651 30.616H162.687L165.207 21.256H167.619L163.893 34H161.697L158.709 24.442H158.673L155.685 34H153.489L149.763 21.256ZM173.735 32.902H173.681C173.465 33.286 173.117 33.604 172.637 33.856C172.157 34.096 171.611 34.216 170.999 34.216C170.651 34.216 170.285 34.168 169.901 34.072C169.529 33.988 169.181 33.844 168.857 33.64C168.545 33.424 168.281 33.148 168.065 32.812C167.861 32.464 167.759 32.038 167.759 31.534C167.759 30.886 167.939 30.37 168.299 29.986C168.671 29.602 169.145 29.308 169.721 29.104C170.297 28.9 170.933 28.768 171.629 28.708C172.337 28.636 173.027 28.6 173.699 28.6V28.384C173.699 27.844 173.501 27.448 173.105 27.196C172.721 26.932 172.259 26.8 171.719 26.8C171.263 26.8 170.825 26.896 170.405 27.088C169.985 27.28 169.637 27.514 169.361 27.79L168.245 26.476C168.737 26.02 169.301 25.678 169.937 25.45C170.585 25.222 171.239 25.108 171.899 25.108C172.667 25.108 173.297 25.216 173.789 25.432C174.293 25.648 174.689 25.93 174.977 26.278C175.265 26.626 175.463 27.016 175.571 27.448C175.691 27.88 175.751 28.312 175.751 28.744V34H173.735V32.902ZM173.699 30.058H173.213C172.865 30.058 172.499 30.076 172.115 30.112C171.731 30.136 171.377 30.202 171.053 30.31C170.729 30.406 170.459 30.55 170.243 30.742C170.027 30.922 169.919 31.174 169.919 31.498C169.919 31.702 169.961 31.876 170.045 32.02C170.141 32.152 170.261 32.26 170.405 32.344C170.549 32.428 170.711 32.488 170.891 32.524C171.071 32.56 171.251 32.578 171.431 32.578C172.175 32.578 172.739 32.38 173.123 31.984C173.507 31.588 173.699 31.048 173.699 30.364V30.058ZM176.85 27.088V25.36H178.362V22.858H180.486V25.36H182.646V27.088H180.486V31.102C180.486 31.486 180.552 31.804 180.684 32.056C180.828 32.308 181.14 32.434 181.62 32.434C181.764 32.434 181.92 32.422 182.088 32.398C182.256 32.362 182.406 32.314 182.538 32.254L182.61 33.946C182.418 34.018 182.19 34.072 181.926 34.108C181.662 34.156 181.41 34.18 181.17 34.18C180.594 34.18 180.126 34.102 179.766 33.946C179.406 33.778 179.118 33.556 178.902 33.28C178.698 32.992 178.554 32.668 178.47 32.308C178.398 31.936 178.362 31.54 178.362 31.12V27.088H176.85ZM190.293 28.816C190.293 28.54 190.251 28.276 190.167 28.024C190.095 27.772 189.975 27.55 189.807 27.358C189.639 27.166 189.423 27.016 189.159 26.908C188.907 26.788 188.607 26.728 188.259 26.728C187.611 26.728 187.059 26.926 186.603 27.322C186.159 27.706 185.913 28.204 185.865 28.816H190.293ZM192.453 29.788C192.453 29.884 192.453 29.98 192.453 30.076C192.453 30.172 192.447 30.268 192.435 30.364H185.865C185.889 30.676 185.967 30.964 186.099 31.228C186.243 31.48 186.429 31.702 186.657 31.894C186.885 32.074 187.143 32.218 187.431 32.326C187.719 32.434 188.019 32.488 188.331 32.488C188.871 32.488 189.327 32.392 189.699 32.2C190.071 31.996 190.377 31.72 190.617 31.372L192.057 32.524C191.205 33.676 189.969 34.252 188.349 34.252C187.677 34.252 187.059 34.15 186.495 33.946C185.931 33.73 185.439 33.43 185.019 33.046C184.611 32.662 184.287 32.194 184.047 31.642C183.819 31.078 183.705 30.442 183.705 29.734C183.705 29.038 183.819 28.408 184.047 27.844C184.287 27.268 184.611 26.782 185.019 26.386C185.427 25.978 185.907 25.666 186.459 25.45C187.023 25.222 187.629 25.108 188.277 25.108C188.877 25.108 189.429 25.21 189.933 25.414C190.449 25.606 190.893 25.9 191.265 26.296C191.637 26.68 191.925 27.166 192.129 27.754C192.345 28.33 192.453 29.008 192.453 29.788ZM194.545 25.36H196.615V26.8H196.651C196.891 26.296 197.227 25.888 197.659 25.576C198.091 25.264 198.595 25.108 199.171 25.108C199.255 25.108 199.345 25.114 199.441 25.126C199.537 25.126 199.621 25.138 199.693 25.162V27.142C199.549 27.106 199.423 27.082 199.315 27.07C199.219 27.058 199.123 27.052 199.027 27.052C198.535 27.052 198.139 27.142 197.839 27.322C197.539 27.502 197.305 27.718 197.137 27.97C196.969 28.222 196.855 28.48 196.795 28.744C196.735 29.008 196.705 29.218 196.705 29.374V34H194.545V25.36ZM205.71 21.256H210.138C210.738 21.256 211.32 21.322 211.884 21.454C212.448 21.574 212.946 21.778 213.378 22.066C213.822 22.354 214.176 22.732 214.44 23.2C214.704 23.668 214.836 24.238 214.836 24.91C214.836 25.834 214.572 26.59 214.044 27.178C213.528 27.754 212.82 28.144 211.92 28.348L215.322 34H212.586L209.634 28.6H207.978V34H205.71V21.256ZM209.832 26.746C210.156 26.746 210.48 26.722 210.804 26.674C211.128 26.626 211.416 26.536 211.668 26.404C211.932 26.272 212.148 26.086 212.316 25.846C212.484 25.594 212.568 25.276 212.568 24.892C212.568 24.544 212.49 24.262 212.334 24.046C212.178 23.818 211.98 23.638 211.74 23.506C211.5 23.374 211.224 23.284 210.912 23.236C210.612 23.188 210.318 23.164 210.03 23.164H207.978V26.746H209.832ZM222.795 28.816C222.795 28.54 222.753 28.276 222.669 28.024C222.597 27.772 222.477 27.55 222.309 27.358C222.141 27.166 221.925 27.016 221.661 26.908C221.409 26.788 221.109 26.728 220.761 26.728C220.113 26.728 219.561 26.926 219.105 27.322C218.661 27.706 218.415 28.204 218.367 28.816H222.795ZM224.955 29.788C224.955 29.884 224.955 29.98 224.955 30.076C224.955 30.172 224.949 30.268 224.937 30.364H218.367C218.391 30.676 218.469 30.964 218.601 31.228C218.745 31.48 218.931 31.702 219.159 31.894C219.387 32.074 219.645 32.218 219.933 32.326C220.221 32.434 220.521 32.488 220.833 32.488C221.373 32.488 221.829 32.392 222.201 32.2C222.573 31.996 222.879 31.72 223.119 31.372L224.559 32.524C223.707 33.676 222.471 34.252 220.851 34.252C220.179 34.252 219.561 34.15 218.997 33.946C218.433 33.73 217.941 33.43 217.521 33.046C217.113 32.662 216.789 32.194 216.549 31.642C216.321 31.078 216.207 30.442 216.207 29.734C216.207 29.038 216.321 28.408 216.549 27.844C216.789 27.268 217.113 26.782 217.521 26.386C217.929 25.978 218.409 25.666 218.961 25.45C219.525 25.222 220.131 25.108 220.779 25.108C221.379 25.108 221.931 25.21 222.435 25.414C222.951 25.606 223.395 25.9 223.767 26.296C224.139 26.68 224.427 27.166 224.631 27.754C224.847 28.33 224.955 29.008 224.955 29.788ZM229.117 25.36V26.566H229.171C229.279 26.398 229.417 26.23 229.585 26.062C229.765 25.882 229.981 25.726 230.233 25.594C230.485 25.45 230.767 25.336 231.079 25.252C231.403 25.156 231.763 25.108 232.159 25.108C232.771 25.108 233.335 25.228 233.851 25.468C234.367 25.696 234.811 26.014 235.183 26.422C235.555 26.83 235.843 27.31 236.047 27.862C236.251 28.414 236.353 29.008 236.353 29.644C236.353 30.28 236.251 30.88 236.047 31.444C235.855 31.996 235.573 32.482 235.201 32.902C234.841 33.31 234.397 33.64 233.869 33.892C233.353 34.132 232.765 34.252 232.105 34.252C231.493 34.252 230.929 34.126 230.413 33.874C229.909 33.622 229.519 33.28 229.243 32.848H229.207V38.32H227.047V25.36H229.117ZM234.157 29.644C234.157 29.308 234.103 28.978 233.995 28.654C233.899 28.318 233.749 28.018 233.545 27.754C233.341 27.49 233.083 27.28 232.771 27.124C232.459 26.956 232.093 26.872 231.673 26.872C231.277 26.872 230.923 26.956 230.611 27.124C230.299 27.292 230.029 27.508 229.801 27.772C229.585 28.036 229.417 28.336 229.297 28.672C229.189 29.008 229.135 29.344 229.135 29.68C229.135 30.016 229.189 30.352 229.297 30.688C229.417 31.012 229.585 31.306 229.801 31.57C230.029 31.834 230.299 32.05 230.611 32.218C230.923 32.374 231.277 32.452 231.673 32.452C232.093 32.452 232.459 32.368 232.771 32.2C233.083 32.032 233.341 31.816 233.545 31.552C233.749 31.288 233.899 30.988 233.995 30.652C234.103 30.316 234.157 29.98 234.157 29.644ZM237.934 29.644C237.934 28.96 238.054 28.342 238.294 27.79C238.546 27.226 238.882 26.746 239.302 26.35C239.722 25.954 240.22 25.648 240.796 25.432C241.372 25.216 241.984 25.108 242.632 25.108C243.28 25.108 243.892 25.216 244.468 25.432C245.044 25.648 245.542 25.954 245.962 26.35C246.382 26.746 246.712 27.226 246.952 27.79C247.204 28.342 247.33 28.96 247.33 29.644C247.33 30.328 247.204 30.952 246.952 31.516C246.712 32.08 246.382 32.566 245.962 32.974C245.542 33.37 245.044 33.682 244.468 33.91C243.892 34.138 243.28 34.252 242.632 34.252C241.984 34.252 241.372 34.138 240.796 33.91C240.22 33.682 239.722 33.37 239.302 32.974C238.882 32.566 238.546 32.08 238.294 31.516C238.054 30.952 237.934 30.328 237.934 29.644ZM240.13 29.644C240.13 29.98 240.178 30.316 240.274 30.652C240.382 30.988 240.538 31.288 240.742 31.552C240.946 31.816 241.204 32.032 241.516 32.2C241.828 32.368 242.2 32.452 242.632 32.452C243.064 32.452 243.436 32.368 243.748 32.2C244.06 32.032 244.318 31.816 244.522 31.552C244.726 31.288 244.876 30.988 244.972 30.652C245.08 30.316 245.134 29.98 245.134 29.644C245.134 29.308 245.08 28.978 244.972 28.654C244.876 28.318 244.726 28.018 244.522 27.754C244.318 27.49 244.06 27.28 243.748 27.124C243.436 26.956 243.064 26.872 242.632 26.872C242.2 26.872 241.828 26.956 241.516 27.124C241.204 27.28 240.946 27.49 240.742 27.754C240.538 28.018 240.382 28.318 240.274 28.654C240.178 28.978 240.13 29.308 240.13 29.644ZM249.424 25.36H251.494V26.8H251.53C251.77 26.296 252.106 25.888 252.538 25.576C252.97 25.264 253.474 25.108 254.05 25.108C254.134 25.108 254.224 25.114 254.32 25.126C254.416 25.126 254.5 25.138 254.572 25.162V27.142C254.428 27.106 254.302 27.082 254.194 27.07C254.098 27.058 254.002 27.052 253.906 27.052C253.414 27.052 253.018 27.142 252.718 27.322C252.418 27.502 252.184 27.718 252.016 27.97C251.848 28.222 251.734 28.48 251.674 28.744C251.614 29.008 251.584 29.218 251.584 29.374V34H249.424V25.36ZM254.528 27.088V25.36H256.04V22.858H258.164V25.36H260.324V27.088H258.164V31.102C258.164 31.486 258.23 31.804 258.362 32.056C258.506 32.308 258.818 32.434 259.298 32.434C259.442 32.434 259.598 32.422 259.766 32.398C259.934 32.362 260.084 32.314 260.216 32.254L260.288 33.946C260.096 34.018 259.868 34.072 259.604 34.108C259.34 34.156 259.088 34.18 258.848 34.18C258.272 34.18 257.804 34.102 257.444 33.946C257.084 33.778 256.796 33.556 256.58 33.28C256.376 32.992 256.232 32.668 256.148 32.308C256.076 31.936 256.04 31.54 256.04 31.12V27.088H254.528Z" fill="#311C01"/>
</svg>
