<svg width="328" height="48" viewBox="0 0 328 48" fill="none" xmlns="http://www.w3.org/2000/svg">
<rect width="328" height="48" rx="24" fill="#F9A31A"/>
<path d="M123.178 17.672H125.194V27.208H130.01V29H123.178V17.672ZM136.38 24.392C136.38 24.1467 136.343 23.912 136.268 23.688C136.204 23.464 136.098 23.2667 135.948 23.096C135.799 22.9253 135.607 22.792 135.372 22.696C135.148 22.5893 134.882 22.536 134.572 22.536C133.996 22.536 133.506 22.712 133.1 23.064C132.706 23.4053 132.487 23.848 132.444 24.392H136.38ZM138.3 25.256C138.3 25.3413 138.3 25.4267 138.3 25.512C138.3 25.5973 138.295 25.6827 138.284 25.768H132.444C132.466 26.0453 132.535 26.3013 132.652 26.536C132.78 26.76 132.946 26.9573 133.148 27.128C133.351 27.288 133.58 27.416 133.836 27.512C134.092 27.608 134.359 27.656 134.636 27.656C135.116 27.656 135.522 27.5707 135.852 27.4C136.183 27.2187 136.455 26.9733 136.668 26.664L137.948 27.688C137.191 28.712 136.092 29.224 134.652 29.224C134.055 29.224 133.506 29.1333 133.004 28.952C132.503 28.76 132.066 28.4933 131.692 28.152C131.33 27.8107 131.042 27.3947 130.828 26.904C130.626 26.4027 130.524 25.8373 130.524 25.208C130.524 24.5893 130.626 24.0293 130.828 23.528C131.042 23.016 131.33 22.584 131.692 22.232C132.055 21.8693 132.482 21.592 132.972 21.4C133.474 21.1973 134.012 21.096 134.588 21.096C135.122 21.096 135.612 21.1867 136.06 21.368C136.519 21.5387 136.914 21.8 137.244 22.152C137.575 22.4933 137.831 22.9253 138.012 23.448C138.204 23.96 138.3 24.5627 138.3 25.256ZM144.834 28.024H144.786C144.594 28.3653 144.285 28.648 143.858 28.872C143.431 29.0853 142.946 29.192 142.402 29.192C142.093 29.192 141.767 29.1493 141.426 29.064C141.095 28.9893 140.786 28.8613 140.498 28.68C140.221 28.488 139.986 28.2427 139.794 27.944C139.613 27.6347 139.522 27.256 139.522 26.808C139.522 26.232 139.682 25.7733 140.002 25.432C140.333 25.0907 140.754 24.8293 141.266 24.648C141.778 24.4667 142.343 24.3493 142.962 24.296C143.591 24.232 144.205 24.2 144.802 24.2V24.008C144.802 23.528 144.626 23.176 144.274 22.952C143.933 22.7173 143.522 22.6 143.042 22.6C142.637 22.6 142.247 22.6853 141.874 22.856C141.501 23.0267 141.191 23.2347 140.946 23.48L139.954 22.312C140.391 21.9067 140.893 21.6027 141.458 21.4C142.034 21.1973 142.615 21.096 143.202 21.096C143.885 21.096 144.445 21.192 144.882 21.384C145.33 21.576 145.682 21.8267 145.938 22.136C146.194 22.4453 146.37 22.792 146.466 23.176C146.573 23.56 146.626 23.944 146.626 24.328V29H144.834V28.024ZM144.802 25.496H144.37C144.061 25.496 143.735 25.512 143.394 25.544C143.053 25.5653 142.738 25.624 142.45 25.72C142.162 25.8053 141.922 25.9333 141.73 26.104C141.538 26.264 141.442 26.488 141.442 26.776C141.442 26.9573 141.479 27.112 141.554 27.24C141.639 27.3573 141.746 27.4533 141.874 27.528C142.002 27.6027 142.146 27.656 142.306 27.688C142.466 27.72 142.626 27.736 142.786 27.736C143.447 27.736 143.949 27.56 144.29 27.208C144.631 26.856 144.802 26.376 144.802 25.768V25.496ZM148.863 21.32H150.703V22.6H150.735C150.948 22.152 151.247 21.7893 151.631 21.512C152.015 21.2347 152.463 21.096 152.975 21.096C153.05 21.096 153.13 21.1013 153.215 21.112C153.3 21.112 153.375 21.1227 153.439 21.144V22.904C153.311 22.872 153.199 22.8507 153.103 22.84C153.018 22.8293 152.932 22.824 152.847 22.824C152.41 22.824 152.058 22.904 151.791 23.064C151.524 23.224 151.316 23.416 151.167 23.64C151.018 23.864 150.916 24.0933 150.863 24.328C150.81 24.5627 150.783 24.7493 150.783 24.888V29H148.863V21.32ZM154.691 21.32H156.515V22.552H156.547C156.718 22.168 157.011 21.832 157.427 21.544C157.854 21.2453 158.355 21.096 158.931 21.096C159.432 21.096 159.859 21.1867 160.211 21.368C160.574 21.5387 160.867 21.768 161.091 22.056C161.326 22.344 161.496 22.6747 161.603 23.048C161.71 23.4213 161.763 23.8053 161.763 24.2V29H159.843V24.744C159.843 24.52 159.827 24.2853 159.795 24.04C159.763 23.7947 159.694 23.576 159.587 23.384C159.48 23.1813 159.331 23.016 159.139 22.888C158.958 22.76 158.712 22.696 158.403 22.696C158.094 22.696 157.827 22.76 157.603 22.888C157.379 23.0053 157.192 23.16 157.043 23.352C156.904 23.544 156.798 23.768 156.723 24.024C156.648 24.2693 156.611 24.52 156.611 24.776V29H154.691V21.32ZM168.1 17.672H171.252L174.196 25.72H174.244L177.156 17.672H180.324V29H178.324V19.896H178.292L174.852 29H173.444L170.052 19.896H170.02V29H168.1V17.672ZM182.274 25.128C182.274 24.52 182.381 23.9707 182.594 23.48C182.818 22.9787 183.117 22.552 183.49 22.2C183.864 21.848 184.306 21.576 184.818 21.384C185.33 21.192 185.874 21.096 186.45 21.096C187.026 21.096 187.57 21.192 188.082 21.384C188.594 21.576 189.037 21.848 189.41 22.2C189.784 22.552 190.077 22.9787 190.29 23.48C190.514 23.9707 190.626 24.52 190.626 25.128C190.626 25.736 190.514 26.2907 190.29 26.792C190.077 27.2933 189.784 27.7253 189.41 28.088C189.037 28.44 188.594 28.7173 188.082 28.92C187.57 29.1227 187.026 29.224 186.45 29.224C185.874 29.224 185.33 29.1227 184.818 28.92C184.306 28.7173 183.864 28.44 183.49 28.088C183.117 27.7253 182.818 27.2933 182.594 26.792C182.381 26.2907 182.274 25.736 182.274 25.128ZM184.226 25.128C184.226 25.4267 184.269 25.7253 184.354 26.024C184.45 26.3227 184.589 26.5893 184.77 26.824C184.952 27.0587 185.181 27.2507 185.458 27.4C185.736 27.5493 186.066 27.624 186.45 27.624C186.834 27.624 187.165 27.5493 187.442 27.4C187.72 27.2507 187.949 27.0587 188.13 26.824C188.312 26.5893 188.445 26.3227 188.53 26.024C188.626 25.7253 188.674 25.4267 188.674 25.128C188.674 24.8293 188.626 24.536 188.53 24.248C188.445 23.9493 188.312 23.6827 188.13 23.448C187.949 23.2133 187.72 23.0267 187.442 22.888C187.165 22.7387 186.834 22.664 186.45 22.664C186.066 22.664 185.736 22.7387 185.458 22.888C185.181 23.0267 184.952 23.2133 184.77 23.448C184.589 23.6827 184.45 23.9493 184.354 24.248C184.269 24.536 184.226 24.8293 184.226 25.128ZM192.488 21.32H194.328V22.6H194.36C194.573 22.152 194.872 21.7893 195.256 21.512C195.64 21.2347 196.088 21.096 196.6 21.096C196.675 21.096 196.755 21.1013 196.84 21.112C196.925 21.112 197 21.1227 197.064 21.144V22.904C196.936 22.872 196.824 22.8507 196.728 22.84C196.643 22.8293 196.557 22.824 196.472 22.824C196.035 22.824 195.683 22.904 195.416 23.064C195.149 23.224 194.941 23.416 194.792 23.64C194.643 23.864 194.541 24.0933 194.488 24.328C194.435 24.5627 194.408 24.7493 194.408 24.888V29H192.488V21.32ZM203.443 24.392C203.443 24.1467 203.405 23.912 203.331 23.688C203.267 23.464 203.16 23.2667 203.011 23.096C202.861 22.9253 202.669 22.792 202.435 22.696C202.211 22.5893 201.944 22.536 201.635 22.536C201.059 22.536 200.568 22.712 200.163 23.064C199.768 23.4053 199.549 23.848 199.507 24.392H203.443ZM205.363 25.256C205.363 25.3413 205.363 25.4267 205.363 25.512C205.363 25.5973 205.357 25.6827 205.347 25.768H199.507C199.528 26.0453 199.597 26.3013 199.715 26.536C199.843 26.76 200.008 26.9573 200.211 27.128C200.413 27.288 200.643 27.416 200.899 27.512C201.155 27.608 201.421 27.656 201.699 27.656C202.179 27.656 202.584 27.5707 202.915 27.4C203.245 27.2187 203.517 26.9733 203.731 26.664L205.011 27.688C204.253 28.712 203.155 29.224 201.715 29.224C201.117 29.224 200.568 29.1333 200.067 28.952C199.565 28.76 199.128 28.4933 198.755 28.152C198.392 27.8107 198.104 27.3947 197.891 26.904C197.688 26.4027 197.587 25.8373 197.587 25.208C197.587 24.5893 197.688 24.0293 197.891 23.528C198.104 23.016 198.392 22.584 198.755 22.232C199.117 21.8693 199.544 21.592 200.035 21.4C200.536 21.1973 201.075 21.096 201.651 21.096C202.184 21.096 202.675 21.1867 203.123 21.368C203.581 21.5387 203.976 21.8 204.307 22.152C204.637 22.4933 204.893 22.9253 205.075 23.448C205.267 23.96 205.363 24.5627 205.363 25.256Z" fill="#311C01"/>
</svg>
