<svg width="288" height="48" viewBox="0 0 288 48" fill="none" xmlns="http://www.w3.org/2000/svg">
<rect width="288" height="48" rx="24" fill="#F9A31A"/>
<path d="M103.178 17.672H105.194V27.208H110.01V29H103.178V17.672ZM116.38 24.392C116.38 24.1467 116.343 23.912 116.268 23.688C116.204 23.464 116.098 23.2667 115.948 23.096C115.799 22.9253 115.607 22.792 115.372 22.696C115.148 22.5893 114.882 22.536 114.572 22.536C113.996 22.536 113.506 22.712 113.1 23.064C112.706 23.4053 112.487 23.848 112.444 24.392H116.38ZM118.3 25.256C118.3 25.3413 118.3 25.4267 118.3 25.512C118.3 25.5973 118.295 25.6827 118.284 25.768H112.444C112.466 26.0453 112.535 26.3013 112.652 26.536C112.78 26.76 112.946 26.9573 113.148 27.128C113.351 27.288 113.58 27.416 113.836 27.512C114.092 27.608 114.359 27.656 114.636 27.656C115.116 27.656 115.522 27.5707 115.852 27.4C116.183 27.2187 116.455 26.9733 116.668 26.664L117.948 27.688C117.191 28.712 116.092 29.224 114.652 29.224C114.055 29.224 113.506 29.1333 113.004 28.952C112.503 28.76 112.066 28.4933 111.692 28.152C111.33 27.8107 111.042 27.3947 110.828 26.904C110.626 26.4027 110.524 25.8373 110.524 25.208C110.524 24.5893 110.626 24.0293 110.828 23.528C111.042 23.016 111.33 22.584 111.692 22.232C112.055 21.8693 112.482 21.592 112.972 21.4C113.474 21.1973 114.012 21.096 114.588 21.096C115.122 21.096 115.612 21.1867 116.06 21.368C116.519 21.5387 116.914 21.8 117.244 22.152C117.575 22.4933 117.831 22.9253 118.012 23.448C118.204 23.96 118.3 24.5627 118.3 25.256ZM124.834 28.024H124.786C124.594 28.3653 124.285 28.648 123.858 28.872C123.431 29.0853 122.946 29.192 122.402 29.192C122.093 29.192 121.767 29.1493 121.426 29.064C121.095 28.9893 120.786 28.8613 120.498 28.68C120.221 28.488 119.986 28.2427 119.794 27.944C119.613 27.6347 119.522 27.256 119.522 26.808C119.522 26.232 119.682 25.7733 120.002 25.432C120.333 25.0907 120.754 24.8293 121.266 24.648C121.778 24.4667 122.343 24.3493 122.962 24.296C123.591 24.232 124.205 24.2 124.802 24.2V24.008C124.802 23.528 124.626 23.176 124.274 22.952C123.933 22.7173 123.522 22.6 123.042 22.6C122.637 22.6 122.247 22.6853 121.874 22.856C121.501 23.0267 121.191 23.2347 120.946 23.48L119.954 22.312C120.391 21.9067 120.893 21.6027 121.458 21.4C122.034 21.1973 122.615 21.096 123.202 21.096C123.885 21.096 124.445 21.192 124.882 21.384C125.33 21.576 125.682 21.8267 125.938 22.136C126.194 22.4453 126.37 22.792 126.466 23.176C126.573 23.56 126.626 23.944 126.626 24.328V29H124.834V28.024ZM124.802 25.496H124.37C124.061 25.496 123.735 25.512 123.394 25.544C123.053 25.5653 122.738 25.624 122.45 25.72C122.162 25.8053 121.922 25.9333 121.73 26.104C121.538 26.264 121.442 26.488 121.442 26.776C121.442 26.9573 121.479 27.112 121.554 27.24C121.639 27.3573 121.746 27.4533 121.874 27.528C122.002 27.6027 122.146 27.656 122.306 27.688C122.466 27.72 122.626 27.736 122.786 27.736C123.447 27.736 123.949 27.56 124.29 27.208C124.631 26.856 124.802 26.376 124.802 25.768V25.496ZM128.863 21.32H130.703V22.6H130.735C130.948 22.152 131.247 21.7893 131.631 21.512C132.015 21.2347 132.463 21.096 132.975 21.096C133.05 21.096 133.13 21.1013 133.215 21.112C133.3 21.112 133.375 21.1227 133.439 21.144V22.904C133.311 22.872 133.199 22.8507 133.103 22.84C133.018 22.8293 132.932 22.824 132.847 22.824C132.41 22.824 132.058 22.904 131.791 23.064C131.524 23.224 131.316 23.416 131.167 23.64C131.018 23.864 130.916 24.0933 130.863 24.328C130.81 24.5627 130.783 24.7493 130.783 24.888V29H128.863V21.32ZM134.691 21.32H136.515V22.552H136.547C136.718 22.168 137.011 21.832 137.427 21.544C137.854 21.2453 138.355 21.096 138.931 21.096C139.432 21.096 139.859 21.1867 140.211 21.368C140.574 21.5387 140.867 21.768 141.091 22.056C141.326 22.344 141.496 22.6747 141.603 23.048C141.71 23.4213 141.763 23.8053 141.763 24.2V29H139.843V24.744C139.843 24.52 139.827 24.2853 139.795 24.04C139.763 23.7947 139.694 23.576 139.587 23.384C139.48 23.1813 139.331 23.016 139.139 22.888C138.958 22.76 138.712 22.696 138.403 22.696C138.094 22.696 137.827 22.76 137.603 22.888C137.379 23.0053 137.192 23.16 137.043 23.352C136.904 23.544 136.798 23.768 136.723 24.024C136.648 24.2693 136.611 24.52 136.611 24.776V29H134.691V21.32ZM148.1 17.672H151.252L154.196 25.72H154.244L157.156 17.672H160.324V29H158.324V19.896H158.292L154.852 29H153.444L150.052 19.896H150.02V29H148.1V17.672ZM162.274 25.128C162.274 24.52 162.381 23.9707 162.594 23.48C162.818 22.9787 163.117 22.552 163.49 22.2C163.864 21.848 164.306 21.576 164.818 21.384C165.33 21.192 165.874 21.096 166.45 21.096C167.026 21.096 167.57 21.192 168.082 21.384C168.594 21.576 169.037 21.848 169.41 22.2C169.784 22.552 170.077 22.9787 170.29 23.48C170.514 23.9707 170.626 24.52 170.626 25.128C170.626 25.736 170.514 26.2907 170.29 26.792C170.077 27.2933 169.784 27.7253 169.41 28.088C169.037 28.44 168.594 28.7173 168.082 28.92C167.57 29.1227 167.026 29.224 166.45 29.224C165.874 29.224 165.33 29.1227 164.818 28.92C164.306 28.7173 163.864 28.44 163.49 28.088C163.117 27.7253 162.818 27.2933 162.594 26.792C162.381 26.2907 162.274 25.736 162.274 25.128ZM164.226 25.128C164.226 25.4267 164.269 25.7253 164.354 26.024C164.45 26.3227 164.589 26.5893 164.77 26.824C164.952 27.0587 165.181 27.2507 165.458 27.4C165.736 27.5493 166.066 27.624 166.45 27.624C166.834 27.624 167.165 27.5493 167.442 27.4C167.72 27.2507 167.949 27.0587 168.13 26.824C168.312 26.5893 168.445 26.3227 168.53 26.024C168.626 25.7253 168.674 25.4267 168.674 25.128C168.674 24.8293 168.626 24.536 168.53 24.248C168.445 23.9493 168.312 23.6827 168.13 23.448C167.949 23.2133 167.72 23.0267 167.442 22.888C167.165 22.7387 166.834 22.664 166.45 22.664C166.066 22.664 165.736 22.7387 165.458 22.888C165.181 23.0267 164.952 23.2133 164.77 23.448C164.589 23.6827 164.45 23.9493 164.354 24.248C164.269 24.536 164.226 24.8293 164.226 25.128ZM172.488 21.32H174.328V22.6H174.36C174.573 22.152 174.872 21.7893 175.256 21.512C175.64 21.2347 176.088 21.096 176.6 21.096C176.675 21.096 176.755 21.1013 176.84 21.112C176.925 21.112 177 21.1227 177.064 21.144V22.904C176.936 22.872 176.824 22.8507 176.728 22.84C176.643 22.8293 176.557 22.824 176.472 22.824C176.035 22.824 175.683 22.904 175.416 23.064C175.149 23.224 174.941 23.416 174.792 23.64C174.643 23.864 174.541 24.0933 174.488 24.328C174.435 24.5627 174.408 24.7493 174.408 24.888V29H172.488V21.32ZM183.443 24.392C183.443 24.1467 183.405 23.912 183.331 23.688C183.267 23.464 183.16 23.2667 183.011 23.096C182.861 22.9253 182.669 22.792 182.435 22.696C182.211 22.5893 181.944 22.536 181.635 22.536C181.059 22.536 180.568 22.712 180.163 23.064C179.768 23.4053 179.549 23.848 179.507 24.392H183.443ZM185.363 25.256C185.363 25.3413 185.363 25.4267 185.363 25.512C185.363 25.5973 185.357 25.6827 185.347 25.768H179.507C179.528 26.0453 179.597 26.3013 179.715 26.536C179.843 26.76 180.008 26.9573 180.211 27.128C180.413 27.288 180.643 27.416 180.899 27.512C181.155 27.608 181.421 27.656 181.699 27.656C182.179 27.656 182.584 27.5707 182.915 27.4C183.245 27.2187 183.517 26.9733 183.731 26.664L185.011 27.688C184.253 28.712 183.155 29.224 181.715 29.224C181.117 29.224 180.568 29.1333 180.067 28.952C179.565 28.76 179.128 28.4933 178.755 28.152C178.392 27.8107 178.104 27.3947 177.891 26.904C177.688 26.4027 177.587 25.8373 177.587 25.208C177.587 24.5893 177.688 24.0293 177.891 23.528C178.104 23.016 178.392 22.584 178.755 22.232C179.117 21.8693 179.544 21.592 180.035 21.4C180.536 21.1973 181.075 21.096 181.651 21.096C182.184 21.096 182.675 21.1867 183.123 21.368C183.581 21.5387 183.976 21.8 184.307 22.152C184.637 22.4933 184.893 22.9253 185.075 23.448C185.267 23.96 185.363 24.5627 185.363 25.256Z" fill="#311C01"/>
</svg>
