<svg width="243" height="56" viewBox="0 0 243 56" fill="none" xmlns="http://www.w3.org/2000/svg">
<rect width="243" height="56" rx="28" fill="#F9A31A"/>
<path d="M40.1964 24.568C39.9324 24.232 39.5844 23.968 39.1524 23.776C38.7324 23.572 38.3244 23.47 37.9284 23.47C37.7244 23.47 37.5144 23.488 37.2984 23.524C37.0944 23.56 36.9084 23.632 36.7404 23.74C36.5724 23.836 36.4284 23.968 36.3084 24.136C36.2004 24.292 36.1464 24.496 36.1464 24.748C36.1464 24.964 36.1884 25.144 36.2724 25.288C36.3684 25.432 36.5004 25.558 36.6684 25.666C36.8484 25.774 37.0584 25.876 37.2984 25.972C37.5384 26.056 37.8084 26.146 38.1084 26.242C38.5404 26.386 38.9904 26.548 39.4584 26.728C39.9264 26.896 40.3524 27.124 40.7364 27.412C41.1204 27.7 41.4384 28.06 41.6904 28.492C41.9424 28.912 42.0684 29.44 42.0684 30.076C42.0684 30.808 41.9304 31.444 41.6544 31.984C41.3904 32.512 41.0304 32.95 40.5744 33.298C40.1184 33.646 39.5964 33.904 39.0084 34.072C38.4204 34.24 37.8144 34.324 37.1904 34.324C36.2784 34.324 35.3964 34.168 34.5444 33.856C33.6924 33.532 32.9844 33.076 32.4204 32.488L34.4364 30.436C34.7484 30.82 35.1564 31.144 35.6604 31.408C36.1764 31.66 36.6864 31.786 37.1904 31.786C37.4184 31.786 37.6404 31.762 37.8564 31.714C38.0724 31.666 38.2584 31.588 38.4144 31.48C38.5824 31.372 38.7144 31.228 38.8104 31.048C38.9064 30.868 38.9544 30.652 38.9544 30.4C38.9544 30.16 38.8944 29.956 38.7744 29.788C38.6544 29.62 38.4804 29.47 38.2524 29.338C38.0364 29.194 37.7604 29.068 37.4244 28.96C37.1004 28.84 36.7284 28.714 36.3084 28.582C35.9004 28.45 35.4984 28.294 35.1024 28.114C34.7184 27.934 34.3704 27.706 34.0584 27.43C33.7584 27.142 33.5124 26.8 33.3204 26.404C33.1404 25.996 33.0504 25.504 33.0504 24.928C33.0504 24.22 33.1944 23.614 33.4824 23.11C33.7704 22.606 34.1484 22.192 34.6164 21.868C35.0844 21.544 35.6124 21.31 36.2004 21.166C36.7884 21.01 37.3824 20.932 37.9824 20.932C38.7024 20.932 39.4344 21.064 40.1784 21.328C40.9344 21.592 41.5944 21.982 42.1584 22.498L40.1964 24.568ZM49.8412 34V29.14C49.8412 28.888 49.8232 28.648 49.7872 28.42C49.7512 28.192 49.6792 27.994 49.5712 27.826C49.4752 27.646 49.3432 27.508 49.1752 27.412C49.0072 27.304 48.7912 27.25 48.5272 27.25C48.0112 27.25 47.6152 27.436 47.3392 27.808C47.0632 28.168 46.9252 28.618 46.9252 29.158V34H43.9732V20.392H46.9252V26.17H46.9612C47.1652 25.81 47.4892 25.492 47.9332 25.216C48.3772 24.928 48.9112 24.784 49.5352 24.784C50.1472 24.784 50.6572 24.892 51.0652 25.108C51.4852 25.324 51.8212 25.606 52.0732 25.954C52.3372 26.29 52.5232 26.68 52.6312 27.124C52.7512 27.568 52.8112 28.012 52.8112 28.456V34H49.8412ZM64.5505 29.482C64.5505 30.214 64.4185 30.88 64.1545 31.48C63.8905 32.068 63.5305 32.572 63.0745 32.992C62.6185 33.4 62.0905 33.718 61.4905 33.946C60.8905 34.174 60.2485 34.288 59.5645 34.288C58.8925 34.288 58.2505 34.174 57.6385 33.946C57.0385 33.718 56.5105 33.4 56.0545 32.992C55.6105 32.572 55.2565 32.068 54.9925 31.48C54.7285 30.88 54.5965 30.214 54.5965 29.482C54.5965 28.75 54.7285 28.09 54.9925 27.502C55.2565 26.914 55.6105 26.416 56.0545 26.008C56.5105 25.6 57.0385 25.288 57.6385 25.072C58.2505 24.856 58.8925 24.748 59.5645 24.748C60.2485 24.748 60.8905 24.856 61.4905 25.072C62.0905 25.288 62.6185 25.6 63.0745 26.008C63.5305 26.416 63.8905 26.914 64.1545 27.502C64.4185 28.09 64.5505 28.75 64.5505 29.482ZM61.7065 29.482C61.7065 29.194 61.6585 28.912 61.5625 28.636C61.4665 28.36 61.3285 28.12 61.1485 27.916C60.9685 27.7 60.7465 27.526 60.4825 27.394C60.2185 27.262 59.9125 27.196 59.5645 27.196C59.2165 27.196 58.9105 27.262 58.6465 27.394C58.3825 27.526 58.1605 27.7 57.9805 27.916C57.8125 28.12 57.6805 28.36 57.5845 28.636C57.5005 28.912 57.4585 29.194 57.4585 29.482C57.4585 29.77 57.5005 30.052 57.5845 30.328C57.6805 30.604 57.8185 30.856 57.9985 31.084C58.1785 31.3 58.4005 31.474 58.6645 31.606C58.9285 31.738 59.2345 31.804 59.5825 31.804C59.9305 31.804 60.2365 31.738 60.5005 31.606C60.7645 31.474 60.9865 31.3 61.1665 31.084C61.3465 30.856 61.4785 30.604 61.5625 30.328C61.6585 30.052 61.7065 29.77 61.7065 29.482ZM76.3916 29.482C76.3916 30.106 76.2956 30.706 76.1036 31.282C75.9116 31.858 75.6296 32.368 75.2576 32.812C74.8976 33.244 74.4536 33.592 73.9256 33.856C73.3976 34.12 72.7976 34.252 72.1256 34.252C71.5736 34.252 71.0516 34.144 70.5596 33.928C70.0676 33.7 69.6836 33.394 69.4076 33.01H69.3716V38.32H66.4196V25.036H69.2276V26.134H69.2816C69.5576 25.774 69.9356 25.462 70.4156 25.198C70.9076 24.922 71.4836 24.784 72.1436 24.784C72.7916 24.784 73.3796 24.91 73.9076 25.162C74.4356 25.414 74.8796 25.756 75.2396 26.188C75.6116 26.62 75.8936 27.124 76.0856 27.7C76.2896 28.264 76.3916 28.858 76.3916 29.482ZM73.5296 29.482C73.5296 29.194 73.4816 28.912 73.3856 28.636C73.3016 28.36 73.1696 28.12 72.9896 27.916C72.8216 27.7 72.6056 27.526 72.3416 27.394C72.0776 27.262 71.7716 27.196 71.4236 27.196C71.0876 27.196 70.7876 27.262 70.5236 27.394C70.2596 27.526 70.0316 27.7 69.8396 27.916C69.6596 28.132 69.5156 28.378 69.4076 28.654C69.3116 28.93 69.2636 29.212 69.2636 29.5C69.2636 29.788 69.3116 30.07 69.4076 30.346C69.5156 30.622 69.6596 30.868 69.8396 31.084C70.0316 31.3 70.2596 31.474 70.5236 31.606C70.7876 31.738 71.0876 31.804 71.4236 31.804C71.7716 31.804 72.0776 31.738 72.3416 31.606C72.6056 31.474 72.8216 31.3 72.9896 31.084C73.1696 30.868 73.3016 30.622 73.3856 30.346C73.4816 30.058 73.5296 29.77 73.5296 29.482ZM96.2007 34H93.1587L90.6387 25.378H90.5847L88.0647 34H85.0047L81.3867 21.256H84.6987L86.7147 29.734H86.7687L89.0367 21.256H92.2407L94.5267 29.734H94.5807L96.6327 21.256H99.8367L96.2007 34ZM105.637 30.094H105.259C104.935 30.094 104.605 30.112 104.269 30.148C103.945 30.172 103.651 30.226 103.387 30.31C103.135 30.394 102.925 30.52 102.757 30.688C102.589 30.844 102.505 31.054 102.505 31.318C102.505 31.486 102.541 31.63 102.613 31.75C102.697 31.87 102.799 31.966 102.919 32.038C103.039 32.11 103.177 32.164 103.333 32.2C103.489 32.224 103.639 32.236 103.783 32.236C104.383 32.236 104.839 32.074 105.151 31.75C105.475 31.414 105.637 30.964 105.637 30.4V30.094ZM100.219 26.26C100.747 25.756 101.359 25.378 102.055 25.126C102.763 24.874 103.483 24.748 104.215 24.748C104.971 24.748 105.607 24.844 106.123 25.036C106.651 25.216 107.077 25.504 107.401 25.9C107.725 26.284 107.959 26.776 108.103 27.376C108.259 27.964 108.337 28.666 108.337 29.482V34H105.637V33.046H105.583C105.355 33.418 105.007 33.706 104.539 33.91C104.083 34.114 103.585 34.216 103.045 34.216C102.685 34.216 102.313 34.168 101.929 34.072C101.545 33.976 101.191 33.82 100.867 33.604C100.555 33.388 100.297 33.1 100.093 32.74C99.8894 32.38 99.7874 31.936 99.7874 31.408C99.7874 30.76 99.9614 30.238 100.309 29.842C100.669 29.446 101.125 29.14 101.677 28.924C102.241 28.708 102.865 28.564 103.549 28.492C104.233 28.42 104.899 28.384 105.547 28.384V28.24C105.547 27.796 105.391 27.472 105.079 27.268C104.767 27.052 104.383 26.944 103.927 26.944C103.507 26.944 103.099 27.034 102.703 27.214C102.319 27.394 101.989 27.61 101.713 27.862L100.219 26.26ZM113.569 27.25V30.67C113.569 31.09 113.647 31.408 113.803 31.624C113.971 31.828 114.265 31.93 114.685 31.93C114.829 31.93 114.979 31.918 115.135 31.894C115.303 31.87 115.441 31.834 115.549 31.786L115.585 33.946C115.381 34.018 115.123 34.078 114.811 34.126C114.499 34.186 114.187 34.216 113.875 34.216C113.275 34.216 112.771 34.144 112.363 34C111.955 33.844 111.625 33.628 111.373 33.352C111.133 33.064 110.959 32.728 110.851 32.344C110.743 31.948 110.689 31.51 110.689 31.03V27.25H109.249V25.036H110.671V22.678H113.569V25.036H115.675V27.25H113.569ZM123.236 28.492C123.236 28.024 123.086 27.622 122.786 27.286C122.498 26.95 122.06 26.782 121.472 26.782C121.184 26.782 120.92 26.83 120.68 26.926C120.44 27.01 120.23 27.13 120.05 27.286C119.87 27.442 119.726 27.628 119.618 27.844C119.51 28.048 119.45 28.264 119.438 28.492H123.236ZM125.954 29.626C125.954 29.746 125.954 29.866 125.954 29.986C125.954 30.106 125.948 30.22 125.936 30.328H119.438C119.462 30.58 119.534 30.808 119.654 31.012C119.786 31.216 119.948 31.396 120.14 31.552C120.344 31.696 120.566 31.81 120.806 31.894C121.058 31.978 121.316 32.02 121.58 32.02C122.048 32.02 122.444 31.936 122.768 31.768C123.092 31.588 123.356 31.36 123.56 31.084L125.612 32.38C125.192 32.992 124.634 33.466 123.938 33.802C123.254 34.126 122.456 34.288 121.544 34.288C120.872 34.288 120.236 34.186 119.636 33.982C119.036 33.766 118.508 33.46 118.052 33.064C117.608 32.656 117.254 32.158 116.99 31.57C116.738 30.982 116.612 30.31 116.612 29.554C116.612 28.822 116.738 28.162 116.99 27.574C117.242 26.974 117.584 26.47 118.016 26.062C118.448 25.642 118.958 25.318 119.546 25.09C120.134 24.862 120.77 24.748 121.454 24.748C122.114 24.748 122.72 24.862 123.272 25.09C123.824 25.306 124.298 25.624 124.694 26.044C125.09 26.464 125.396 26.974 125.612 27.574C125.84 28.174 125.954 28.858 125.954 29.626ZM133.599 27.448C133.467 27.412 133.335 27.388 133.203 27.376C133.083 27.364 132.963 27.358 132.843 27.358C132.447 27.358 132.111 27.43 131.835 27.574C131.571 27.718 131.355 27.892 131.187 28.096C131.031 28.3 130.917 28.522 130.845 28.762C130.773 29.002 130.737 29.212 130.737 29.392V34H127.785V25.036H130.629V26.332H130.665C130.893 25.876 131.217 25.504 131.637 25.216C132.057 24.928 132.543 24.784 133.095 24.784C133.215 24.784 133.329 24.79 133.437 24.802C133.557 24.814 133.653 24.832 133.725 24.856L133.599 27.448ZM149.25 25.18C149.25 25.924 149.112 26.554 148.836 27.07C148.56 27.574 148.188 27.982 147.72 28.294C147.252 28.606 146.712 28.834 146.1 28.978C145.488 29.122 144.852 29.194 144.192 29.194H142.662V34H139.584V21.256H144.264C144.96 21.256 145.608 21.328 146.208 21.472C146.82 21.604 147.348 21.826 147.792 22.138C148.248 22.438 148.602 22.84 148.854 23.344C149.118 23.836 149.25 24.448 149.25 25.18ZM146.172 25.198C146.172 24.898 146.112 24.652 145.992 24.46C145.872 24.268 145.71 24.118 145.506 24.01C145.302 23.902 145.068 23.83 144.804 23.794C144.552 23.758 144.288 23.74 144.012 23.74H142.662V26.746H143.958C144.246 26.746 144.522 26.722 144.786 26.674C145.05 26.626 145.284 26.542 145.488 26.422C145.704 26.302 145.872 26.146 145.992 25.954C146.112 25.75 146.172 25.498 146.172 25.198ZM156.066 34V32.758H156.03C155.922 32.962 155.778 33.154 155.598 33.334C155.43 33.514 155.226 33.67 154.986 33.802C154.758 33.934 154.5 34.042 154.212 34.126C153.936 34.21 153.642 34.252 153.33 34.252C152.73 34.252 152.22 34.144 151.8 33.928C151.392 33.712 151.056 33.436 150.792 33.1C150.54 32.752 150.354 32.362 150.234 31.93C150.126 31.486 150.072 31.036 150.072 30.58V25.036H153.042V29.896C153.042 30.148 153.06 30.388 153.096 30.616C153.132 30.844 153.198 31.048 153.294 31.228C153.402 31.408 153.54 31.552 153.708 31.66C153.876 31.756 154.098 31.804 154.374 31.804C154.89 31.804 155.28 31.612 155.544 31.228C155.82 30.844 155.958 30.394 155.958 29.878V25.036H158.91V34H156.066ZM167.032 27.448C166.9 27.412 166.768 27.388 166.636 27.376C166.516 27.364 166.396 27.358 166.276 27.358C165.88 27.358 165.544 27.43 165.268 27.574C165.004 27.718 164.788 27.892 164.62 28.096C164.464 28.3 164.35 28.522 164.278 28.762C164.206 29.002 164.17 29.212 164.17 29.392V34H161.218V25.036H164.062V26.332H164.098C164.326 25.876 164.65 25.504 165.07 25.216C165.49 24.928 165.976 24.784 166.528 24.784C166.648 24.784 166.762 24.79 166.87 24.802C166.99 24.814 167.086 24.832 167.158 24.856L167.032 27.448ZM171.559 22.174C171.559 22.402 171.511 22.618 171.415 22.822C171.331 23.014 171.211 23.182 171.055 23.326C170.911 23.47 170.731 23.584 170.515 23.668C170.311 23.752 170.095 23.794 169.867 23.794C169.387 23.794 168.985 23.638 168.661 23.326C168.337 23.002 168.175 22.618 168.175 22.174C168.175 21.958 168.217 21.754 168.301 21.562C168.385 21.358 168.505 21.184 168.661 21.04C168.817 20.896 168.997 20.782 169.201 20.698C169.405 20.602 169.627 20.554 169.867 20.554C170.095 20.554 170.311 20.596 170.515 20.68C170.731 20.764 170.911 20.878 171.055 21.022C171.211 21.166 171.331 21.34 171.415 21.544C171.511 21.736 171.559 21.946 171.559 22.174ZM168.391 34V25.036H171.343V34H168.391ZM183.527 22.174C183.527 22.402 183.479 22.618 183.383 22.822C183.299 23.014 183.179 23.182 183.023 23.326C182.867 23.47 182.687 23.584 182.483 23.668C182.279 23.752 182.063 23.794 181.835 23.794C181.355 23.794 180.953 23.638 180.629 23.326C180.305 23.002 180.143 22.618 180.143 22.174C180.143 21.958 180.185 21.754 180.269 21.562C180.353 21.358 180.473 21.184 180.629 21.04C180.785 20.896 180.965 20.782 181.169 20.698C181.373 20.602 181.595 20.554 181.835 20.554C182.063 20.554 182.279 20.596 182.483 20.68C182.687 20.764 182.867 20.878 183.023 21.022C183.179 21.166 183.299 21.34 183.383 21.544C183.479 21.736 183.527 21.946 183.527 22.174ZM180.341 34V25.036H183.311V34H180.341ZM179.243 22.57C179.135 22.534 179.009 22.504 178.865 22.48C178.721 22.456 178.577 22.444 178.433 22.444C178.157 22.444 177.935 22.492 177.767 22.588C177.599 22.684 177.467 22.816 177.371 22.984C177.275 23.14 177.209 23.32 177.173 23.524C177.137 23.728 177.119 23.932 177.119 24.136V25.036H179.117V27.25H177.119V34H174.167V27.25H172.529V25.036H174.167V24.172C174.167 23.62 174.227 23.098 174.347 22.606C174.467 22.102 174.671 21.664 174.959 21.292C175.259 20.908 175.655 20.608 176.147 20.392C176.651 20.164 177.275 20.05 178.019 20.05C178.271 20.05 178.517 20.068 178.757 20.104C179.009 20.128 179.237 20.17 179.441 20.23L179.243 22.57ZM191.826 28.492C191.826 28.024 191.676 27.622 191.376 27.286C191.088 26.95 190.65 26.782 190.062 26.782C189.774 26.782 189.51 26.83 189.27 26.926C189.03 27.01 188.82 27.13 188.64 27.286C188.46 27.442 188.316 27.628 188.208 27.844C188.1 28.048 188.04 28.264 188.028 28.492H191.826ZM194.544 29.626C194.544 29.746 194.544 29.866 194.544 29.986C194.544 30.106 194.538 30.22 194.526 30.328H188.028C188.052 30.58 188.124 30.808 188.244 31.012C188.376 31.216 188.538 31.396 188.73 31.552C188.934 31.696 189.156 31.81 189.396 31.894C189.648 31.978 189.906 32.02 190.17 32.02C190.638 32.02 191.034 31.936 191.358 31.768C191.682 31.588 191.946 31.36 192.15 31.084L194.202 32.38C193.782 32.992 193.224 33.466 192.528 33.802C191.844 34.126 191.046 34.288 190.134 34.288C189.462 34.288 188.826 34.186 188.226 33.982C187.626 33.766 187.098 33.46 186.642 33.064C186.198 32.656 185.844 32.158 185.58 31.57C185.328 30.982 185.202 30.31 185.202 29.554C185.202 28.822 185.328 28.162 185.58 27.574C185.832 26.974 186.174 26.47 186.606 26.062C187.038 25.642 187.548 25.318 188.136 25.09C188.724 24.862 189.36 24.748 190.044 24.748C190.704 24.748 191.31 24.862 191.862 25.09C192.414 25.306 192.888 25.624 193.284 26.044C193.68 26.464 193.986 26.974 194.202 27.574C194.43 28.174 194.544 28.858 194.544 29.626ZM202.189 27.448C202.057 27.412 201.925 27.388 201.793 27.376C201.673 27.364 201.553 27.358 201.433 27.358C201.037 27.358 200.701 27.43 200.425 27.574C200.161 27.718 199.945 27.892 199.777 28.096C199.621 28.3 199.507 28.522 199.435 28.762C199.363 29.002 199.327 29.212 199.327 29.392V34H196.375V25.036H199.219V26.332H199.255C199.483 25.876 199.807 25.504 200.227 25.216C200.647 24.928 201.133 24.784 201.685 24.784C201.805 24.784 201.919 24.79 202.027 24.802C202.147 24.814 202.243 24.832 202.315 24.856L202.189 27.448ZM208.785 27.682C208.545 27.454 208.263 27.262 207.939 27.106C207.615 26.95 207.273 26.872 206.913 26.872C206.637 26.872 206.379 26.926 206.139 27.034C205.911 27.142 205.797 27.328 205.797 27.592C205.797 27.844 205.923 28.024 206.175 28.132C206.439 28.24 206.859 28.36 207.435 28.492C207.771 28.564 208.107 28.666 208.443 28.798C208.791 28.93 209.103 29.104 209.379 29.32C209.655 29.536 209.877 29.8 210.045 30.112C210.213 30.424 210.297 30.796 210.297 31.228C210.297 31.792 210.183 32.272 209.955 32.668C209.727 33.052 209.427 33.364 209.055 33.604C208.695 33.844 208.287 34.018 207.831 34.126C207.375 34.234 206.919 34.288 206.463 34.288C205.731 34.288 205.011 34.174 204.303 33.946C203.607 33.706 203.025 33.358 202.557 32.902L204.213 31.156C204.477 31.444 204.801 31.684 205.185 31.876C205.569 32.068 205.977 32.164 206.409 32.164C206.649 32.164 206.883 32.11 207.111 32.002C207.351 31.882 207.471 31.678 207.471 31.39C207.471 31.114 207.327 30.91 207.039 30.778C206.751 30.646 206.301 30.508 205.689 30.364C205.377 30.292 205.065 30.196 204.753 30.076C204.441 29.956 204.159 29.794 203.907 29.59C203.667 29.386 203.469 29.134 203.313 28.834C203.157 28.534 203.079 28.174 203.079 27.754C203.079 27.214 203.193 26.758 203.421 26.386C203.649 26.002 203.943 25.69 204.303 25.45C204.663 25.21 205.059 25.036 205.491 24.928C205.935 24.808 206.373 24.748 206.805 24.748C207.477 24.748 208.131 24.856 208.767 25.072C209.415 25.276 209.961 25.588 210.405 26.008L208.785 27.682Z" fill="#311C01"/>
</svg>
