<svg width="358" height="48" viewBox="0 0 358 48" fill="none" xmlns="http://www.w3.org/2000/svg">
<rect width="358" height="48" rx="24" fill="#F9A31A"/>
<path d="M110.571 20.04C110.358 19.7627 110.054 19.5333 109.659 19.352C109.275 19.16 108.886 19.064 108.491 19.064C108.256 19.064 108.022 19.096 107.787 19.16C107.552 19.2133 107.339 19.304 107.147 19.432C106.955 19.5493 106.795 19.7093 106.667 19.912C106.55 20.104 106.491 20.3387 106.491 20.616C106.491 20.872 106.544 21.0907 106.651 21.272C106.758 21.4533 106.902 21.608 107.083 21.736C107.275 21.864 107.504 21.976 107.771 22.072C108.038 22.168 108.331 22.264 108.651 22.36C109.014 22.4773 109.387 22.6107 109.771 22.76C110.166 22.9093 110.523 23.1067 110.843 23.352C111.174 23.5973 111.44 23.9067 111.643 24.28C111.856 24.6533 111.963 25.1173 111.963 25.672C111.963 26.28 111.851 26.8133 111.627 27.272C111.403 27.72 111.104 28.0933 110.731 28.392C110.358 28.6907 109.92 28.9147 109.419 29.064C108.918 29.2133 108.39 29.288 107.835 29.288C107.099 29.288 106.379 29.1547 105.675 28.888C104.971 28.6107 104.395 28.2053 103.947 27.672L105.387 26.328C105.664 26.712 106.032 27.016 106.491 27.24C106.96 27.464 107.419 27.576 107.867 27.576C108.102 27.576 108.342 27.5493 108.587 27.496C108.832 27.432 109.051 27.3307 109.243 27.192C109.446 27.0533 109.606 26.8827 109.723 26.68C109.851 26.4667 109.915 26.2053 109.915 25.896C109.915 25.5973 109.846 25.352 109.707 25.16C109.568 24.9573 109.382 24.7867 109.147 24.648C108.912 24.4987 108.635 24.3707 108.315 24.264C107.995 24.1573 107.659 24.0453 107.307 23.928C106.966 23.8213 106.624 23.6933 106.283 23.544C105.942 23.3947 105.632 23.1973 105.355 22.952C105.088 22.7067 104.87 22.408 104.699 22.056C104.528 21.6933 104.443 21.2453 104.443 20.712C104.443 20.136 104.56 19.64 104.795 19.224C105.04 18.808 105.355 18.4667 105.739 18.2C106.134 17.9227 106.576 17.72 107.067 17.592C107.568 17.4533 108.075 17.384 108.587 17.384C109.163 17.384 109.744 17.4853 110.331 17.688C110.928 17.8907 111.446 18.1947 111.883 18.6L110.571 20.04ZM118.158 21.096C118.66 21.096 119.086 21.1867 119.438 21.368C119.801 21.5387 120.094 21.768 120.318 22.056C120.553 22.344 120.724 22.6747 120.83 23.048C120.937 23.4213 120.99 23.8053 120.99 24.2V29H119.07V24.776C119.07 24.552 119.054 24.3227 119.022 24.088C118.99 23.8427 118.921 23.624 118.814 23.432C118.718 23.2293 118.574 23.064 118.382 22.936C118.201 22.808 117.956 22.744 117.646 22.744C117.337 22.744 117.07 22.8027 116.846 22.92C116.622 23.0373 116.436 23.1973 116.286 23.4C116.137 23.592 116.025 23.8107 115.95 24.056C115.876 24.3013 115.838 24.552 115.838 24.808V29H113.918V16.904H115.838V22.392H115.87C115.945 22.232 116.052 22.0773 116.19 21.928C116.34 21.768 116.51 21.6293 116.702 21.512C116.894 21.384 117.113 21.2827 117.358 21.208C117.604 21.1333 117.87 21.096 118.158 21.096ZM122.782 25.128C122.782 24.52 122.889 23.9707 123.102 23.48C123.326 22.9787 123.625 22.552 123.998 22.2C124.371 21.848 124.814 21.576 125.326 21.384C125.838 21.192 126.382 21.096 126.958 21.096C127.534 21.096 128.078 21.192 128.59 21.384C129.102 21.576 129.545 21.848 129.918 22.2C130.291 22.552 130.585 22.9787 130.798 23.48C131.022 23.9707 131.134 24.52 131.134 25.128C131.134 25.736 131.022 26.2907 130.798 26.792C130.585 27.2933 130.291 27.7253 129.918 28.088C129.545 28.44 129.102 28.7173 128.59 28.92C128.078 29.1227 127.534 29.224 126.958 29.224C126.382 29.224 125.838 29.1227 125.326 28.92C124.814 28.7173 124.371 28.44 123.998 28.088C123.625 27.7253 123.326 27.2933 123.102 26.792C122.889 26.2907 122.782 25.736 122.782 25.128ZM124.734 25.128C124.734 25.4267 124.777 25.7253 124.862 26.024C124.958 26.3227 125.097 26.5893 125.278 26.824C125.459 27.0587 125.689 27.2507 125.966 27.4C126.243 27.5493 126.574 27.624 126.958 27.624C127.342 27.624 127.673 27.5493 127.95 27.4C128.227 27.2507 128.457 27.0587 128.638 26.824C128.819 26.5893 128.953 26.3227 129.038 26.024C129.134 25.7253 129.182 25.4267 129.182 25.128C129.182 24.8293 129.134 24.536 129.038 24.248C128.953 23.9493 128.819 23.6827 128.638 23.448C128.457 23.2133 128.227 23.0267 127.95 22.888C127.673 22.7387 127.342 22.664 126.958 22.664C126.574 22.664 126.243 22.7387 125.966 22.888C125.689 23.0267 125.459 23.2133 125.278 23.448C125.097 23.6827 124.958 23.9493 124.862 24.248C124.777 24.536 124.734 24.8293 124.734 25.128ZM134.836 21.32V22.392H134.884C134.98 22.2427 135.102 22.0933 135.252 21.944C135.412 21.784 135.604 21.6453 135.828 21.528C136.052 21.4 136.302 21.2987 136.58 21.224C136.868 21.1387 137.188 21.096 137.54 21.096C138.084 21.096 138.585 21.2027 139.044 21.416C139.502 21.6187 139.897 21.9013 140.228 22.264C140.558 22.6267 140.814 23.0533 140.996 23.544C141.177 24.0347 141.268 24.5627 141.268 25.128C141.268 25.6933 141.177 26.2267 140.996 26.728C140.825 27.2187 140.574 27.6507 140.244 28.024C139.924 28.3867 139.529 28.68 139.06 28.904C138.601 29.1173 138.078 29.224 137.492 29.224C136.948 29.224 136.446 29.112 135.988 28.888C135.54 28.664 135.193 28.36 134.948 27.976H134.916V32.84H132.996V21.32H134.836ZM139.316 25.128C139.316 24.8293 139.268 24.536 139.172 24.248C139.086 23.9493 138.953 23.6827 138.772 23.448C138.59 23.2133 138.361 23.0267 138.084 22.888C137.806 22.7387 137.481 22.664 137.108 22.664C136.756 22.664 136.441 22.7387 136.164 22.888C135.886 23.0373 135.646 23.2293 135.444 23.464C135.252 23.6987 135.102 23.9653 134.996 24.264C134.9 24.5627 134.852 24.8613 134.852 25.16C134.852 25.4587 134.9 25.7573 134.996 26.056C135.102 26.344 135.252 26.6053 135.444 26.84C135.646 27.0747 135.886 27.2667 136.164 27.416C136.441 27.5547 136.756 27.624 137.108 27.624C137.481 27.624 137.806 27.5493 138.084 27.4C138.361 27.2507 138.59 27.0587 138.772 26.824C138.953 26.5893 139.086 26.3227 139.172 26.024C139.268 25.7253 139.316 25.4267 139.316 25.128ZM145.877 17.672H148.085L150.277 25.992H150.309L152.805 17.672H154.885L157.333 25.992H157.365L159.605 17.672H161.749L158.437 29H156.485L153.829 20.504H153.797L151.141 29H149.189L145.877 17.672ZM167.186 28.024H167.138C166.946 28.3653 166.636 28.648 166.21 28.872C165.783 29.0853 165.298 29.192 164.754 29.192C164.444 29.192 164.119 29.1493 163.778 29.064C163.447 28.9893 163.138 28.8613 162.85 28.68C162.572 28.488 162.338 28.2427 162.146 27.944C161.964 27.6347 161.874 27.256 161.874 26.808C161.874 26.232 162.034 25.7733 162.354 25.432C162.684 25.0907 163.106 24.8293 163.618 24.648C164.13 24.4667 164.695 24.3493 165.314 24.296C165.943 24.232 166.556 24.2 167.154 24.2V24.008C167.154 23.528 166.978 23.176 166.626 22.952C166.284 22.7173 165.874 22.6 165.394 22.6C164.988 22.6 164.599 22.6853 164.226 22.856C163.852 23.0267 163.543 23.2347 163.298 23.48L162.306 22.312C162.743 21.9067 163.244 21.6027 163.81 21.4C164.386 21.1973 164.967 21.096 165.554 21.096C166.236 21.096 166.796 21.192 167.234 21.384C167.682 21.576 168.034 21.8267 168.29 22.136C168.546 22.4453 168.722 22.792 168.818 23.176C168.924 23.56 168.978 23.944 168.978 24.328V29H167.186V28.024ZM167.154 25.496H166.722C166.412 25.496 166.087 25.512 165.746 25.544C165.404 25.5653 165.09 25.624 164.802 25.72C164.514 25.8053 164.274 25.9333 164.082 26.104C163.89 26.264 163.794 26.488 163.794 26.776C163.794 26.9573 163.831 27.112 163.906 27.24C163.991 27.3573 164.098 27.4533 164.226 27.528C164.354 27.6027 164.498 27.656 164.658 27.688C164.818 27.72 164.978 27.736 165.138 27.736C165.799 27.736 166.3 27.56 166.642 27.208C166.983 26.856 167.154 26.376 167.154 25.768V25.496ZM169.954 22.856V21.32H171.298V19.096H173.186V21.32H175.106V22.856H173.186V26.424C173.186 26.7653 173.245 27.048 173.362 27.272C173.49 27.496 173.768 27.608 174.194 27.608C174.322 27.608 174.461 27.5973 174.61 27.576C174.76 27.544 174.893 27.5013 175.01 27.448L175.074 28.952C174.904 29.016 174.701 29.064 174.466 29.096C174.232 29.1387 174.008 29.16 173.794 29.16C173.282 29.16 172.866 29.0907 172.546 28.952C172.226 28.8027 171.97 28.6053 171.778 28.36C171.597 28.104 171.469 27.816 171.394 27.496C171.33 27.1653 171.298 26.8133 171.298 26.44V22.856H169.954ZM181.904 24.392C181.904 24.1467 181.866 23.912 181.792 23.688C181.728 23.464 181.621 23.2667 181.472 23.096C181.322 22.9253 181.13 22.792 180.896 22.696C180.672 22.5893 180.405 22.536 180.096 22.536C179.52 22.536 179.029 22.712 178.624 23.064C178.229 23.4053 178.01 23.848 177.968 24.392H181.904ZM183.824 25.256C183.824 25.3413 183.824 25.4267 183.824 25.512C183.824 25.5973 183.818 25.6827 183.808 25.768H177.968C177.989 26.0453 178.058 26.3013 178.176 26.536C178.304 26.76 178.469 26.9573 178.672 27.128C178.874 27.288 179.104 27.416 179.36 27.512C179.616 27.608 179.882 27.656 180.16 27.656C180.64 27.656 181.045 27.5707 181.376 27.4C181.706 27.2187 181.978 26.9733 182.192 26.664L183.472 27.688C182.714 28.712 181.616 29.224 180.176 29.224C179.578 29.224 179.029 29.1333 178.528 28.952C178.026 28.76 177.589 28.4933 177.216 28.152C176.853 27.8107 176.565 27.3947 176.352 26.904C176.149 26.4027 176.048 25.8373 176.048 25.208C176.048 24.5893 176.149 24.0293 176.352 23.528C176.565 23.016 176.853 22.584 177.216 22.232C177.578 21.8693 178.005 21.592 178.496 21.4C178.997 21.1973 179.536 21.096 180.112 21.096C180.645 21.096 181.136 21.1867 181.584 21.368C182.042 21.5387 182.437 21.8 182.768 22.152C183.098 22.4933 183.354 22.9253 183.536 23.448C183.728 23.96 183.824 24.5627 183.824 25.256ZM185.683 21.32H187.523V22.6H187.555C187.769 22.152 188.067 21.7893 188.451 21.512C188.835 21.2347 189.283 21.096 189.795 21.096C189.87 21.096 189.95 21.1013 190.035 21.112C190.121 21.112 190.195 21.1227 190.259 21.144V22.904C190.131 22.872 190.019 22.8507 189.923 22.84C189.838 22.8293 189.753 22.824 189.667 22.824C189.23 22.824 188.878 22.904 188.611 23.064C188.345 23.224 188.137 23.416 187.987 23.64C187.838 23.864 187.737 24.0933 187.683 24.328C187.63 24.5627 187.603 24.7493 187.603 24.888V29H185.683V21.32ZM195.607 17.672H199.303C199.954 17.672 200.541 17.7307 201.063 17.848C201.586 17.9653 202.034 18.1573 202.407 18.424C202.781 18.6907 203.069 19.032 203.271 19.448C203.474 19.864 203.575 20.3653 203.575 20.952C203.575 21.5813 203.458 22.1093 203.223 22.536C202.989 22.9627 202.669 23.3093 202.263 23.576C201.869 23.832 201.405 24.0187 200.871 24.136C200.338 24.2533 199.773 24.312 199.175 24.312H197.623V29H195.607V17.672ZM199.031 22.616C199.362 22.616 199.677 22.5947 199.975 22.552C200.274 22.4987 200.541 22.4133 200.775 22.296C201.01 22.168 201.197 21.9973 201.335 21.784C201.474 21.5707 201.543 21.2933 201.543 20.952C201.543 20.6213 201.474 20.3547 201.335 20.152C201.197 19.9387 201.01 19.7733 200.775 19.656C200.551 19.5387 200.29 19.464 199.991 19.432C199.703 19.3893 199.405 19.368 199.095 19.368H197.623V22.616H199.031ZM211.582 29H209.758V27.768H209.726C209.555 28.152 209.257 28.4933 208.83 28.792C208.414 29.08 207.918 29.224 207.342 29.224C206.841 29.224 206.409 29.1387 206.046 28.968C205.694 28.7867 205.401 28.552 205.166 28.264C204.942 27.976 204.777 27.6453 204.67 27.272C204.563 26.8987 204.51 26.5147 204.51 26.12V21.32H206.43V25.576C206.43 25.8 206.446 26.0347 206.478 26.28C206.51 26.5253 206.579 26.7493 206.686 26.952C206.793 27.144 206.937 27.304 207.118 27.432C207.31 27.56 207.561 27.624 207.87 27.624C208.169 27.624 208.43 27.5653 208.654 27.448C208.889 27.32 209.075 27.16 209.214 26.968C209.363 26.776 209.475 26.5573 209.55 26.312C209.625 26.056 209.662 25.8 209.662 25.544V21.32H211.582V29ZM213.886 21.32H215.726V22.6H215.758C215.972 22.152 216.27 21.7893 216.654 21.512C217.038 21.2347 217.486 21.096 217.998 21.096C218.073 21.096 218.153 21.1013 218.238 21.112C218.324 21.112 218.398 21.1227 218.462 21.144V22.904C218.334 22.872 218.222 22.8507 218.126 22.84C218.041 22.8293 217.956 22.824 217.87 22.824C217.433 22.824 217.081 22.904 216.814 23.064C216.548 23.224 216.34 23.416 216.19 23.64C216.041 23.864 215.94 24.0933 215.886 24.328C215.833 24.5627 215.806 24.7493 215.806 24.888V29H213.886V21.32ZM219.747 21.32H221.667V29H219.747V21.32ZM219.475 18.712C219.475 18.4027 219.587 18.136 219.811 17.912C220.045 17.6773 220.339 17.56 220.691 17.56C221.043 17.56 221.336 17.672 221.571 17.896C221.816 18.1093 221.939 18.3813 221.939 18.712C221.939 19.0427 221.816 19.32 221.571 19.544C221.336 19.7573 221.043 19.864 220.691 19.864C220.339 19.864 220.045 19.752 219.811 19.528C219.587 19.2933 219.475 19.0213 219.475 18.712ZM229.404 21.32H231.324V29H229.404V21.32ZM229.132 18.712C229.132 18.4027 229.244 18.136 229.468 17.912C229.702 17.6773 229.996 17.56 230.348 17.56C230.7 17.56 230.993 17.672 231.228 17.896C231.473 18.1093 231.596 18.3813 231.596 18.712C231.596 19.0427 231.473 19.32 231.228 19.544C230.993 19.7573 230.7 19.864 230.348 19.864C229.996 19.864 229.702 19.752 229.468 19.528C229.244 19.2933 229.132 19.0213 229.132 18.712ZM224.3 22.856H222.844V21.32H224.3V20.184C224.3 19.7253 224.348 19.288 224.444 18.872C224.55 18.4453 224.721 18.072 224.956 17.752C225.201 17.432 225.521 17.1813 225.916 17C226.31 16.808 226.806 16.712 227.404 16.712C227.617 16.712 227.793 16.7227 227.932 16.744C228.081 16.7547 228.23 16.7813 228.38 16.824L228.252 18.456C228.145 18.424 228.028 18.3973 227.9 18.376C227.782 18.3547 227.654 18.344 227.516 18.344C227.238 18.344 227.014 18.3973 226.844 18.504C226.673 18.6107 226.54 18.7493 226.444 18.92C226.358 19.0907 226.3 19.2773 226.268 19.48C226.236 19.6827 226.22 19.88 226.22 20.072V21.32H227.996V22.856H226.22V29H224.3V22.856ZM238.888 24.392C238.888 24.1467 238.851 23.912 238.776 23.688C238.712 23.464 238.605 23.2667 238.456 23.096C238.307 22.9253 238.115 22.792 237.88 22.696C237.656 22.5893 237.389 22.536 237.08 22.536C236.504 22.536 236.013 22.712 235.608 23.064C235.213 23.4053 234.995 23.848 234.952 24.392H238.888ZM240.808 25.256C240.808 25.3413 240.808 25.4267 240.808 25.512C240.808 25.5973 240.803 25.6827 240.792 25.768H234.952C234.973 26.0453 235.043 26.3013 235.16 26.536C235.288 26.76 235.453 26.9573 235.656 27.128C235.859 27.288 236.088 27.416 236.344 27.512C236.6 27.608 236.867 27.656 237.144 27.656C237.624 27.656 238.029 27.5707 238.36 27.4C238.691 27.2187 238.963 26.9733 239.176 26.664L240.456 27.688C239.699 28.712 238.6 29.224 237.16 29.224C236.563 29.224 236.013 29.1333 235.512 28.952C235.011 28.76 234.573 28.4933 234.2 28.152C233.837 27.8107 233.549 27.3947 233.336 26.904C233.133 26.4027 233.032 25.8373 233.032 25.208C233.032 24.5893 233.133 24.0293 233.336 23.528C233.549 23.016 233.837 22.584 234.2 22.232C234.563 21.8693 234.989 21.592 235.48 21.4C235.981 21.1973 236.52 21.096 237.096 21.096C237.629 21.096 238.12 21.1867 238.568 21.368C239.027 21.5387 239.421 21.8 239.752 22.152C240.083 22.4933 240.339 22.9253 240.52 23.448C240.712 23.96 240.808 24.5627 240.808 25.256ZM242.668 21.32H244.508V22.6H244.54C244.753 22.152 245.052 21.7893 245.436 21.512C245.82 21.2347 246.268 21.096 246.78 21.096C246.854 21.096 246.934 21.1013 247.02 21.112C247.105 21.112 247.18 21.1227 247.244 21.144V22.904C247.116 22.872 247.004 22.8507 246.908 22.84C246.822 22.8293 246.737 22.824 246.652 22.824C246.214 22.824 245.862 22.904 245.596 23.064C245.329 23.224 245.121 23.416 244.972 23.64C244.822 23.864 244.721 24.0933 244.668 24.328C244.614 24.5627 244.588 24.7493 244.588 24.888V29H242.668V21.32ZM252.704 23.368C252.533 23.144 252.298 22.952 252 22.792C251.701 22.6213 251.376 22.536 251.024 22.536C250.714 22.536 250.432 22.6 250.176 22.728C249.92 22.856 249.792 23.0693 249.792 23.368C249.792 23.6667 249.93 23.88 250.208 24.008C250.496 24.1253 250.912 24.248 251.456 24.376C251.744 24.44 252.032 24.5253 252.32 24.632C252.618 24.7387 252.885 24.8827 253.12 25.064C253.365 25.2347 253.562 25.4533 253.712 25.72C253.861 25.976 253.936 26.2907 253.936 26.664C253.936 27.1333 253.845 27.5333 253.664 27.864C253.493 28.184 253.258 28.4453 252.96 28.648C252.672 28.8507 252.33 28.9947 251.936 29.08C251.552 29.176 251.152 29.224 250.736 29.224C250.138 29.224 249.557 29.1173 248.992 28.904C248.426 28.68 247.957 28.3653 247.584 27.96L248.848 26.776C249.061 27.0533 249.338 27.2827 249.68 27.464C250.021 27.6453 250.4 27.736 250.816 27.736C250.954 27.736 251.093 27.72 251.232 27.688C251.381 27.656 251.514 27.608 251.632 27.544C251.76 27.4693 251.861 27.3733 251.936 27.256C252.01 27.1387 252.048 26.9947 252.048 26.824C252.048 26.504 251.898 26.2747 251.6 26.136C251.312 25.9973 250.874 25.8587 250.288 25.72C250 25.656 249.717 25.576 249.44 25.48C249.173 25.3733 248.933 25.24 248.72 25.08C248.506 24.9093 248.336 24.7013 248.208 24.456C248.08 24.2107 248.016 23.9067 248.016 23.544C248.016 23.1173 248.101 22.7493 248.272 22.44C248.453 22.1307 248.688 21.88 248.976 21.688C249.264 21.4853 249.589 21.336 249.952 21.24C250.314 21.144 250.688 21.096 251.072 21.096C251.626 21.096 252.165 21.192 252.688 21.384C253.221 21.576 253.642 21.8693 253.952 22.264L252.704 23.368Z" fill="#311C01"/>
</svg>
