<svg width="68" height="20" viewBox="0 0 68 20" fill="none" xmlns="http://www.w3.org/2000/svg">
<mask id="path-1-inside-1_1457_1494" fill="white">
<path d="M0 0H68V20H0V0Z"/>
</mask>
<path d="M68 20V19H0V20V21H68V20Z" fill="white" mask="url(#path-1-inside-1_1457_1494)"/>
<path d="M6.22608 6.16C6.03941 5.91733 5.77341 5.71667 5.42808 5.558C5.09208 5.39 4.75141 5.306 4.40608 5.306C4.20074 5.306 3.99541 5.334 3.79008 5.39C3.58475 5.43667 3.39808 5.516 3.23008 5.628C3.06208 5.73067 2.92208 5.87067 2.81008 6.048C2.70741 6.216 2.65608 6.42133 2.65608 6.664C2.65608 6.888 2.70274 7.07933 2.79608 7.238C2.88941 7.39667 3.01541 7.532 3.17408 7.644C3.34208 7.756 3.54274 7.854 3.77608 7.938C4.00941 8.022 4.26608 8.106 4.54608 8.19C4.86341 8.29267 5.19008 8.40933 5.52608 8.54C5.87141 8.67067 6.18408 8.84333 6.46408 9.058C6.75341 9.27267 6.98675 9.54333 7.16408 9.87C7.35075 10.1967 7.44408 10.6027 7.44408 11.088C7.44408 11.62 7.34608 12.0867 7.15008 12.488C6.95408 12.88 6.69275 13.2067 6.36608 13.468C6.03941 13.7293 5.65675 13.9253 5.21808 14.056C4.77941 14.1867 4.31741 14.252 3.83208 14.252C3.18808 14.252 2.55808 14.1353 1.94208 13.902C1.32608 13.6593 0.822078 13.3047 0.430078 12.838L1.69008 11.662C1.93274 11.998 2.25474 12.264 2.65608 12.46C3.06675 12.656 3.46808 12.754 3.86008 12.754C4.06541 12.754 4.27541 12.7307 4.49008 12.684C4.70475 12.628 4.89608 12.5393 5.06408 12.418C5.24141 12.2967 5.38141 12.1473 5.48408 11.97C5.59608 11.7833 5.65208 11.5547 5.65208 11.284C5.65208 11.0227 5.59141 10.808 5.47008 10.64C5.34874 10.4627 5.18541 10.3133 4.98008 10.192C4.77474 10.0613 4.53208 9.94933 4.25208 9.856C3.97208 9.76267 3.67808 9.66467 3.37008 9.562C3.07141 9.46867 2.77274 9.35667 2.47408 9.226C2.17541 9.09533 1.90474 8.92267 1.66208 8.708C1.42874 8.49333 1.23741 8.232 1.08808 7.924C0.938745 7.60667 0.864078 7.21467 0.864078 6.748C0.864078 6.244 0.966745 5.81 1.17208 5.446C1.38674 5.082 1.66208 4.78333 1.99808 4.55C2.34341 4.30733 2.73074 4.13 3.16008 4.018C3.59875 3.89667 4.04208 3.836 4.49008 3.836C4.99408 3.836 5.50275 3.92467 6.01608 4.102C6.53875 4.27933 6.99141 4.54533 7.37408 4.9L6.22608 6.16ZM12.8651 7.084C13.3038 7.084 13.6771 7.16333 13.9851 7.322C14.3025 7.47133 14.5591 7.672 14.7551 7.924C14.9605 8.176 15.1098 8.46533 15.2031 8.792C15.2965 9.11867 15.3431 9.45467 15.3431 9.8V14H13.6631V10.304C13.6631 10.108 13.6491 9.90733 13.6211 9.702C13.5931 9.48733 13.5325 9.296 13.4391 9.128C13.3551 8.95067 13.2291 8.806 13.0611 8.694C12.9025 8.582 12.6878 8.526 12.4171 8.526C12.1465 8.526 11.9131 8.57733 11.7171 8.68C11.5211 8.78267 11.3578 8.92267 11.2271 9.1C11.0965 9.268 10.9985 9.45933 10.9331 9.674C10.8678 9.88867 10.8351 10.108 10.8351 10.332V14H9.15514V3.416H10.8351V8.218H10.8631C10.9285 8.078 11.0218 7.94267 11.1431 7.812C11.2738 7.672 11.4231 7.55067 11.5911 7.448C11.7591 7.336 11.9505 7.24733 12.1651 7.182C12.3798 7.11667 12.6131 7.084 12.8651 7.084ZM16.9109 10.612C16.9109 10.08 17.0043 9.59933 17.1909 9.17C17.3869 8.73133 17.6483 8.358 17.9749 8.05C18.3016 7.742 18.6889 7.504 19.1369 7.336C19.5849 7.168 20.0609 7.084 20.5649 7.084C21.0689 7.084 21.5449 7.168 21.9929 7.336C22.4409 7.504 22.8283 7.742 23.1549 8.05C23.4816 8.358 23.7383 8.73133 23.9249 9.17C24.1209 9.59933 24.2189 10.08 24.2189 10.612C24.2189 11.144 24.1209 11.6293 23.9249 12.068C23.7383 12.5067 23.4816 12.8847 23.1549 13.202C22.8283 13.51 22.4409 13.7527 21.9929 13.93C21.5449 14.1073 21.0689 14.196 20.5649 14.196C20.0609 14.196 19.5849 14.1073 19.1369 13.93C18.6889 13.7527 18.3016 13.51 17.9749 13.202C17.6483 12.8847 17.3869 12.5067 17.1909 12.068C17.0043 11.6293 16.9109 11.144 16.9109 10.612ZM18.6189 10.612C18.6189 10.8733 18.6563 11.1347 18.7309 11.396C18.8149 11.6573 18.9363 11.8907 19.0949 12.096C19.2536 12.3013 19.4543 12.4693 19.6969 12.6C19.9396 12.7307 20.2289 12.796 20.5649 12.796C20.9009 12.796 21.1903 12.7307 21.4329 12.6C21.6756 12.4693 21.8763 12.3013 22.0349 12.096C22.1936 11.8907 22.3103 11.6573 22.3849 11.396C22.4689 11.1347 22.5109 10.8733 22.5109 10.612C22.5109 10.3507 22.4689 10.094 22.3849 9.842C22.3103 9.58067 22.1936 9.34733 22.0349 9.142C21.8763 8.93667 21.6756 8.77333 21.4329 8.652C21.1903 8.52133 20.9009 8.456 20.5649 8.456C20.2289 8.456 19.9396 8.52133 19.6969 8.652C19.4543 8.77333 19.2536 8.93667 19.0949 9.142C18.9363 9.34733 18.8149 9.58067 18.7309 9.842C18.6563 10.094 18.6189 10.3507 18.6189 10.612ZM27.4578 7.28V8.218H27.4998C27.5838 8.08733 27.6912 7.95667 27.8218 7.826C27.9618 7.686 28.1298 7.56467 28.3258 7.462C28.5218 7.35 28.7412 7.26133 28.9838 7.196C29.2358 7.12133 29.5158 7.084 29.8238 7.084C30.2998 7.084 30.7385 7.17733 31.1398 7.364C31.5412 7.54133 31.8865 7.78867 32.1758 8.106C32.4652 8.42333 32.6892 8.79667 32.8478 9.226C33.0065 9.65533 33.0858 10.1173 33.0858 10.612C33.0858 11.1067 33.0065 11.5733 32.8478 12.012C32.6985 12.4413 32.4792 12.8193 32.1898 13.146C31.9098 13.4633 31.5645 13.72 31.1538 13.916C30.7525 14.1027 30.2952 14.196 29.7818 14.196C29.3058 14.196 28.8672 14.098 28.4658 13.902C28.0738 13.706 27.7705 13.44 27.5558 13.104H27.5278V17.36H25.8478V7.28H27.4578ZM31.3778 10.612C31.3778 10.3507 31.3358 10.094 31.2518 9.842C31.1772 9.58067 31.0605 9.34733 30.9018 9.142C30.7432 8.93667 30.5425 8.77333 30.2998 8.652C30.0572 8.52133 29.7725 8.456 29.4458 8.456C29.1378 8.456 28.8625 8.52133 28.6198 8.652C28.3772 8.78267 28.1672 8.95067 27.9898 9.156C27.8218 9.36133 27.6912 9.59467 27.5978 9.856C27.5138 10.1173 27.4718 10.3787 27.4718 10.64C27.4718 10.9013 27.5138 11.1627 27.5978 11.424C27.6912 11.676 27.8218 11.9047 27.9898 12.11C28.1672 12.3153 28.3772 12.4833 28.6198 12.614C28.8625 12.7353 29.1378 12.796 29.4458 12.796C29.7725 12.796 30.0572 12.7307 30.2998 12.6C30.5425 12.4693 30.7432 12.3013 30.9018 12.096C31.0605 11.8907 31.1772 11.6573 31.2518 11.396C31.3358 11.1347 31.3778 10.8733 31.3778 10.612ZM38.2912 4.088H40.6292L45.2352 11.508H45.2632V4.088H47.0272V14H44.7872L40.0832 6.342H40.0552V14H38.2912V4.088ZM48.739 10.612C48.739 10.08 48.8324 9.59933 49.019 9.17C49.215 8.73133 49.4764 8.358 49.803 8.05C50.1297 7.742 50.517 7.504 50.965 7.336C51.413 7.168 51.889 7.084 52.393 7.084C52.897 7.084 53.373 7.168 53.821 7.336C54.269 7.504 54.6564 7.742 54.983 8.05C55.3097 8.358 55.5664 8.73133 55.753 9.17C55.949 9.59933 56.047 10.08 56.047 10.612C56.047 11.144 55.949 11.6293 55.753 12.068C55.5664 12.5067 55.3097 12.8847 54.983 13.202C54.6564 13.51 54.269 13.7527 53.821 13.93C53.373 14.1073 52.897 14.196 52.393 14.196C51.889 14.196 51.413 14.1073 50.965 13.93C50.517 13.7527 50.1297 13.51 49.803 13.202C49.4764 12.8847 49.215 12.5067 49.019 12.068C48.8324 11.6293 48.739 11.144 48.739 10.612ZM50.447 10.612C50.447 10.8733 50.4844 11.1347 50.559 11.396C50.643 11.6573 50.7644 11.8907 50.923 12.096C51.0817 12.3013 51.2824 12.4693 51.525 12.6C51.7677 12.7307 52.057 12.796 52.393 12.796C52.729 12.796 53.0184 12.7307 53.261 12.6C53.5037 12.4693 53.7044 12.3013 53.863 12.096C54.0217 11.8907 54.1384 11.6573 54.213 11.396C54.297 11.1347 54.339 10.8733 54.339 10.612C54.339 10.3507 54.297 10.094 54.213 9.842C54.1384 9.58067 54.0217 9.34733 53.863 9.142C53.7044 8.93667 53.5037 8.77333 53.261 8.652C53.0184 8.52133 52.729 8.456 52.393 8.456C52.057 8.456 51.7677 8.52133 51.525 8.652C51.2824 8.77333 51.0817 8.93667 50.923 9.142C50.7644 9.34733 50.643 9.58067 50.559 9.842C50.4844 10.094 50.447 10.3507 50.447 10.612ZM56.724 7.28H58.544L59.944 12.096H59.972L61.414 7.28H63.206L64.662 12.096H64.69L66.118 7.28H67.868L65.544 14H63.836L62.31 9.296H62.282L60.77 14H59.062L56.724 7.28Z" fill="white"/>
</svg>
