<svg width="162" height="56" viewBox="0 0 162 56" fill="none" xmlns="http://www.w3.org/2000/svg">
<rect x="1" y="1" width="160" height="54" rx="27" fill="white"/>
<rect x="1" y="1" width="160" height="54" rx="27" stroke="#F8B866" stroke-width="2"/>
<path d="M39.9997 23.92C39.7597 23.608 39.4177 23.35 38.9737 23.146C38.5417 22.93 38.1037 22.822 37.6597 22.822C37.3957 22.822 37.1317 22.858 36.8677 22.93C36.6037 22.99 36.3637 23.092 36.1477 23.236C35.9317 23.368 35.7517 23.548 35.6077 23.776C35.4757 23.992 35.4097 24.256 35.4097 24.568C35.4097 24.856 35.4697 25.102 35.5897 25.306C35.7097 25.51 35.8717 25.684 36.0757 25.828C36.2917 25.972 36.5497 26.098 36.8497 26.206C37.1497 26.314 37.4797 26.422 37.8397 26.53C38.2477 26.662 38.6677 26.812 39.0997 26.98C39.5437 27.148 39.9457 27.37 40.3057 27.646C40.6777 27.922 40.9777 28.27 41.2057 28.69C41.4457 29.11 41.5657 29.632 41.5657 30.256C41.5657 30.94 41.4397 31.54 41.1877 32.056C40.9357 32.56 40.5997 32.98 40.1797 33.316C39.7597 33.652 39.2677 33.904 38.7037 34.072C38.1397 34.24 37.5457 34.324 36.9217 34.324C36.0937 34.324 35.2837 34.174 34.4917 33.874C33.6997 33.562 33.0517 33.106 32.5477 32.506L34.1677 30.994C34.4797 31.426 34.8937 31.768 35.4097 32.02C35.9377 32.272 36.4537 32.398 36.9577 32.398C37.2217 32.398 37.4917 32.368 37.7677 32.308C38.0437 32.236 38.2897 32.122 38.5057 31.966C38.7337 31.81 38.9137 31.618 39.0457 31.39C39.1897 31.15 39.2617 30.856 39.2617 30.508C39.2617 30.172 39.1837 29.896 39.0277 29.68C38.8717 29.452 38.6617 29.26 38.3977 29.104C38.1337 28.936 37.8217 28.792 37.4617 28.672C37.1017 28.552 36.7237 28.426 36.3277 28.294C35.9437 28.174 35.5597 28.03 35.1757 27.862C34.7917 27.694 34.4437 27.472 34.1317 27.196C33.8317 26.92 33.5857 26.584 33.3937 26.188C33.2017 25.78 33.1057 25.276 33.1057 24.676C33.1057 24.028 33.2377 23.47 33.5017 23.002C33.7777 22.534 34.1317 22.15 34.5637 21.85C35.0077 21.538 35.5057 21.31 36.0577 21.166C36.6217 21.01 37.1917 20.932 37.7677 20.932C38.4157 20.932 39.0697 21.046 39.7297 21.274C40.4017 21.502 40.9837 21.844 41.4757 22.3L39.9997 23.92ZM49.8136 28.816C49.8136 28.54 49.7716 28.276 49.6876 28.024C49.6156 27.772 49.4956 27.55 49.3276 27.358C49.1596 27.166 48.9436 27.016 48.6796 26.908C48.4276 26.788 48.1276 26.728 47.7796 26.728C47.1316 26.728 46.5796 26.926 46.1236 27.322C45.6796 27.706 45.4336 28.204 45.3856 28.816H49.8136ZM51.9736 29.788C51.9736 29.884 51.9736 29.98 51.9736 30.076C51.9736 30.172 51.9676 30.268 51.9556 30.364H45.3856C45.4096 30.676 45.4876 30.964 45.6196 31.228C45.7636 31.48 45.9496 31.702 46.1776 31.894C46.4056 32.074 46.6636 32.218 46.9516 32.326C47.2396 32.434 47.5396 32.488 47.8516 32.488C48.3916 32.488 48.8476 32.392 49.2196 32.2C49.5916 31.996 49.8976 31.72 50.1376 31.372L51.5776 32.524C50.7256 33.676 49.4896 34.252 47.8696 34.252C47.1976 34.252 46.5796 34.15 46.0156 33.946C45.4516 33.73 44.9596 33.43 44.5396 33.046C44.1316 32.662 43.8076 32.194 43.5676 31.642C43.3396 31.078 43.2256 30.442 43.2256 29.734C43.2256 29.038 43.3396 28.408 43.5676 27.844C43.8076 27.268 44.1316 26.782 44.5396 26.386C44.9476 25.978 45.4276 25.666 45.9796 25.45C46.5436 25.222 47.1496 25.108 47.7976 25.108C48.3976 25.108 48.9496 25.21 49.4536 25.414C49.9696 25.606 50.4136 25.9 50.7856 26.296C51.1576 26.68 51.4456 27.166 51.6496 27.754C51.8656 28.33 51.9736 29.008 51.9736 29.788ZM60.1495 28.816C60.1495 28.54 60.1075 28.276 60.0235 28.024C59.9515 27.772 59.8315 27.55 59.6635 27.358C59.4955 27.166 59.2795 27.016 59.0155 26.908C58.7635 26.788 58.4635 26.728 58.1155 26.728C57.4675 26.728 56.9155 26.926 56.4595 27.322C56.0155 27.706 55.7695 28.204 55.7215 28.816H60.1495ZM62.3095 29.788C62.3095 29.884 62.3095 29.98 62.3095 30.076C62.3095 30.172 62.3035 30.268 62.2915 30.364H55.7215C55.7455 30.676 55.8235 30.964 55.9555 31.228C56.0995 31.48 56.2855 31.702 56.5135 31.894C56.7415 32.074 56.9995 32.218 57.2875 32.326C57.5755 32.434 57.8755 32.488 58.1875 32.488C58.7275 32.488 59.1835 32.392 59.5555 32.2C59.9275 31.996 60.2335 31.72 60.4735 31.372L61.9135 32.524C61.0615 33.676 59.8255 34.252 58.2055 34.252C57.5335 34.252 56.9155 34.15 56.3515 33.946C55.7875 33.73 55.2955 33.43 54.8755 33.046C54.4675 32.662 54.1435 32.194 53.9035 31.642C53.6755 31.078 53.5615 30.442 53.5615 29.734C53.5615 29.038 53.6755 28.408 53.9035 27.844C54.1435 27.268 54.4675 26.782 54.8755 26.386C55.2835 25.978 55.7635 25.666 56.3155 25.45C56.8795 25.222 57.4855 25.108 58.1335 25.108C58.7335 25.108 59.2855 25.21 59.7895 25.414C60.3055 25.606 60.7495 25.9 61.1215 26.296C61.4935 26.68 61.7815 27.166 61.9855 27.754C62.2015 28.33 62.3095 29.008 62.3095 29.788ZM69.0095 21.256H77.2355V23.236H71.2775V26.728H76.8935V28.636H71.2775V34H69.0095V21.256ZM86.348 34H84.296V32.614H84.26C84.068 33.046 83.732 33.43 83.252 33.766C82.784 34.09 82.226 34.252 81.578 34.252C81.014 34.252 80.528 34.156 80.12 33.964C79.724 33.76 79.394 33.496 79.13 33.172C78.878 32.848 78.692 32.476 78.572 32.056C78.452 31.636 78.392 31.204 78.392 30.76V25.36H80.552V30.148C80.552 30.4 80.57 30.664 80.606 30.94C80.642 31.216 80.72 31.468 80.84 31.696C80.96 31.912 81.122 32.092 81.326 32.236C81.542 32.38 81.824 32.452 82.172 32.452C82.508 32.452 82.802 32.386 83.054 32.254C83.318 32.11 83.528 31.93 83.684 31.714C83.852 31.498 83.978 31.252 84.062 30.976C84.146 30.688 84.188 30.4 84.188 30.112V25.36H86.348V34ZM88.9765 20.392H91.1365V34H88.9765V20.392ZM93.7929 20.392H95.9529V34H93.7929V20.392ZM103.181 21.256H105.449V31.984H110.867V34H103.181V21.256ZM112.303 25.36H114.463V34H112.303V25.36ZM111.997 22.426C111.997 22.078 112.123 21.778 112.375 21.526C112.639 21.262 112.969 21.13 113.365 21.13C113.761 21.13 114.091 21.256 114.355 21.508C114.631 21.748 114.769 22.054 114.769 22.426C114.769 22.798 114.631 23.11 114.355 23.362C114.091 23.602 113.761 23.722 113.365 23.722C112.969 23.722 112.639 23.596 112.375 23.344C112.123 23.08 111.997 22.774 111.997 22.426ZM121.817 27.664C121.625 27.412 121.361 27.196 121.025 27.016C120.689 26.824 120.323 26.728 119.927 26.728C119.579 26.728 119.261 26.8 118.973 26.944C118.685 27.088 118.541 27.328 118.541 27.664C118.541 28 118.697 28.24 119.009 28.384C119.333 28.516 119.801 28.654 120.413 28.798C120.737 28.87 121.061 28.966 121.385 29.086C121.721 29.206 122.021 29.368 122.285 29.572C122.561 29.764 122.783 30.01 122.951 30.31C123.119 30.598 123.203 30.952 123.203 31.372C123.203 31.9 123.101 32.35 122.897 32.722C122.705 33.082 122.441 33.376 122.105 33.604C121.781 33.832 121.397 33.994 120.953 34.09C120.521 34.198 120.071 34.252 119.603 34.252C118.931 34.252 118.277 34.132 117.641 33.892C117.005 33.64 116.477 33.286 116.057 32.83L117.479 31.498C117.719 31.81 118.031 32.068 118.415 32.272C118.799 32.476 119.225 32.578 119.693 32.578C119.849 32.578 120.005 32.56 120.161 32.524C120.329 32.488 120.479 32.434 120.611 32.362C120.755 32.278 120.869 32.17 120.953 32.038C121.037 31.906 121.079 31.744 121.079 31.552C121.079 31.192 120.911 30.934 120.575 30.778C120.251 30.622 119.759 30.466 119.099 30.31C118.775 30.238 118.457 30.148 118.145 30.04C117.845 29.92 117.575 29.77 117.335 29.59C117.095 29.398 116.903 29.164 116.759 28.888C116.615 28.612 116.543 28.27 116.543 27.862C116.543 27.382 116.639 26.968 116.831 26.62C117.035 26.272 117.299 25.99 117.623 25.774C117.947 25.546 118.313 25.378 118.721 25.27C119.129 25.162 119.549 25.108 119.981 25.108C120.605 25.108 121.211 25.216 121.799 25.432C122.399 25.648 122.873 25.978 123.221 26.422L121.817 27.664ZM123.839 27.088V25.36H125.351V22.858H127.475V25.36H129.635V27.088H127.475V31.102C127.475 31.486 127.541 31.804 127.673 32.056C127.817 32.308 128.129 32.434 128.609 32.434C128.753 32.434 128.909 32.422 129.077 32.398C129.245 32.362 129.395 32.314 129.527 32.254L129.599 33.946C129.407 34.018 129.179 34.072 128.915 34.108C128.651 34.156 128.399 34.18 128.159 34.18C127.583 34.18 127.115 34.102 126.755 33.946C126.395 33.778 126.107 33.556 125.891 33.28C125.687 32.992 125.543 32.668 125.459 32.308C125.387 31.936 125.351 31.54 125.351 31.12V27.088H123.839Z" fill="#311C01"/>
</svg>
