<svg width="358" height="48" viewBox="0 0 358 48" fill="none" xmlns="http://www.w3.org/2000/svg">
<rect x="1" y="1" width="356" height="46" rx="23" fill="white"/>
<rect x="1" y="1" width="356" height="46" rx="23" stroke="#F8B866" stroke-width="2"/>
<path d="M142.555 20.04C142.342 19.7627 142.038 19.5333 141.643 19.352C141.259 19.16 140.87 19.064 140.475 19.064C140.241 19.064 140.006 19.096 139.771 19.16C139.537 19.2133 139.323 19.304 139.131 19.432C138.939 19.5493 138.779 19.7093 138.651 19.912C138.534 20.104 138.475 20.3387 138.475 20.616C138.475 20.872 138.529 21.0907 138.635 21.272C138.742 21.4533 138.886 21.608 139.067 21.736C139.259 21.864 139.489 21.976 139.755 22.072C140.022 22.168 140.315 22.264 140.635 22.36C140.998 22.4773 141.371 22.6107 141.755 22.76C142.15 22.9093 142.507 23.1067 142.827 23.352C143.158 23.5973 143.425 23.9067 143.627 24.28C143.841 24.6533 143.947 25.1173 143.947 25.672C143.947 26.28 143.835 26.8133 143.611 27.272C143.387 27.72 143.089 28.0933 142.715 28.392C142.342 28.6907 141.905 28.9147 141.403 29.064C140.902 29.2133 140.374 29.288 139.819 29.288C139.083 29.288 138.363 29.1547 137.659 28.888C136.955 28.6107 136.379 28.2053 135.931 27.672L137.371 26.328C137.649 26.712 138.017 27.016 138.475 27.24C138.945 27.464 139.403 27.576 139.851 27.576C140.086 27.576 140.326 27.5493 140.571 27.496C140.817 27.432 141.035 27.3307 141.227 27.192C141.43 27.0533 141.59 26.8827 141.707 26.68C141.835 26.4667 141.899 26.2053 141.899 25.896C141.899 25.5973 141.83 25.352 141.691 25.16C141.553 24.9573 141.366 24.7867 141.131 24.648C140.897 24.4987 140.619 24.3707 140.299 24.264C139.979 24.1573 139.643 24.0453 139.291 23.928C138.95 23.8213 138.609 23.6933 138.267 23.544C137.926 23.3947 137.617 23.1973 137.339 22.952C137.073 22.7067 136.854 22.408 136.683 22.056C136.513 21.6933 136.427 21.2453 136.427 20.712C136.427 20.136 136.545 19.64 136.779 19.224C137.025 18.808 137.339 18.4667 137.723 18.2C138.118 17.9227 138.561 17.72 139.051 17.592C139.553 17.4533 140.059 17.384 140.571 17.384C141.147 17.384 141.729 17.4853 142.315 17.688C142.913 17.8907 143.43 18.1947 143.867 18.6L142.555 20.04ZM151.279 24.392C151.279 24.1467 151.241 23.912 151.167 23.688C151.103 23.464 150.996 23.2667 150.847 23.096C150.697 22.9253 150.505 22.792 150.271 22.696C150.047 22.5893 149.78 22.536 149.471 22.536C148.895 22.536 148.404 22.712 147.999 23.064C147.604 23.4053 147.385 23.848 147.343 24.392H151.279ZM153.199 25.256C153.199 25.3413 153.199 25.4267 153.199 25.512C153.199 25.5973 153.193 25.6827 153.183 25.768H147.343C147.364 26.0453 147.433 26.3013 147.551 26.536C147.679 26.76 147.844 26.9573 148.047 27.128C148.249 27.288 148.479 27.416 148.735 27.512C148.991 27.608 149.257 27.656 149.535 27.656C150.015 27.656 150.42 27.5707 150.751 27.4C151.081 27.2187 151.353 26.9733 151.567 26.664L152.847 27.688C152.089 28.712 150.991 29.224 149.551 29.224C148.953 29.224 148.404 29.1333 147.903 28.952C147.401 28.76 146.964 28.4933 146.591 28.152C146.228 27.8107 145.94 27.3947 145.727 26.904C145.524 26.4027 145.423 25.8373 145.423 25.208C145.423 24.5893 145.524 24.0293 145.727 23.528C145.94 23.016 146.228 22.584 146.591 22.232C146.953 21.8693 147.38 21.592 147.871 21.4C148.372 21.1973 148.911 21.096 149.487 21.096C150.02 21.096 150.511 21.1867 150.959 21.368C151.417 21.5387 151.812 21.8 152.143 22.152C152.473 22.4933 152.729 22.9253 152.911 23.448C153.103 23.96 153.199 24.5627 153.199 25.256ZM160.466 24.392C160.466 24.1467 160.429 23.912 160.354 23.688C160.29 23.464 160.184 23.2667 160.034 23.096C159.885 22.9253 159.693 22.792 159.458 22.696C159.234 22.5893 158.968 22.536 158.658 22.536C158.082 22.536 157.592 22.712 157.186 23.064C156.792 23.4053 156.573 23.848 156.53 24.392H160.466ZM162.386 25.256C162.386 25.3413 162.386 25.4267 162.386 25.512C162.386 25.5973 162.381 25.6827 162.37 25.768H156.53C156.552 26.0453 156.621 26.3013 156.738 26.536C156.866 26.76 157.032 26.9573 157.234 27.128C157.437 27.288 157.666 27.416 157.922 27.512C158.178 27.608 158.445 27.656 158.722 27.656C159.202 27.656 159.608 27.5707 159.938 27.4C160.269 27.2187 160.541 26.9733 160.754 26.664L162.034 27.688C161.277 28.712 160.178 29.224 158.738 29.224C158.141 29.224 157.592 29.1333 157.09 28.952C156.589 28.76 156.152 28.4933 155.778 28.152C155.416 27.8107 155.128 27.3947 154.914 26.904C154.712 26.4027 154.61 25.8373 154.61 25.208C154.61 24.5893 154.712 24.0293 154.914 23.528C155.128 23.016 155.416 22.584 155.778 22.232C156.141 21.8693 156.568 21.592 157.058 21.4C157.56 21.1973 158.098 21.096 158.674 21.096C159.208 21.096 159.698 21.1867 160.146 21.368C160.605 21.5387 161 21.8 161.33 22.152C161.661 22.4933 161.917 22.9253 162.098 23.448C162.29 23.96 162.386 24.5627 162.386 25.256ZM168.342 17.672H175.654V19.432H170.358V22.536H175.35V24.232H170.358V29H168.342V17.672ZM183.754 29H181.93V27.768H181.898C181.727 28.152 181.428 28.4933 181.002 28.792C180.586 29.08 180.09 29.224 179.514 29.224C179.012 29.224 178.58 29.1387 178.218 28.968C177.866 28.7867 177.572 28.552 177.338 28.264C177.114 27.976 176.948 27.6453 176.842 27.272C176.735 26.8987 176.682 26.5147 176.682 26.12V21.32H178.602V25.576C178.602 25.8 178.618 26.0347 178.65 26.28C178.682 26.5253 178.751 26.7493 178.858 26.952C178.964 27.144 179.108 27.304 179.29 27.432C179.482 27.56 179.732 27.624 180.042 27.624C180.34 27.624 180.602 27.5653 180.826 27.448C181.06 27.32 181.247 27.16 181.386 26.968C181.535 26.776 181.647 26.5573 181.722 26.312C181.796 26.056 181.834 25.8 181.834 25.544V21.32H183.754V29ZM186.09 16.904H188.01V29H186.09V16.904ZM190.372 16.904H192.292V29H190.372V16.904ZM198.717 17.672H200.733V27.208H205.549V29H198.717V17.672ZM206.825 21.32H208.745V29H206.825V21.32ZM206.553 18.712C206.553 18.4027 206.665 18.136 206.889 17.912C207.123 17.6773 207.417 17.56 207.769 17.56C208.121 17.56 208.414 17.672 208.649 17.896C208.894 18.1093 209.017 18.3813 209.017 18.712C209.017 19.0427 208.894 19.32 208.649 19.544C208.414 19.7573 208.121 19.864 207.769 19.864C207.417 19.864 207.123 19.752 206.889 19.528C206.665 19.2933 206.553 19.0213 206.553 18.712ZM215.282 23.368C215.111 23.144 214.877 22.952 214.578 22.792C214.279 22.6213 213.954 22.536 213.602 22.536C213.293 22.536 213.01 22.6 212.754 22.728C212.498 22.856 212.37 23.0693 212.37 23.368C212.37 23.6667 212.509 23.88 212.786 24.008C213.074 24.1253 213.49 24.248 214.034 24.376C214.322 24.44 214.61 24.5253 214.898 24.632C215.197 24.7387 215.463 24.8827 215.698 25.064C215.943 25.2347 216.141 25.4533 216.29 25.72C216.439 25.976 216.514 26.2907 216.514 26.664C216.514 27.1333 216.423 27.5333 216.242 27.864C216.071 28.184 215.837 28.4453 215.538 28.648C215.25 28.8507 214.909 28.9947 214.514 29.08C214.13 29.176 213.73 29.224 213.314 29.224C212.717 29.224 212.135 29.1173 211.57 28.904C211.005 28.68 210.535 28.3653 210.162 27.96L211.426 26.776C211.639 27.0533 211.917 27.2827 212.258 27.464C212.599 27.6453 212.978 27.736 213.394 27.736C213.533 27.736 213.671 27.72 213.81 27.688C213.959 27.656 214.093 27.608 214.21 27.544C214.338 27.4693 214.439 27.3733 214.514 27.256C214.589 27.1387 214.626 26.9947 214.626 26.824C214.626 26.504 214.477 26.2747 214.178 26.136C213.89 25.9973 213.453 25.8587 212.866 25.72C212.578 25.656 212.295 25.576 212.018 25.48C211.751 25.3733 211.511 25.24 211.298 25.08C211.085 24.9093 210.914 24.7013 210.786 24.456C210.658 24.2107 210.594 23.9067 210.594 23.544C210.594 23.1173 210.679 22.7493 210.85 22.44C211.031 22.1307 211.266 21.88 211.554 21.688C211.842 21.4853 212.167 21.336 212.53 21.24C212.893 21.144 213.266 21.096 213.65 21.096C214.205 21.096 214.743 21.192 215.266 21.384C215.799 21.576 216.221 21.8693 216.53 22.264L215.282 23.368ZM217.079 22.856V21.32H218.423V19.096H220.311V21.32H222.231V22.856H220.311V26.424C220.311 26.7653 220.37 27.048 220.487 27.272C220.615 27.496 220.893 27.608 221.319 27.608C221.447 27.608 221.586 27.5973 221.735 27.576C221.885 27.544 222.018 27.5013 222.135 27.448L222.199 28.952C222.029 29.016 221.826 29.064 221.591 29.096C221.357 29.1387 221.133 29.16 220.919 29.16C220.407 29.16 219.991 29.0907 219.671 28.952C219.351 28.8027 219.095 28.6053 218.903 28.36C218.722 28.104 218.594 27.816 218.519 27.496C218.455 27.1653 218.423 26.8133 218.423 26.44V22.856H217.079Z" fill="#311C01"/>
</svg>
