<svg width="358" height="48" viewBox="0 0 358 48" fill="none" xmlns="http://www.w3.org/2000/svg">
<rect x="1" y="1" width="356" height="46" rx="23" fill="white"/>
<rect x="1" y="1" width="356" height="46" rx="23" stroke="#F8B866" stroke-width="2"/>
<path d="M88.7539 28.408C88.1779 28.6853 87.5433 28.8987 86.8499 29.048C86.1673 29.208 85.3779 29.288 84.4819 29.288C83.5646 29.288 82.7273 29.144 81.9699 28.856C81.2126 28.5573 80.5619 28.1467 80.0179 27.624C79.4739 27.0907 79.0473 26.4613 78.7379 25.736C78.4393 25 78.2899 24.1893 78.2899 23.304C78.2899 22.3973 78.4446 21.5813 78.7539 20.856C79.0739 20.12 79.5059 19.496 80.0499 18.984C80.6046 18.472 81.2553 18.0773 82.0019 17.8C82.7486 17.5227 83.5593 17.384 84.4339 17.384C85.3406 17.384 86.1673 17.5173 86.9139 17.784C87.6713 18.04 88.2793 18.3813 88.7379 18.808L87.3459 20.312C87.0579 19.992 86.6526 19.72 86.1299 19.496C85.6179 19.272 85.0579 19.16 84.4499 19.16C83.8526 19.16 83.3086 19.2667 82.8179 19.48C82.3379 19.6933 81.9273 19.9867 81.5859 20.36C81.2446 20.7333 80.9779 21.1707 80.7859 21.672C80.6046 22.1733 80.5139 22.7173 80.5139 23.304C80.5139 23.912 80.6046 24.472 80.7859 24.984C80.9779 25.4853 81.2446 25.9227 81.5859 26.296C81.9379 26.6693 82.3593 26.9627 82.8499 27.176C83.3513 27.3787 83.9166 27.48 84.5459 27.48C85.4099 27.48 86.1619 27.3467 86.8019 27.08V24.2H84.4179V22.536H88.7539V28.408ZM96.5209 24.392C96.5209 24.1467 96.4836 23.912 96.4089 23.688C96.3449 23.464 96.2383 23.2667 96.0889 23.096C95.9396 22.9253 95.7476 22.792 95.5129 22.696C95.2889 22.5893 95.0223 22.536 94.7129 22.536C94.1369 22.536 93.6463 22.712 93.2409 23.064C92.8463 23.4053 92.6276 23.848 92.5849 24.392H96.5209ZM98.4409 25.256C98.4409 25.3413 98.4409 25.4267 98.4409 25.512C98.4409 25.5973 98.4356 25.6827 98.4249 25.768H92.5849C92.6063 26.0453 92.6756 26.3013 92.7929 26.536C92.9209 26.76 93.0863 26.9573 93.2889 27.128C93.4916 27.288 93.7209 27.416 93.9769 27.512C94.2329 27.608 94.4996 27.656 94.7769 27.656C95.2569 27.656 95.6623 27.5707 95.9929 27.4C96.3236 27.2187 96.5956 26.9733 96.8089 26.664L98.0889 27.688C97.3316 28.712 96.2329 29.224 94.7929 29.224C94.1956 29.224 93.6463 29.1333 93.1449 28.952C92.6436 28.76 92.2063 28.4933 91.8329 28.152C91.4703 27.8107 91.1823 27.3947 90.9689 26.904C90.7663 26.4027 90.6649 25.8373 90.6649 25.208C90.6649 24.5893 90.7663 24.0293 90.9689 23.528C91.1823 23.016 91.4703 22.584 91.8329 22.232C92.1956 21.8693 92.6223 21.592 93.1129 21.4C93.6143 21.1973 94.1529 21.096 94.7289 21.096C95.2623 21.096 95.7529 21.1867 96.2009 21.368C96.6596 21.5387 97.0543 21.8 97.3849 22.152C97.7156 22.4933 97.9716 22.9253 98.1529 23.448C98.3449 23.96 98.4409 24.5627 98.4409 25.256ZM99.1964 22.856V21.32H100.54V19.096H102.428V21.32H104.348V22.856H102.428V26.424C102.428 26.7653 102.487 27.048 102.604 27.272C102.732 27.496 103.01 27.608 103.436 27.608C103.564 27.608 103.703 27.5973 103.852 27.576C104.002 27.544 104.135 27.5013 104.252 27.448L104.316 28.952C104.146 29.016 103.943 29.064 103.708 29.096C103.474 29.1387 103.25 29.16 103.036 29.16C102.524 29.16 102.108 29.0907 101.788 28.952C101.468 28.8027 101.212 28.6053 101.02 28.36C100.839 28.104 100.711 27.816 100.636 27.496C100.572 27.1653 100.54 26.8133 100.54 26.44V22.856H99.1964ZM112.179 24.088L107.923 17.672H110.387L113.235 22.44L116.115 17.672H118.451L114.195 24.088V29H112.179V24.088ZM117.368 25.128C117.368 24.52 117.475 23.9707 117.688 23.48C117.912 22.9787 118.211 22.552 118.584 22.2C118.957 21.848 119.4 21.576 119.912 21.384C120.424 21.192 120.968 21.096 121.544 21.096C122.12 21.096 122.664 21.192 123.176 21.384C123.688 21.576 124.131 21.848 124.504 22.2C124.877 22.552 125.171 22.9787 125.384 23.48C125.608 23.9707 125.72 24.52 125.72 25.128C125.72 25.736 125.608 26.2907 125.384 26.792C125.171 27.2933 124.877 27.7253 124.504 28.088C124.131 28.44 123.688 28.7173 123.176 28.92C122.664 29.1227 122.12 29.224 121.544 29.224C120.968 29.224 120.424 29.1227 119.912 28.92C119.4 28.7173 118.957 28.44 118.584 28.088C118.211 27.7253 117.912 27.2933 117.688 26.792C117.475 26.2907 117.368 25.736 117.368 25.128ZM119.32 25.128C119.32 25.4267 119.363 25.7253 119.448 26.024C119.544 26.3227 119.683 26.5893 119.864 26.824C120.045 27.0587 120.275 27.2507 120.552 27.4C120.829 27.5493 121.16 27.624 121.544 27.624C121.928 27.624 122.259 27.5493 122.536 27.4C122.813 27.2507 123.043 27.0587 123.224 26.824C123.405 26.5893 123.539 26.3227 123.624 26.024C123.72 25.7253 123.768 25.4267 123.768 25.128C123.768 24.8293 123.72 24.536 123.624 24.248C123.539 23.9493 123.405 23.6827 123.224 23.448C123.043 23.2133 122.813 23.0267 122.536 22.888C122.259 22.7387 121.928 22.664 121.544 22.664C121.16 22.664 120.829 22.7387 120.552 22.888C120.275 23.0267 120.045 23.2133 119.864 23.448C119.683 23.6827 119.544 23.9493 119.448 24.248C119.363 24.536 119.32 24.8293 119.32 25.128ZM134.59 29H132.766V27.768H132.734C132.563 28.152 132.264 28.4933 131.838 28.792C131.422 29.08 130.926 29.224 130.35 29.224C129.848 29.224 129.416 29.1387 129.054 28.968C128.702 28.7867 128.408 28.552 128.174 28.264C127.95 27.976 127.784 27.6453 127.678 27.272C127.571 26.8987 127.518 26.5147 127.518 26.12V21.32H129.438V25.576C129.438 25.8 129.454 26.0347 129.486 26.28C129.518 26.5253 129.587 26.7493 129.694 26.952C129.8 27.144 129.944 27.304 130.126 27.432C130.318 27.56 130.568 27.624 130.878 27.624C131.176 27.624 131.438 27.5653 131.662 27.448C131.896 27.32 132.083 27.16 132.222 26.968C132.371 26.776 132.483 26.5573 132.558 26.312C132.632 26.056 132.67 25.8 132.67 25.544V21.32H134.59V29ZM136.894 21.32H138.734V22.6H138.766C138.98 22.152 139.278 21.7893 139.662 21.512C140.046 21.2347 140.494 21.096 141.006 21.096C141.081 21.096 141.161 21.1013 141.246 21.112C141.332 21.112 141.406 21.1227 141.47 21.144V22.904C141.342 22.872 141.23 22.8507 141.134 22.84C141.049 22.8293 140.964 22.824 140.878 22.824C140.441 22.824 140.089 22.904 139.822 23.064C139.556 23.224 139.348 23.416 139.198 23.64C139.049 23.864 138.948 24.0933 138.894 24.328C138.841 24.5627 138.814 24.7493 138.814 24.888V29H136.894V21.32ZM146.818 17.672H154.13V19.432H148.834V22.536H153.826V24.232H148.834V29H146.818V17.672ZM155.222 21.32H157.062V22.6H157.094C157.308 22.152 157.606 21.7893 157.99 21.512C158.374 21.2347 158.822 21.096 159.334 21.096C159.409 21.096 159.489 21.1013 159.574 21.112C159.66 21.112 159.734 21.1227 159.798 21.144V22.904C159.67 22.872 159.558 22.8507 159.462 22.84C159.377 22.8293 159.292 22.824 159.206 22.824C158.769 22.824 158.417 22.904 158.15 23.064C157.884 23.224 157.676 23.416 157.526 23.64C157.377 23.864 157.276 24.0933 157.222 24.328C157.169 24.5627 157.142 24.7493 157.142 24.888V29H155.222V21.32ZM166.177 24.392C166.177 24.1467 166.14 23.912 166.065 23.688C166.001 23.464 165.895 23.2667 165.745 23.096C165.596 22.9253 165.404 22.792 165.169 22.696C164.945 22.5893 164.679 22.536 164.369 22.536C163.793 22.536 163.303 22.712 162.897 23.064C162.503 23.4053 162.284 23.848 162.241 24.392H166.177ZM168.097 25.256C168.097 25.3413 168.097 25.4267 168.097 25.512C168.097 25.5973 168.092 25.6827 168.081 25.768H162.241C162.263 26.0453 162.332 26.3013 162.449 26.536C162.577 26.76 162.743 26.9573 162.945 27.128C163.148 27.288 163.377 27.416 163.633 27.512C163.889 27.608 164.156 27.656 164.433 27.656C164.913 27.656 165.319 27.5707 165.649 27.4C165.98 27.2187 166.252 26.9733 166.465 26.664L167.745 27.688C166.988 28.712 165.889 29.224 164.449 29.224C163.852 29.224 163.303 29.1333 162.801 28.952C162.3 28.76 161.863 28.4933 161.489 28.152C161.127 27.8107 160.839 27.3947 160.625 26.904C160.423 26.4027 160.321 25.8373 160.321 25.208C160.321 24.5893 160.423 24.0293 160.625 23.528C160.839 23.016 161.127 22.584 161.489 22.232C161.852 21.8693 162.279 21.592 162.769 21.4C163.271 21.1973 163.809 21.096 164.385 21.096C164.919 21.096 165.409 21.1867 165.857 21.368C166.316 21.5387 166.711 21.8 167.041 22.152C167.372 22.4933 167.628 22.9253 167.809 23.448C168.001 23.96 168.097 24.5627 168.097 25.256ZM175.365 24.392C175.365 24.1467 175.327 23.912 175.253 23.688C175.189 23.464 175.082 23.2667 174.933 23.096C174.783 22.9253 174.591 22.792 174.357 22.696C174.133 22.5893 173.866 22.536 173.557 22.536C172.981 22.536 172.49 22.712 172.085 23.064C171.69 23.4053 171.471 23.848 171.429 24.392H175.365ZM177.285 25.256C177.285 25.3413 177.285 25.4267 177.285 25.512C177.285 25.5973 177.279 25.6827 177.269 25.768H171.429C171.45 26.0453 171.519 26.3013 171.637 26.536C171.765 26.76 171.93 26.9573 172.133 27.128C172.335 27.288 172.565 27.416 172.821 27.512C173.077 27.608 173.343 27.656 173.621 27.656C174.101 27.656 174.506 27.5707 174.837 27.4C175.167 27.2187 175.439 26.9733 175.653 26.664L176.933 27.688C176.175 28.712 175.077 29.224 173.637 29.224C173.039 29.224 172.49 29.1333 171.989 28.952C171.487 28.76 171.05 28.4933 170.677 28.152C170.314 27.8107 170.026 27.3947 169.813 26.904C169.61 26.4027 169.509 25.8373 169.509 25.208C169.509 24.5893 169.61 24.0293 169.813 23.528C170.026 23.016 170.314 22.584 170.677 22.232C171.039 21.8693 171.466 21.592 171.957 21.4C172.458 21.1973 172.997 21.096 173.573 21.096C174.106 21.096 174.597 21.1867 175.045 21.368C175.503 21.5387 175.898 21.8 176.229 22.152C176.559 22.4933 176.815 22.9253 176.997 23.448C177.189 23.96 177.285 24.5627 177.285 25.256ZM181.901 17.672H184.109L186.301 25.992H186.333L188.829 17.672H190.909L193.357 25.992H193.389L195.629 17.672H197.773L194.461 29H192.509L189.853 20.504H189.821L187.165 29H185.213L181.901 17.672ZM203.209 28.024H203.161C202.969 28.3653 202.66 28.648 202.233 28.872C201.806 29.0853 201.321 29.192 200.777 29.192C200.468 29.192 200.142 29.1493 199.801 29.064C199.47 28.9893 199.161 28.8613 198.873 28.68C198.596 28.488 198.361 28.2427 198.169 27.944C197.988 27.6347 197.897 27.256 197.897 26.808C197.897 26.232 198.057 25.7733 198.377 25.432C198.708 25.0907 199.129 24.8293 199.641 24.648C200.153 24.4667 200.718 24.3493 201.337 24.296C201.966 24.232 202.58 24.2 203.177 24.2V24.008C203.177 23.528 203.001 23.176 202.649 22.952C202.308 22.7173 201.897 22.6 201.417 22.6C201.012 22.6 200.622 22.6853 200.249 22.856C199.876 23.0267 199.566 23.2347 199.321 23.48L198.329 22.312C198.766 21.9067 199.268 21.6027 199.833 21.4C200.409 21.1973 200.99 21.096 201.577 21.096C202.26 21.096 202.82 21.192 203.257 21.384C203.705 21.576 204.057 21.8267 204.313 22.136C204.569 22.4453 204.745 22.792 204.841 23.176C204.948 23.56 205.001 23.944 205.001 24.328V29H203.209V28.024ZM203.177 25.496H202.745C202.436 25.496 202.11 25.512 201.769 25.544C201.428 25.5653 201.113 25.624 200.825 25.72C200.537 25.8053 200.297 25.9333 200.105 26.104C199.913 26.264 199.817 26.488 199.817 26.776C199.817 26.9573 199.854 27.112 199.929 27.24C200.014 27.3573 200.121 27.4533 200.249 27.528C200.377 27.6027 200.521 27.656 200.681 27.688C200.841 27.72 201.001 27.736 201.161 27.736C201.822 27.736 202.324 27.56 202.665 27.208C203.006 26.856 203.177 26.376 203.177 25.768V25.496ZM205.978 22.856V21.32H207.322V19.096H209.21V21.32H211.13V22.856H209.21V26.424C209.21 26.7653 209.268 27.048 209.386 27.272C209.514 27.496 209.791 27.608 210.218 27.608C210.346 27.608 210.484 27.5973 210.634 27.576C210.783 27.544 210.916 27.5013 211.034 27.448L211.098 28.952C210.927 29.016 210.724 29.064 210.49 29.096C210.255 29.1387 210.031 29.16 209.818 29.16C209.306 29.16 208.89 29.0907 208.57 28.952C208.25 28.8027 207.994 28.6053 207.802 28.36C207.62 28.104 207.492 27.816 207.418 27.496C207.354 27.1653 207.322 26.8133 207.322 26.44V22.856H205.978ZM217.927 24.392C217.927 24.1467 217.89 23.912 217.815 23.688C217.751 23.464 217.645 23.2667 217.495 23.096C217.346 22.9253 217.154 22.792 216.919 22.696C216.695 22.5893 216.429 22.536 216.119 22.536C215.543 22.536 215.053 22.712 214.647 23.064C214.253 23.4053 214.034 23.848 213.991 24.392H217.927ZM219.847 25.256C219.847 25.3413 219.847 25.4267 219.847 25.512C219.847 25.5973 219.842 25.6827 219.831 25.768H213.991C214.013 26.0453 214.082 26.3013 214.199 26.536C214.327 26.76 214.493 26.9573 214.695 27.128C214.898 27.288 215.127 27.416 215.383 27.512C215.639 27.608 215.906 27.656 216.183 27.656C216.663 27.656 217.069 27.5707 217.399 27.4C217.73 27.2187 218.002 26.9733 218.215 26.664L219.495 27.688C218.738 28.712 217.639 29.224 216.199 29.224C215.602 29.224 215.053 29.1333 214.551 28.952C214.05 28.76 213.613 28.4933 213.239 28.152C212.877 27.8107 212.589 27.3947 212.375 26.904C212.173 26.4027 212.071 25.8373 212.071 25.208C212.071 24.5893 212.173 24.0293 212.375 23.528C212.589 23.016 212.877 22.584 213.239 22.232C213.602 21.8693 214.029 21.592 214.519 21.4C215.021 21.1973 215.559 21.096 216.135 21.096C216.669 21.096 217.159 21.1867 217.607 21.368C218.066 21.5387 218.461 21.8 218.791 22.152C219.122 22.4933 219.378 22.9253 219.559 23.448C219.751 23.96 219.847 24.5627 219.847 25.256ZM221.707 21.32H223.547V22.6H223.579C223.792 22.152 224.091 21.7893 224.475 21.512C224.859 21.2347 225.307 21.096 225.819 21.096C225.893 21.096 225.973 21.1013 226.059 21.112C226.144 21.112 226.219 21.1227 226.283 21.144V22.904C226.155 22.872 226.043 22.8507 225.947 22.84C225.861 22.8293 225.776 22.824 225.691 22.824C225.253 22.824 224.901 22.904 224.635 23.064C224.368 23.224 224.16 23.416 224.011 23.64C223.861 23.864 223.76 24.0933 223.707 24.328C223.653 24.5627 223.627 24.7493 223.627 24.888V29H221.707V21.32ZM231.631 17.672H235.567C236.1 17.672 236.617 17.7307 237.119 17.848C237.62 17.9547 238.063 18.136 238.447 18.392C238.841 18.648 239.156 18.984 239.391 19.4C239.625 19.816 239.743 20.3227 239.743 20.92C239.743 21.7413 239.508 22.4133 239.039 22.936C238.58 23.448 237.951 23.7947 237.151 23.976L240.175 29H237.743L235.119 24.2H233.647V29H231.631V17.672ZM235.295 22.552C235.583 22.552 235.871 22.5307 236.159 22.488C236.447 22.4453 236.703 22.3653 236.927 22.248C237.161 22.1307 237.353 21.9653 237.503 21.752C237.652 21.528 237.727 21.2453 237.727 20.904C237.727 20.5947 237.657 20.344 237.519 20.152C237.38 19.9493 237.204 19.7893 236.991 19.672C236.777 19.5547 236.532 19.4747 236.255 19.432C235.988 19.3893 235.727 19.368 235.471 19.368H233.647V22.552H235.295ZM246.818 24.392C246.818 24.1467 246.78 23.912 246.706 23.688C246.642 23.464 246.535 23.2667 246.386 23.096C246.236 22.9253 246.044 22.792 245.81 22.696C245.586 22.5893 245.319 22.536 245.01 22.536C244.434 22.536 243.943 22.712 243.538 23.064C243.143 23.4053 242.924 23.848 242.882 24.392H246.818ZM248.738 25.256C248.738 25.3413 248.738 25.4267 248.738 25.512C248.738 25.5973 248.732 25.6827 248.722 25.768H242.882C242.903 26.0453 242.972 26.3013 243.09 26.536C243.218 26.76 243.383 26.9573 243.586 27.128C243.788 27.288 244.018 27.416 244.274 27.512C244.53 27.608 244.796 27.656 245.074 27.656C245.554 27.656 245.959 27.5707 246.29 27.4C246.62 27.2187 246.892 26.9733 247.106 26.664L248.386 27.688C247.628 28.712 246.53 29.224 245.09 29.224C244.492 29.224 243.943 29.1333 243.442 28.952C242.94 28.76 242.503 28.4933 242.13 28.152C241.767 27.8107 241.479 27.3947 241.266 26.904C241.063 26.4027 240.962 25.8373 240.962 25.208C240.962 24.5893 241.063 24.0293 241.266 23.528C241.479 23.016 241.767 22.584 242.13 22.232C242.492 21.8693 242.919 21.592 243.41 21.4C243.911 21.1973 244.45 21.096 245.026 21.096C245.559 21.096 246.05 21.1867 246.498 21.368C246.956 21.5387 247.351 21.8 247.682 22.152C248.012 22.4933 248.268 22.9253 248.45 23.448C248.642 23.96 248.738 24.5627 248.738 25.256ZM252.437 21.32V22.392H252.485C252.581 22.2427 252.704 22.0933 252.853 21.944C253.013 21.784 253.205 21.6453 253.429 21.528C253.653 21.4 253.904 21.2987 254.181 21.224C254.469 21.1387 254.789 21.096 255.141 21.096C255.685 21.096 256.187 21.2027 256.645 21.416C257.104 21.6187 257.499 21.9013 257.829 22.264C258.16 22.6267 258.416 23.0533 258.597 23.544C258.779 24.0347 258.869 24.5627 258.869 25.128C258.869 25.6933 258.779 26.2267 258.597 26.728C258.427 27.2187 258.176 27.6507 257.845 28.024C257.525 28.3867 257.131 28.68 256.661 28.904C256.203 29.1173 255.68 29.224 255.093 29.224C254.549 29.224 254.048 29.112 253.589 28.888C253.141 28.664 252.795 28.36 252.549 27.976H252.517V32.84H250.597V21.32H252.437ZM256.917 25.128C256.917 24.8293 256.869 24.536 256.773 24.248C256.688 23.9493 256.555 23.6827 256.373 23.448C256.192 23.2133 255.963 23.0267 255.685 22.888C255.408 22.7387 255.083 22.664 254.709 22.664C254.357 22.664 254.043 22.7387 253.765 22.888C253.488 23.0373 253.248 23.2293 253.045 23.464C252.853 23.6987 252.704 23.9653 252.597 24.264C252.501 24.5627 252.453 24.8613 252.453 25.16C252.453 25.4587 252.501 25.7573 252.597 26.056C252.704 26.344 252.853 26.6053 253.045 26.84C253.248 27.0747 253.488 27.2667 253.765 27.416C254.043 27.5547 254.357 27.624 254.709 27.624C255.083 27.624 255.408 27.5493 255.685 27.4C255.963 27.2507 256.192 27.0587 256.373 26.824C256.555 26.5893 256.688 26.3227 256.773 26.024C256.869 25.7253 256.917 25.4267 256.917 25.128ZM260.274 25.128C260.274 24.52 260.381 23.9707 260.594 23.48C260.818 22.9787 261.117 22.552 261.49 22.2C261.864 21.848 262.306 21.576 262.818 21.384C263.33 21.192 263.874 21.096 264.45 21.096C265.026 21.096 265.57 21.192 266.082 21.384C266.594 21.576 267.037 21.848 267.41 22.2C267.784 22.552 268.077 22.9787 268.29 23.48C268.514 23.9707 268.626 24.52 268.626 25.128C268.626 25.736 268.514 26.2907 268.29 26.792C268.077 27.2933 267.784 27.7253 267.41 28.088C267.037 28.44 266.594 28.7173 266.082 28.92C265.57 29.1227 265.026 29.224 264.45 29.224C263.874 29.224 263.33 29.1227 262.818 28.92C262.306 28.7173 261.864 28.44 261.49 28.088C261.117 27.7253 260.818 27.2933 260.594 26.792C260.381 26.2907 260.274 25.736 260.274 25.128ZM262.226 25.128C262.226 25.4267 262.269 25.7253 262.354 26.024C262.45 26.3227 262.589 26.5893 262.77 26.824C262.952 27.0587 263.181 27.2507 263.458 27.4C263.736 27.5493 264.066 27.624 264.45 27.624C264.834 27.624 265.165 27.5493 265.442 27.4C265.72 27.2507 265.949 27.0587 266.13 26.824C266.312 26.5893 266.445 26.3227 266.53 26.024C266.626 25.7253 266.674 25.4267 266.674 25.128C266.674 24.8293 266.626 24.536 266.53 24.248C266.445 23.9493 266.312 23.6827 266.13 23.448C265.949 23.2133 265.72 23.0267 265.442 22.888C265.165 22.7387 264.834 22.664 264.45 22.664C264.066 22.664 263.736 22.7387 263.458 22.888C263.181 23.0267 262.952 23.2133 262.77 23.448C262.589 23.6827 262.45 23.9493 262.354 24.248C262.269 24.536 262.226 24.8293 262.226 25.128ZM270.488 21.32H272.328V22.6H272.36C272.573 22.152 272.872 21.7893 273.256 21.512C273.64 21.2347 274.088 21.096 274.6 21.096C274.675 21.096 274.755 21.1013 274.84 21.112C274.925 21.112 275 21.1227 275.064 21.144V22.904C274.936 22.872 274.824 22.8507 274.728 22.84C274.643 22.8293 274.557 22.824 274.472 22.824C274.035 22.824 273.683 22.904 273.416 23.064C273.149 23.224 272.941 23.416 272.792 23.64C272.643 23.864 272.541 24.0933 272.488 24.328C272.435 24.5627 272.408 24.7493 272.408 24.888V29H270.488V21.32ZM275.025 22.856V21.32H276.369V19.096H278.257V21.32H280.177V22.856H278.257V26.424C278.257 26.7653 278.315 27.048 278.433 27.272C278.561 27.496 278.838 27.608 279.265 27.608C279.393 27.608 279.531 27.5973 279.681 27.576C279.83 27.544 279.963 27.5013 280.081 27.448L280.145 28.952C279.974 29.016 279.771 29.064 279.537 29.096C279.302 29.1387 279.078 29.16 278.865 29.16C278.353 29.16 277.937 29.0907 277.617 28.952C277.297 28.8027 277.041 28.6053 276.849 28.36C276.667 28.104 276.539 27.816 276.465 27.496C276.401 27.1653 276.369 26.8133 276.369 26.44V22.856H275.025Z" fill="#311C01"/>
</svg>
