<svg width="122" height="48" viewBox="0 0 122 48" fill="none" xmlns="http://www.w3.org/2000/svg">
<rect width="122" height="48" rx="24" fill="#E7E6E2"/>
<path d="M31.5084 20.04C31.295 19.7627 30.991 19.5333 30.5964 19.352C30.2124 19.16 29.823 19.064 29.4284 19.064C29.1937 19.064 28.959 19.096 28.7244 19.16C28.4897 19.2133 28.2764 19.304 28.0844 19.432C27.8924 19.5493 27.7324 19.7093 27.6044 19.912C27.487 20.104 27.4284 20.3387 27.4284 20.616C27.4284 20.872 27.4817 21.0907 27.5884 21.272C27.695 21.4533 27.839 21.608 28.0204 21.736C28.2124 21.864 28.4417 21.976 28.7084 22.072C28.975 22.168 29.2684 22.264 29.5884 22.36C29.951 22.4773 30.3244 22.6107 30.7084 22.76C31.103 22.9093 31.4604 23.1067 31.7804 23.352C32.111 23.5973 32.3777 23.9067 32.5804 24.28C32.7937 24.6533 32.9004 25.1173 32.9004 25.672C32.9004 26.28 32.7884 26.8133 32.5644 27.272C32.3404 27.72 32.0417 28.0933 31.6684 28.392C31.295 28.6907 30.8577 28.9147 30.3564 29.064C29.855 29.2133 29.327 29.288 28.7724 29.288C28.0364 29.288 27.3164 29.1547 26.6124 28.888C25.9084 28.6107 25.3324 28.2053 24.8844 27.672L26.3244 26.328C26.6017 26.712 26.9697 27.016 27.4284 27.24C27.8977 27.464 28.3564 27.576 28.8044 27.576C29.039 27.576 29.279 27.5493 29.5244 27.496C29.7697 27.432 29.9884 27.3307 30.1804 27.192C30.383 27.0533 30.543 26.8827 30.6604 26.68C30.7884 26.4667 30.8524 26.2053 30.8524 25.896C30.8524 25.5973 30.783 25.352 30.6444 25.16C30.5057 24.9573 30.319 24.7867 30.0844 24.648C29.8497 24.4987 29.5724 24.3707 29.2524 24.264C28.9324 24.1573 28.5964 24.0453 28.2444 23.928C27.903 23.8213 27.5617 23.6933 27.2204 23.544C26.879 23.3947 26.5697 23.1973 26.2924 22.952C26.0257 22.7067 25.807 22.408 25.6364 22.056C25.4657 21.6933 25.3804 21.2453 25.3804 20.712C25.3804 20.136 25.4977 19.64 25.7324 19.224C25.9777 18.808 26.2924 18.4667 26.6764 18.2C27.071 17.9227 27.5137 17.72 28.0044 17.592C28.5057 17.4533 29.0124 17.384 29.5244 17.384C30.1004 17.384 30.6817 17.4853 31.2684 17.688C31.8657 17.8907 32.383 18.1947 32.8204 18.6L31.5084 20.04ZM41.8319 29H40.0079V27.768H39.9759C39.8052 28.152 39.5065 28.4933 39.0799 28.792C38.6639 29.08 38.1679 29.224 37.5919 29.224C37.0905 29.224 36.6585 29.1387 36.2959 28.968C35.9439 28.7867 35.6505 28.552 35.4159 28.264C35.1919 27.976 35.0265 27.6453 34.9199 27.272C34.8132 26.8987 34.7599 26.5147 34.7599 26.12V21.32H36.6799V25.576C36.6799 25.8 36.6959 26.0347 36.7279 26.28C36.7599 26.5253 36.8292 26.7493 36.9359 26.952C37.0425 27.144 37.1865 27.304 37.3679 27.432C37.5599 27.56 37.8105 27.624 38.1199 27.624C38.4185 27.624 38.6799 27.5653 38.9039 27.448C39.1385 27.32 39.3252 27.16 39.4639 26.968C39.6132 26.776 39.7252 26.5573 39.7999 26.312C39.8745 26.056 39.9119 25.8 39.9119 25.544V21.32H41.8319V29ZM46.0884 16.904V22.296H46.1364C46.2324 22.168 46.355 22.0347 46.5044 21.896C46.6537 21.7573 46.8297 21.6293 47.0324 21.512C47.2457 21.3947 47.491 21.2987 47.7684 21.224C48.0457 21.1387 48.3604 21.096 48.7124 21.096C49.2564 21.096 49.7577 21.2027 50.2164 21.416C50.675 21.6187 51.0697 21.9013 51.4004 22.264C51.731 22.6267 51.987 23.0533 52.1684 23.544C52.3497 24.0347 52.4404 24.5627 52.4404 25.128C52.4404 25.6933 52.3497 26.2267 52.1684 26.728C51.9977 27.2187 51.747 27.6507 51.4164 28.024C51.0964 28.3867 50.7017 28.68 50.2324 28.904C49.7737 29.1173 49.251 29.224 48.6644 29.224C48.1204 29.224 47.6084 29.1067 47.1284 28.872C46.659 28.6373 46.291 28.296 46.0244 27.848H45.9924V29H44.1684V16.904H46.0884ZM50.4884 25.128C50.4884 24.8293 50.4404 24.536 50.3444 24.248C50.259 23.9493 50.1257 23.6827 49.9444 23.448C49.763 23.2133 49.5337 23.0267 49.2564 22.888C48.979 22.7387 48.6537 22.664 48.2804 22.664C47.9284 22.664 47.6137 22.7387 47.3364 22.888C47.059 23.0373 46.819 23.2293 46.6164 23.464C46.4244 23.6987 46.275 23.9653 46.1684 24.264C46.0724 24.5627 46.0244 24.8613 46.0244 25.16C46.0244 25.4587 46.0724 25.7573 46.1684 26.056C46.275 26.344 46.4244 26.6053 46.6164 26.84C46.819 27.0747 47.059 27.2667 47.3364 27.416C47.6137 27.5547 47.9284 27.624 48.2804 27.624C48.6537 27.624 48.979 27.5493 49.2564 27.4C49.5337 27.2507 49.763 27.0587 49.9444 26.824C50.1257 26.5893 50.259 26.3227 50.3444 26.024C50.4404 25.7253 50.4884 25.4267 50.4884 25.128ZM58.5006 23.368C58.33 23.144 58.0953 22.952 57.7966 22.792C57.498 22.6213 57.1726 22.536 56.8206 22.536C56.5113 22.536 56.2286 22.6 55.9726 22.728C55.7166 22.856 55.5886 23.0693 55.5886 23.368C55.5886 23.6667 55.7273 23.88 56.0046 24.008C56.2926 24.1253 56.7086 24.248 57.2526 24.376C57.5406 24.44 57.8286 24.5253 58.1166 24.632C58.4153 24.7387 58.682 24.8827 58.9166 25.064C59.162 25.2347 59.3593 25.4533 59.5086 25.72C59.658 25.976 59.7326 26.2907 59.7326 26.664C59.7326 27.1333 59.642 27.5333 59.4606 27.864C59.29 28.184 59.0553 28.4453 58.7566 28.648C58.4686 28.8507 58.1273 28.9947 57.7326 29.08C57.3486 29.176 56.9486 29.224 56.5326 29.224C55.9353 29.224 55.354 29.1173 54.7886 28.904C54.2233 28.68 53.754 28.3653 53.3806 27.96L54.6446 26.776C54.858 27.0533 55.1353 27.2827 55.4766 27.464C55.818 27.6453 56.1966 27.736 56.6126 27.736C56.7513 27.736 56.89 27.72 57.0286 27.688C57.178 27.656 57.3113 27.608 57.4286 27.544C57.5566 27.4693 57.658 27.3733 57.7326 27.256C57.8073 27.1387 57.8446 26.9947 57.8446 26.824C57.8446 26.504 57.6953 26.2747 57.3966 26.136C57.1086 25.9973 56.6713 25.8587 56.0846 25.72C55.7966 25.656 55.514 25.576 55.2366 25.48C54.97 25.3733 54.73 25.24 54.5166 25.08C54.3033 24.9093 54.1326 24.7013 54.0046 24.456C53.8766 24.2107 53.8126 23.9067 53.8126 23.544C53.8126 23.1173 53.898 22.7493 54.0686 22.44C54.25 22.1307 54.4846 21.88 54.7726 21.688C55.0606 21.4853 55.386 21.336 55.7486 21.24C56.1113 21.144 56.4846 21.096 56.8686 21.096C57.4233 21.096 57.962 21.192 58.4846 21.384C59.018 21.576 59.4393 21.8693 59.7486 22.264L58.5006 23.368ZM66.65 23.448C66.5007 23.2347 66.2767 23.0587 65.978 22.92C65.6793 22.7707 65.3753 22.696 65.066 22.696C64.714 22.696 64.4047 22.7707 64.138 22.92C63.8713 23.0587 63.6473 23.2453 63.466 23.48C63.2953 23.7147 63.1673 23.9813 63.082 24.28C62.9967 24.568 62.954 24.8613 62.954 25.16C62.954 25.4587 62.9967 25.7573 63.082 26.056C63.178 26.344 63.3167 26.6053 63.498 26.84C63.6793 27.0747 63.9033 27.2667 64.17 27.416C64.4473 27.5547 64.7673 27.624 65.13 27.624C65.4287 27.624 65.7273 27.5653 66.026 27.448C66.3247 27.3307 66.5647 27.16 66.746 26.936L67.946 28.152C67.626 28.4933 67.2153 28.76 66.714 28.952C66.2233 29.1333 65.69 29.224 65.114 29.224C64.5487 29.224 64.01 29.1333 63.498 28.952C62.9967 28.7707 62.554 28.504 62.17 28.152C61.7967 27.8 61.498 27.3733 61.274 26.872C61.0607 26.3707 60.954 25.8 60.954 25.16C60.954 24.5413 61.0607 23.9813 61.274 23.48C61.498 22.9787 61.7967 22.552 62.17 22.2C62.5433 21.848 62.9753 21.576 63.466 21.384C63.9673 21.192 64.5007 21.096 65.066 21.096C65.6313 21.096 66.1753 21.2027 66.698 21.416C67.2313 21.6293 67.6527 21.9227 67.962 22.296L66.65 23.448ZM69.2145 21.32H71.0545V22.6H71.0865C71.2998 22.152 71.5985 21.7893 71.9825 21.512C72.3665 21.2347 72.8145 21.096 73.3265 21.096C73.4012 21.096 73.4812 21.1013 73.5665 21.112C73.6518 21.112 73.7265 21.1227 73.7905 21.144V22.904C73.6625 22.872 73.5505 22.8507 73.4545 22.84C73.3692 22.8293 73.2838 22.824 73.1985 22.824C72.7612 22.824 72.4092 22.904 72.1425 23.064C71.8758 23.224 71.6678 23.416 71.5185 23.64C71.3692 23.864 71.2678 24.0933 71.2145 24.328C71.1612 24.5627 71.1345 24.7493 71.1345 24.888V29H69.2145V21.32ZM75.0746 21.32H76.9946V29H75.0746V21.32ZM74.8026 18.712C74.8026 18.4027 74.9146 18.136 75.1386 17.912C75.3733 17.6773 75.6666 17.56 76.0186 17.56C76.3706 17.56 76.664 17.672 76.8986 17.896C77.144 18.1093 77.2666 18.3813 77.2666 18.712C77.2666 19.0427 77.144 19.32 76.8986 19.544C76.664 19.7573 76.3706 19.864 76.0186 19.864C75.6666 19.864 75.3733 19.752 75.1386 19.528C74.9146 19.2933 74.8026 19.0213 74.8026 18.712ZM81.2759 16.904V22.296H81.3239C81.4199 22.168 81.5425 22.0347 81.6919 21.896C81.8412 21.7573 82.0172 21.6293 82.2199 21.512C82.4332 21.3947 82.6785 21.2987 82.9559 21.224C83.2332 21.1387 83.5479 21.096 83.8999 21.096C84.4439 21.096 84.9452 21.2027 85.4039 21.416C85.8625 21.6187 86.2572 21.9013 86.5879 22.264C86.9185 22.6267 87.1745 23.0533 87.3559 23.544C87.5372 24.0347 87.6279 24.5627 87.6279 25.128C87.6279 25.6933 87.5372 26.2267 87.3559 26.728C87.1852 27.2187 86.9345 27.6507 86.6039 28.024C86.2839 28.3867 85.8892 28.68 85.4199 28.904C84.9612 29.1173 84.4385 29.224 83.8519 29.224C83.3079 29.224 82.7959 29.1067 82.3159 28.872C81.8465 28.6373 81.4785 28.296 81.2119 27.848H81.1799V29H79.3559V16.904H81.2759ZM85.6759 25.128C85.6759 24.8293 85.6279 24.536 85.5319 24.248C85.4465 23.9493 85.3132 23.6827 85.1319 23.448C84.9505 23.2133 84.7212 23.0267 84.4439 22.888C84.1665 22.7387 83.8412 22.664 83.4679 22.664C83.1159 22.664 82.8012 22.7387 82.5239 22.888C82.2465 23.0373 82.0065 23.2293 81.8039 23.464C81.6119 23.6987 81.4625 23.9653 81.3559 24.264C81.2599 24.5627 81.2119 24.8613 81.2119 25.16C81.2119 25.4587 81.2599 25.7573 81.3559 26.056C81.4625 26.344 81.6119 26.6053 81.8039 26.84C82.0065 27.0747 82.2465 27.2667 82.5239 27.416C82.8012 27.5547 83.1159 27.624 83.4679 27.624C83.8412 27.624 84.1665 27.5493 84.4439 27.4C84.7212 27.2507 84.9505 27.0587 85.1319 26.824C85.3132 26.5893 85.4465 26.3227 85.5319 26.024C85.6279 25.7253 85.6759 25.4267 85.6759 25.128ZM94.8881 24.392C94.8881 24.1467 94.8508 23.912 94.7761 23.688C94.7121 23.464 94.6055 23.2667 94.4561 23.096C94.3068 22.9253 94.1148 22.792 93.8801 22.696C93.6561 22.5893 93.3895 22.536 93.0801 22.536C92.5041 22.536 92.0135 22.712 91.6081 23.064C91.2135 23.4053 90.9948 23.848 90.9521 24.392H94.8881ZM96.8081 25.256C96.8081 25.3413 96.8081 25.4267 96.8081 25.512C96.8081 25.5973 96.8028 25.6827 96.7921 25.768H90.9521C90.9735 26.0453 91.0428 26.3013 91.1601 26.536C91.2881 26.76 91.4535 26.9573 91.6561 27.128C91.8588 27.288 92.0881 27.416 92.3441 27.512C92.6001 27.608 92.8668 27.656 93.1441 27.656C93.6241 27.656 94.0295 27.5707 94.3601 27.4C94.6908 27.2187 94.9628 26.9733 95.1761 26.664L96.4561 27.688C95.6988 28.712 94.6001 29.224 93.1601 29.224C92.5628 29.224 92.0135 29.1333 91.5121 28.952C91.0108 28.76 90.5735 28.4933 90.2001 28.152C89.8375 27.8107 89.5495 27.3947 89.3361 26.904C89.1335 26.4027 89.0321 25.8373 89.0321 25.208C89.0321 24.5893 89.1335 24.0293 89.3361 23.528C89.5495 23.016 89.8375 22.584 90.2001 22.232C90.5628 21.8693 90.9895 21.592 91.4801 21.4C91.9815 21.1973 92.5201 21.096 93.0961 21.096C93.6295 21.096 94.1201 21.1867 94.5681 21.368C95.0268 21.5387 95.4215 21.8 95.7521 22.152C96.0828 22.4933 96.3388 22.9253 96.5201 23.448C96.7121 23.96 96.8081 24.5627 96.8081 25.256Z" fill="white"/>
</svg>
