<svg width="165" height="32" viewBox="0 0 165 32" fill="none" xmlns="http://www.w3.org/2000/svg">
<g clip-path="url(#clip0_1457_573)">
<path d="M13.8428 22.6559H9.00923V16.7679H5.23853V31.7439H9.00923V25.8303H13.8428V31.7439H17.0821V16.7679H13.8428V22.6559Z" fill="#0C2B45"/>
<path d="M97.7097 31.7439H106.694V28.5695H100.949V25.8047H106.694V22.6303H100.949V19.9167H106.694V16.7423H97.7097V31.7439Z" fill="#0C2B45"/>
<path d="M43.7048 26.6495C43.7048 27.8783 42.7431 28.8511 41.5031 28.8511C40.2884 28.8511 39.3773 27.9039 39.3773 26.6495V16.7679H36.1381V26.4703C36.1381 29.8495 38.2132 31.9487 41.5537 31.9487C44.8942 31.9487 46.9694 29.8495 46.9694 26.4703V16.7679H43.7301V26.6495" fill="#0C2B45"/>
<path d="M26.5981 16.5633C22.4224 16.5633 19.0566 20.0193 19.0566 24.2433C19.0566 28.4673 22.4477 31.9233 26.5981 31.9233C30.7737 31.9233 34.1648 28.4673 34.1648 24.2433C34.1648 20.0193 30.7737 16.5633 26.5981 16.5633ZM26.5981 28.6977C24.2192 28.6977 22.2706 26.7009 22.2706 24.2689C22.2706 21.8113 24.2192 19.8401 26.5981 19.8401C29.0022 19.8401 30.9508 21.8369 30.9508 24.2689C30.9255 26.7009 28.9769 28.6977 26.5981 28.6977Z" fill="#0C2B45"/>
<path d="M149.133 23.0656V26.24H153.511C152.954 27.8016 151.588 28.7232 149.841 28.7232C147.311 28.7232 145.413 26.8032 145.413 24.2432C145.413 21.7856 147.361 19.7632 149.765 19.7632C151.512 19.7632 152.777 20.5312 153.612 22.1184L153.739 22.3744L156.573 20.6336L156.446 20.4032C155.105 17.9968 152.6 16.5632 149.74 16.5632C145.438 16.5632 142.199 19.8656 142.199 24.2432C142.199 28.6208 145.489 31.9232 149.867 31.9232C153.992 31.9232 157.104 28.6976 157.104 24.448V23.0656H149.133Z" fill="#0C2B45"/>
<path d="M136.859 25.8046L131.216 16.7678H127.724V31.7438H130.963V22.3742L136.809 31.7438H140.124V16.7678H136.885V25.8046" fill="#0C2B45"/>
<path d="M121.75 16.7678H124.99V31.7438H121.75V16.7678Z" fill="#0C2B45"/>
<path d="M86.1691 31.7439H95.153V28.5695H89.4083V25.8047H95.153V22.6303H89.4083V19.9167H95.153V16.7423H86.1691V31.7439Z" fill="#0C2B45"/>
<path d="M55.2193 22.6304L54.9157 22.528C53.4226 22.0416 52.5115 21.6832 52.5115 20.8896C52.5115 20.0704 53.1695 19.5584 54.2071 19.5584C55.2193 19.5584 55.9785 19.968 56.5353 20.8128L56.6871 21.0432L59.3949 18.9696L59.1925 18.7392C58.1549 17.664 56.763 16.5632 54.2071 16.5632C51.3474 16.5632 49.1963 18.4576 49.1963 20.992C49.1963 24.0384 51.6511 24.8064 53.4226 25.3696L53.6503 25.4464C55.0169 25.856 56.181 26.2144 56.181 27.1616C56.181 27.9552 55.5989 28.8 54.3083 28.8C53.1442 28.8 52.1066 28.1344 51.4486 27.008L51.2968 26.7264L48.3612 29.0816L48.5384 29.2864C50.1074 31.0784 52.0054 31.9744 54.3336 31.9744C56.8643 31.9744 59.5468 30.3104 59.5468 27.1872C59.5215 24.0384 56.8137 23.168 55.2193 22.6304Z" fill="#0C2B45"/>
<path d="M114.412 16.7679H109.249V31.7439H112.489V27.6223H114.387C117.423 27.6223 119.802 25.2415 119.802 22.1951C119.827 19.1487 117.449 16.7679 114.412 16.7679ZM112.489 19.8655H114.209C115.551 19.8655 116.538 20.8383 116.538 22.1951C116.538 23.5519 115.551 24.5247 114.209 24.5247H112.489V19.8655Z" fill="#0C2B45"/>
<path d="M61.5208 31.744H70.5046V28.5696H64.7853V25.8048H70.53V22.6304H64.7853V19.9168H70.53V16.7424H61.5461V31.744" fill="#0C2B45"/>
<path d="M84.5241 16.7678H80.5257L76.2994 22.0926V16.7678H73.0602V31.7438H76.2994V26.547L77.4636 25.0622L81.0824 31.7438H84.7772L79.7665 22.6814L84.5241 16.7678Z" fill="#0C2B45"/>
<path d="M112.261 7.6032C112.261 3.12319 109.123 0.127991 104.466 0.127991H100.316V15.104H104.593C109.021 15.0784 112.261 11.9296 112.261 7.6032ZM104.137 3.19999C107.225 3.19999 108.996 4.81279 108.996 7.6032C108.996 10.24 107.098 12.0064 104.238 12.0064H103.53V3.22559H104.137V3.19999Z" fill="#0C2B45"/>
<path d="M74.1235 15.2832C78.2991 15.2832 81.6902 11.8272 81.6902 7.60316C81.6902 3.35356 78.2991 -0.0768433 74.1235 -0.0768433C69.9478 -0.0768433 66.582 3.37916 66.582 7.60316C66.5567 11.8272 69.9478 15.2832 74.1235 15.2832ZM74.1235 3.14875C76.5276 3.14875 78.4762 5.14555 78.4762 7.57755C78.4762 10.0096 76.5276 12.0063 74.1235 12.0063C71.7446 12.0063 69.796 10.0096 69.796 7.57755C69.796 5.14555 71.7193 3.14875 74.1235 3.14875Z" fill="#0C2B45"/>
<path d="M90.6994 -0.102417C86.5238 -0.102417 83.158 3.35358 83.158 7.57758C83.158 11.8016 86.5491 15.2576 90.6994 15.2576C94.875 15.2576 98.2661 11.8016 98.2661 7.57758C98.2661 3.35358 94.875 -0.102417 90.6994 -0.102417ZM90.6994 12.032C88.3205 12.032 86.3719 10.0352 86.3719 7.60318C86.3719 5.17118 88.3205 3.17438 90.6994 3.17438C93.1035 3.17438 95.0521 5.17118 95.0521 7.60318C95.0521 10.0352 93.1035 12.032 90.6994 12.032Z" fill="#0C2B45"/>
<path d="M57.8513 15.2832C61.9763 15.2832 65.089 12.0576 65.089 7.80798V6.39998H57.1427V9.57438H61.5208C60.9387 11.136 59.5974 12.0576 57.8513 12.0576C55.3206 12.0576 53.4226 10.1376 53.4226 7.57758C53.4226 5.11998 55.3712 3.09758 57.7754 3.09758C59.5215 3.09758 60.7869 3.86558 61.622 5.45278L61.7485 5.70878L64.5829 3.96798L64.4563 3.73758C63.1151 1.33118 60.6097 -0.102417 57.7501 -0.102417C53.4479 -0.102417 50.2086 3.19998 50.2086 7.57758C50.1833 11.9808 53.4732 15.2832 57.8513 15.2832Z" fill="#0C2B45"/>
</g>
<defs>
<clipPath id="clip0_1457_573">
<rect width="165" height="32" fill="white"/>
</clipPath>
</defs>
</svg>
