<svg width="70" height="28" viewBox="0 0 70 28" fill="none" xmlns="http://www.w3.org/2000/svg">
<g clip-path="url(#clip0_1457_570)">
<path d="M5.90378 10.3097C5.90378 13.3138 6.48837 14.7301 8.27603 14.7301C10.1329 14.7301 10.7514 13.2472 10.7514 10.0066C10.7514 7.04072 10.1329 5.5932 8.35087 5.5932C6.59004 5.58612 5.90378 7.06905 5.90378 10.3097ZM2.0192 24.0682C2.0192 25.9987 3.97914 27.2748 7.72533 27.2748C11.713 27.2748 13.7421 26.1417 13.7421 24.309C13.7421 23.1022 12.8144 22.4465 11.0267 22.2751C8.06987 21.9989 5.46039 22.3785 3.49763 21.7921C2.5346 22.3091 2.0192 23.1362 2.0192 24.0682ZM15.2205 10.1029C15.2205 12.9356 12.9175 14.8958 8.44266 15.4128C5.86424 15.689 4.31662 15.9638 4.31662 17.1705C4.31662 18.4113 6.5858 18.2045 10.3334 18.3036C14.4284 18.407 16.5563 19.5443 16.5563 22.4762C16.5563 25.8216 13.3594 28 7.6872 28C2.73653 28 0.090332 26.442 0.090332 24.241C0.090332 23.4818 0.433462 22.8246 1.08725 22.2751C1.57664 21.8912 2.138 21.6099 2.73794 21.4479C1.74526 20.8615 1.26375 19.9707 1.26375 18.8277C1.26375 16.5516 3.05142 15.2754 6.62957 15.0686C3.19121 14.4483 1.40496 12.7926 1.40496 10.3097C1.40496 7.51662 4.01727 5.17254 8.1433 4.96434C8.4483 1.8271 10.0298 0 11.7836 0C12.9132 0 13.6743 0.793161 13.6743 1.79311C13.6743 2.96586 12.8836 3.79301 11.8175 3.79301C11.1637 3.79301 10.7175 3.37943 10.2021 3.37943C9.34214 3.37943 8.93123 3.86241 8.82674 4.99975C12.8144 5.20654 15.2205 7.30983 15.2205 10.0986M21.2754 13.0305C21.2754 17.9963 22.4785 20.4437 25.0569 20.4437C27.6354 20.4437 28.8695 17.9963 28.8695 13.0305C28.8695 8.06475 27.5986 5.58187 25.0569 5.58187C22.4842 5.58612 21.2754 8.07325 21.2754 13.0305ZM33.5476 13.0305C33.5476 17.7201 30.0754 21.1335 25.0555 21.1335C20.0357 21.1335 16.6044 17.7583 16.6044 13.0305C16.6044 8.34094 20.0413 4.92751 25.0612 4.92751C30.081 4.92751 33.5533 8.34377 33.5533 13.0305M39.731 13.0305C39.731 17.9963 40.9341 20.4437 43.5125 20.4437C46.091 20.4437 47.3251 17.9963 47.3251 13.0305C47.3251 8.06475 46.0542 5.58187 43.5125 5.58187C40.9341 5.58612 39.731 8.07325 39.731 13.0305ZM52.0032 13.0305C52.0032 17.7201 48.531 21.1335 43.5125 21.1335C38.4941 21.1335 35.0557 17.7583 35.0557 13.0305C35.0557 8.34094 38.4927 4.92751 43.5125 4.92751C48.5324 4.92751 52.0047 8.34377 52.0047 13.0305M61.4146 20.2752C63.7516 20.2752 65.5392 17.8957 65.5392 13.5163C65.5392 9.44711 63.6146 7.03364 61.4824 7.03364C60.4516 7.03364 59.5563 7.48262 58.6286 8.34377V15.757C58.6286 18.7228 59.3855 20.2738 61.4132 20.2738M58.6286 24.2396C58.6286 25.6559 58.8701 26.4123 59.7583 26.687C60.4798 26.9292 60.9952 26.8287 60.9952 27.2734C60.9952 27.5142 60.823 27.687 60.5137 27.687H52.5794C52.5221 27.6928 52.4643 27.6864 52.4098 27.6681C52.3552 27.6499 52.3051 27.6203 52.2628 27.5812C52.2205 27.5421 52.187 27.4944 52.1644 27.4414C52.1418 27.3883 52.1306 27.3311 52.1317 27.2734C52.1317 26.8598 52.6132 26.9632 53.1978 26.7224C54.1256 26.3429 54.367 25.7225 54.367 24.2396V10.2417C54.367 8.75876 54.0578 8.20638 52.9917 7.75881C52.4424 7.51662 51.9948 7.55203 51.9948 7.17244C51.9948 6.58607 54.127 6.72487 58.6314 5.03516V7.37923C60.6592 5.75892 62.3437 4.93035 64.1385 4.93035C67.4384 4.93035 69.9138 7.68941 69.9138 11.896C69.9138 17.2399 66.3046 20.9989 61.0785 20.9989C60.253 20.9935 59.4319 20.8773 58.6371 20.6533V24.2396H58.6286Z" fill="#0C2B45"/>
</g>
<defs>
<clipPath id="clip0_1457_570">
<rect width="70" height="28" fill="white"/>
</clipPath>
</defs>
</svg>
