<svg width="88" height="32" viewBox="0 0 88 32" fill="none" xmlns="http://www.w3.org/2000/svg">
<g clip-path="url(#clip0_1457_596)">
<path fill-rule="evenodd" clip-rule="evenodd" d="M74.6826 17.1436C77.9924 17.1288 81.3071 17.1386 84.612 17.1436C84.612 18.0471 84.6071 18.9606 84.612 19.8691C82.3142 19.8938 80.0066 19.8691 77.704 19.8839L77.6648 19.9036C77.6795 20.8714 77.6697 21.8391 77.6648 22.8168L77.704 22.8464C79.6008 22.8464 81.5075 22.8513 83.4093 22.8464C83.4288 23.7549 83.4093 24.6782 83.4142 25.5966C81.5026 25.6213 79.5813 25.5916 77.6697 25.6114C77.6648 26.668 77.6746 27.7197 77.6648 28.7813C78.0706 28.8257 78.496 28.7862 78.9164 28.801H84.5093C84.5337 28.801 84.5875 28.806 84.612 28.8158C84.6071 29.7194 84.612 30.6328 84.6071 31.5364C81.3071 31.5512 77.9973 31.5413 74.6924 31.5413C74.6924 26.747 74.6973 21.9478 74.6875 17.1534L74.6826 17.1436Z" fill="#0C2B45"/>
<path fill-rule="evenodd" clip-rule="evenodd" d="M33.5868 17.1382C36.8868 17.1382 40.1819 17.1432 43.477 17.1382L43.4966 17.1827C43.4966 18.0813 43.5015 18.9799 43.4966 19.8736C41.1841 19.8786 38.8766 19.8736 36.5641 19.8785C36.5592 20.8661 36.5592 21.8536 36.5641 22.8411C38.4757 22.846 40.3775 22.8411 42.289 22.8411L42.3086 22.8904C42.3037 23.7891 42.3135 24.6926 42.3037 25.5962C40.3921 25.6011 38.4904 25.5962 36.5788 25.5962C36.5397 26.6528 36.5641 27.7243 36.5641 28.7908C38.8766 28.7908 41.1841 28.7858 43.4966 28.7908C43.5015 29.6054 43.4966 30.4152 43.4966 31.2249C43.4917 31.3286 43.5161 31.4373 43.477 31.5311C40.1868 31.5163 36.8917 31.5261 33.6064 31.5261L33.577 31.4866C33.5819 27.8329 33.577 24.1692 33.577 20.5155C33.5917 19.3848 33.5624 18.2541 33.5917 17.1284L33.5868 17.1382Z" fill="#0C2B45"/>
<path fill-rule="evenodd" clip-rule="evenodd" d="M27.8281 17.1379C28.8303 17.1379 29.8326 17.133 30.8397 17.1428C30.8348 21.9372 30.8348 26.7364 30.8348 31.5307H27.8379C27.8232 26.7364 27.833 21.9322 27.833 17.1379H27.8281Z" fill="#0C2B45"/>
<path fill-rule="evenodd" clip-rule="evenodd" d="M66.2151 17.0444C67.7649 16.7876 69.4222 16.9752 70.8106 17.7307C71.3289 18.0072 71.8129 18.3479 72.2529 18.7379C72.2675 18.8219 72.1893 18.8811 72.1502 18.9453C71.72 19.5625 71.2849 20.1698 70.8546 20.7771C70.7715 20.8759 70.7275 21.0141 70.6151 21.0832C70.048 20.5302 69.3586 20.1007 68.596 19.9032C67.0853 19.5032 65.3595 20.0464 64.3671 21.2758C63.7022 22.0856 63.3502 23.1274 63.3258 24.1741C63.3013 25.0481 63.4529 25.9319 63.844 26.7071C64.1666 27.344 64.6653 27.8871 65.2715 28.2574C66.0391 28.7314 66.968 28.9191 67.8626 28.8648C69.0262 28.7709 70.1115 28.1587 70.9035 27.3193C71.3142 27.9069 71.7493 28.4796 72.1649 29.0623C72.2675 29.2203 72.4142 29.3634 72.4826 29.5363C71.6173 30.4151 70.5466 31.0965 69.3635 31.4471C67.7258 31.9359 65.9169 31.7631 64.372 31.0323C62.7342 30.267 61.3946 28.8697 60.6906 27.1909C59.8595 25.2357 59.928 22.92 60.8813 21.0289C61.8982 18.9453 63.9369 17.4147 66.2102 17.0394L66.2151 17.0444Z" fill="#0C2B45"/>
<path fill-rule="evenodd" clip-rule="evenodd" d="M18.2752 17.3751C19.6539 16.8764 21.1841 16.8122 22.6068 17.1529C23.7068 17.4146 24.6944 17.9972 25.545 18.728L25.5695 18.7774C25.017 19.5427 24.489 20.3179 23.9366 21.0782C23.5552 20.7721 23.169 20.4413 22.7241 20.224C21.7072 19.6859 20.4655 19.6414 19.3899 20.0364C18.4561 20.382 17.6641 21.093 17.1948 21.9769C16.657 22.9594 16.5201 24.1247 16.6864 25.2257C16.8184 26.1787 17.2339 27.1119 17.9428 27.7735C18.8081 28.5931 20.0401 28.9486 21.1988 28.8647C22.3428 28.7511 23.4135 28.1586 24.1908 27.3242C24.6944 27.9907 25.1735 28.6622 25.6624 29.3387C25.7064 29.4029 25.7748 29.4621 25.7748 29.5461C24.8606 30.4694 23.7166 31.1754 22.4601 31.5013C20.1819 32.1086 17.6397 31.4421 15.8944 29.8621C14.6135 28.7215 13.7335 27.1119 13.4939 25.3986C13.2641 23.8581 13.5232 22.2484 14.2566 20.8709C15.1024 19.2563 16.5592 17.9775 18.2704 17.3702L18.2752 17.3751Z" fill="#0C2B45"/>
<path fill-rule="evenodd" clip-rule="evenodd" d="M5.23111 17.4635C6.20888 16.9895 7.31866 16.8661 8.38444 16.9747C9.80222 17.108 11.1516 17.7499 12.1733 18.7424C12.1733 18.7621 12.1684 18.8065 12.1684 18.8263C11.6844 19.5175 11.1907 20.2039 10.7164 20.8951H10.6676C9.81688 20.0804 8.67288 19.5669 7.49466 19.5719C6.99111 19.5768 6.45333 19.7299 6.116 20.1347C5.85688 20.4359 5.77866 20.8852 5.92044 21.2654C6.06711 21.6654 6.39466 21.9517 6.732 22.1739C7.31377 22.564 7.97866 22.8158 8.61911 23.0972C9.55777 23.5219 10.4769 24.0354 11.176 24.8106C11.7676 25.4574 12.1196 26.3116 12.1538 27.1904C12.2173 28.2866 11.7871 29.3876 11.044 30.1924C10.2618 31.0516 9.14711 31.5503 8.00311 31.6786C6.11111 31.886 4.06755 31.3528 2.68888 29.9801C2.61066 29.8913 2.49333 29.8221 2.45911 29.6987C2.91377 28.9679 3.36844 28.2322 3.82311 27.5064C3.84266 27.5114 3.88177 27.5311 3.90622 27.5361C4.69822 28.2174 5.62222 28.8198 6.67333 28.9679C7.27466 29.0469 7.95422 29.0519 8.47733 28.6816C8.98577 28.331 9.12266 27.5805 8.83911 27.0423C8.63377 26.6522 8.27199 26.3708 7.90533 26.1338C7.11333 25.6351 6.19911 25.3784 5.39244 24.9044C4.53688 24.4254 3.73511 23.7589 3.29511 22.8504C2.76711 21.774 2.79155 20.4507 3.31466 19.3744C3.71066 18.5399 4.40488 17.8635 5.23111 17.4635Z" fill="#0C2B45"/>
<path fill-rule="evenodd" clip-rule="evenodd" d="M45.9799 16.6945L46.019 16.6747C48.7226 19.1435 51.4261 21.6073 54.1346 24.0761C54.4573 24.3575 54.7652 24.6784 55.0977 24.9401C55.083 22.3578 55.0977 19.7706 55.0928 17.1882L55.1172 17.1389C56.0999 17.1389 57.0924 17.1389 58.075 17.1438C58.0555 22.0961 58.031 27.0485 58.0066 32.0008H57.987C57.987 32.0008 57.943 31.9514 57.9235 31.9316L49.1039 23.6416C49.0355 23.5774 48.9719 23.4885 48.8741 23.4539C48.8888 26.1449 48.9328 28.8408 48.9377 31.5317C47.955 31.5268 46.9675 31.5366 45.9848 31.5317C45.9701 26.5794 45.9897 21.6369 45.9799 16.6945Z" fill="#0C2B45"/>
<path fill-rule="evenodd" clip-rule="evenodd" d="M80.8969 3.29782L80.8676 3.32745C80.8725 4.82845 80.8529 6.32945 80.8725 7.82058C81.5325 7.82552 82.1925 7.82552 82.8525 7.82058C83.3658 7.82552 83.8743 7.59839 84.2116 7.21327C84.6956 6.67014 84.8863 5.90977 84.8472 5.19383C84.8178 4.61614 84.5636 4.02857 84.0894 3.68295C83.7129 3.40645 83.2436 3.29288 82.7889 3.29782H80.8969ZM77.8854 0.424192C79.6258 0.419254 81.3663 0.424192 83.1116 0.424192C84.2165 0.424192 85.3409 0.774755 86.1916 1.50551C87.1205 2.28563 87.6729 3.4657 87.7854 4.67539C87.9418 6.13689 87.58 7.68727 86.6365 8.81796C86.2405 9.30677 85.7272 9.68202 85.204 9.99802C85.2872 10.2202 85.4436 10.4078 85.5512 10.6201C86.3187 11.9039 87.0863 13.1778 87.8538 14.4615C87.9027 14.5751 88.0249 14.6738 88.0005 14.8121C86.964 14.8121 85.9227 14.8318 84.8912 14.7973C84.1285 13.3654 83.3609 11.9434 82.5983 10.5165C82.0312 10.472 81.4494 10.4967 80.8774 10.5016C80.8627 11.9335 80.8627 13.3703 80.8725 14.7973C79.88 14.8269 78.8876 14.8022 77.8903 14.8121C77.8854 10.0178 77.8903 5.21851 77.8903 0.424192H77.8854Z" fill="#0C2B45"/>
<path fill-rule="evenodd" clip-rule="evenodd" d="M53.5088 0.424737C54.4915 0.4198 55.4693 0.429675 56.4568 0.4198L56.4862 0.464237C56.4862 4.33031 56.4813 8.20132 56.4911 12.0773H61.6977C61.7417 12.9808 61.7124 13.9041 61.7173 14.8176H53.5088C53.504 10.0233 53.4942 5.224 53.5088 0.429675V0.424737Z" fill="#0C2B45"/>
<path fill-rule="evenodd" clip-rule="evenodd" d="M39.673 0.424374C40.6703 0.409561 41.6725 0.429311 42.6748 0.419436L42.7139 0.453999V8.72433C42.7139 9.10945 42.6943 9.49458 42.7725 9.86983C42.8948 10.5413 43.2565 11.1832 43.8139 11.5831C44.5179 12.1016 45.4712 12.2053 46.2828 11.9288C46.8548 11.7362 47.3485 11.3313 47.6468 10.8129C47.9303 10.3389 48.0525 9.78095 48.0525 9.23783V0.434249C49.0499 0.409561 50.0521 0.434249 51.0494 0.419436L51.0934 0.453999V8.53176C51.0885 9.10945 51.1179 9.69702 51.0152 10.2698C50.7952 11.6819 50.013 12.9903 48.8836 13.8495C46.9868 15.3159 44.1805 15.4097 42.1859 14.0717C40.6508 13.0792 39.6779 11.2721 39.673 9.43039C39.6681 6.42839 39.6681 3.42638 39.673 0.429311V0.424374Z" fill="#0C2B45"/>
<path fill-rule="evenodd" clip-rule="evenodd" d="M30.888 3.2977C30.888 4.88264 30.8831 6.46758 30.888 8.04758C31.5529 8.0624 32.2227 8.04758 32.8924 8.04758C33.3618 8.04758 33.8213 7.83527 34.144 7.48965C34.6084 6.99589 34.8382 6.30958 34.8675 5.63808C34.8969 5.0357 34.7404 4.39383 34.3298 3.93464C33.9729 3.52483 33.4302 3.2977 32.8875 3.2977H30.888ZM27.9058 1.7967C27.9204 1.33751 27.8813 0.873383 27.9253 0.424069C29.6658 0.424069 31.4062 0.419132 33.1418 0.424069C34.2711 0.424069 35.4102 0.824008 36.2511 1.5992C37.0969 2.35464 37.6151 3.43101 37.7764 4.55676C37.9622 5.8652 37.7471 7.24277 37.0773 8.39321C36.6031 9.22765 35.8698 9.92384 34.9947 10.3238C34.3787 10.6052 33.6942 10.7385 33.0147 10.7287C32.3058 10.7336 31.592 10.7089 30.8831 10.7336C30.888 12.1013 30.8978 13.4591 30.8831 14.8169C29.9004 14.8169 28.9129 14.8218 27.9302 14.8169L27.9009 14.7922C27.9155 10.4571 27.9009 6.13183 27.9058 1.80163V1.7967Z" fill="#0C2B45"/>
<path fill-rule="evenodd" clip-rule="evenodd" d="M3.00178 3.29399L2.98222 3.33349C2.97733 4.80981 2.98222 6.28119 2.98222 7.76244C2.98711 7.85625 2.96267 7.96982 3.00178 8.06363C3.68622 8.04388 4.37556 8.06363 5.06 8.04882C5.544 8.02907 6.00356 7.77725 6.31645 7.40694C6.74178 6.90825 6.94711 6.23181 6.97156 5.58006C6.99111 4.98262 6.82 4.35556 6.40445 3.91118C6.05733 3.52112 5.53422 3.30387 5.00622 3.29399C4.34133 3.28906 3.66667 3.29893 3.00178 3.28906V3.29399ZM0 0.435176C1.672 0.410489 3.33911 0.435176 5.016 0.430239C5.588 0.415426 6.16489 0.479614 6.71245 0.662302C7.64133 0.958552 8.47245 1.56587 9.02489 2.36574C9.74356 3.38287 10.0076 4.66662 9.91956 5.901C9.83645 7.22919 9.30356 8.54257 8.34533 9.46588C7.54356 10.246 6.44845 10.7101 5.33378 10.7249C4.55156 10.7299 3.77422 10.7299 2.992 10.7249C2.97244 12.0926 2.992 13.4554 2.98711 14.8231C1.98978 14.828 1.00222 14.8231 0.00488889 14.8231V0.435176H0Z" fill="#0C2B45"/>
<path fill-rule="evenodd" clip-rule="evenodd" d="M17.7514 3.25385C16.6221 3.49579 15.6248 4.24629 15.0332 5.24861C14.5003 6.12748 14.2754 7.19399 14.4025 8.21111C14.5296 9.25786 15.0332 10.2552 15.8056 10.9662C16.4852 11.5933 17.3652 11.9932 18.2892 12.0624C19.2865 12.1463 20.3083 11.8451 21.1003 11.2329C21.951 10.5959 22.5474 9.64299 22.7723 8.59624C22.9923 7.60874 22.8603 6.54224 22.4105 5.63373C21.9608 4.71042 21.1932 3.93523 20.2594 3.51554C19.4772 3.1551 18.5825 3.06623 17.7514 3.24398V3.25385ZM17.4972 0.311098C19.0274 0.0691596 20.6359 0.335785 21.9999 1.07641C23.4714 1.86641 24.6496 3.17979 25.2901 4.73017C26.0479 6.5373 26.0528 8.64561 25.339 10.4676C24.7719 11.9142 23.7256 13.1733 22.4008 13.9732C21.0123 14.8274 19.3354 15.1533 17.7221 14.9607C16.1723 14.7879 14.6812 14.0818 13.5616 12.9709C12.3345 11.7711 11.5768 10.1121 11.4203 8.3938C11.2541 6.70517 11.6599 4.95729 12.5839 3.54023C13.6741 1.82691 15.5025 0.612286 17.4972 0.30616V0.311098Z" fill="#0C2B45"/>
<path fill-rule="evenodd" clip-rule="evenodd" d="M69.6523 6.16709C69.0803 7.55947 68.479 8.93703 67.9265 10.3343C69.095 10.3492 70.2634 10.3343 71.4368 10.3393L71.4661 10.3146C70.8696 8.93703 70.2781 7.54959 69.6963 6.16709H69.6523ZM69.667 0.0100157C69.755 -0.0344219 69.7696 0.0988909 69.8088 0.153203L73.6759 8.44328C74.6585 10.5664 75.6705 12.6797 76.6385 14.8176C75.5336 14.8176 74.4288 14.8324 73.3239 14.8127C73.0501 14.1609 72.7665 13.5042 72.4928 12.8426C72.0821 12.7982 71.6568 12.8377 71.2363 12.8229C69.7843 12.8377 68.3225 12.8031 66.8608 12.8377C66.6016 13.4894 66.3279 14.1412 66.0736 14.7979C65.6776 14.8472 65.2817 14.8028 64.8857 14.8176C64.1865 14.8028 63.4874 14.8423 62.7981 14.7979C65.0959 9.87516 67.3741 4.94259 69.667 0.0100157Z" fill="#0C2B45"/>
</g>
<defs>
<clipPath id="clip0_1457_596">
<rect width="88" height="32" fill="white"/>
</clipPath>
</defs>
</svg>
