<svg width="40" height="40" viewBox="0 0 40 40" fill="none" xmlns="http://www.w3.org/2000/svg">
<rect width="40" height="40" rx="20" fill="#F0F4FA"/>
<path d="M19.9976 10.159C23.1976 10.159 23.5816 10.171 24.8464 10.2286C25.6075 10.2376 26.3615 10.3775 27.0752 10.6422C27.5962 10.8346 28.0675 11.1413 28.4544 11.5398C28.8529 11.9267 29.1596 12.398 29.352 12.919C29.6167 13.6327 29.7566 14.3867 29.7656 15.1478C29.8232 16.415 29.8376 16.799 29.8376 19.999C29.8376 23.199 29.8256 23.583 29.768 24.8478C29.759 25.609 29.6191 26.3629 29.3544 27.0766C29.1546 27.5939 28.8489 28.0637 28.4568 28.4558C28.0647 28.8479 27.5949 29.1537 27.0776 29.3534C26.3639 29.6181 25.6099 29.758 24.8488 29.767C23.584 29.8246 23.204 29.8366 20 29.8366C16.796 29.8366 16.416 29.8246 15.1512 29.767C14.39 29.758 13.6361 29.6181 12.9224 29.3534C12.4013 29.1611 11.93 28.8544 11.5432 28.4558C11.1447 28.069 10.8379 27.5977 10.6456 27.0766C10.3809 26.3629 10.241 25.609 10.232 24.8478C10.172 23.583 10.1576 23.203 10.1576 19.999C10.1576 16.795 10.1696 16.415 10.2272 15.1502C10.2362 14.3891 10.3761 13.6351 10.6408 12.9214C10.8338 12.4001 11.1414 11.9288 11.5408 11.5422C11.9276 11.1437 12.3989 10.837 12.92 10.6446C13.6337 10.3799 14.3876 10.24 15.1488 10.231C16.4136 10.1734 16.7976 10.159 19.9976 10.159ZM19.9976 7.99902C16.7384 7.99902 16.3296 8.01262 15.0504 8.07102C14.0546 8.09212 13.0695 8.28146 12.1368 8.63102C11.3366 8.93218 10.6116 9.4039 10.012 10.0134C9.4016 10.6127 8.92905 11.3378 8.62719 12.1382C8.27762 13.0709 8.08829 14.056 8.06719 15.0518C8.01119 16.331 7.99759 16.7398 7.99759 19.999C7.99759 23.2582 8.01119 23.667 8.06959 24.9462C8.09069 25.942 8.28002 26.9271 8.62959 27.8598C8.93145 28.6602 9.404 29.3853 10.0144 29.9846C10.6137 30.595 11.3388 31.0676 12.1392 31.3694C13.0719 31.719 14.057 31.9083 15.0528 31.9294C16.3328 31.9878 16.7408 32.0014 20 32.0014C23.2592 32.0014 23.668 31.9878 24.9472 31.9294C25.943 31.9083 26.9281 31.719 27.8608 31.3694C28.6576 31.0606 29.3813 30.5889 29.9856 29.9846C30.5899 29.3803 31.0615 28.6567 31.3704 27.8598C31.72 26.9271 31.9093 25.942 31.9304 24.9462C31.9888 23.6662 32.0024 23.2582 32.0024 19.999C32.0024 16.7398 31.9888 16.331 31.9304 15.0518C31.9093 14.056 31.72 13.0709 31.3704 12.1382C31.0685 11.3378 30.596 10.6127 29.9856 10.0134C29.3863 9.40303 28.6612 8.93048 27.8608 8.62862C26.9281 8.27906 25.943 8.08972 24.9472 8.06862C23.6656 8.01262 23.2568 7.99902 19.9976 7.99902Z" fill="#00839F"/>
<path d="M19.9976 13.8389C18.7793 13.8389 17.5883 14.2001 16.5753 14.877C15.5623 15.5539 14.7727 16.5159 14.3065 17.6415C13.8403 18.7671 13.7183 20.0057 13.956 21.2006C14.1936 22.3955 14.7803 23.4932 15.6418 24.3546C16.5033 25.2161 17.6009 25.8028 18.7958 26.0405C19.9908 26.2782 21.2293 26.1562 22.3549 25.69C23.4805 25.2237 24.4426 24.4342 25.1194 23.4212C25.7963 22.4082 26.1576 21.2172 26.1576 19.9989C26.1576 18.3651 25.5086 16.7983 24.3534 15.6431C23.1981 14.4879 21.6313 13.8389 19.9976 13.8389ZM19.9976 23.9989C19.2065 23.9989 18.4331 23.7643 17.7753 23.3247C17.1175 22.8852 16.6048 22.2605 16.3021 21.5296C15.9993 20.7987 15.9201 19.9944 16.0744 19.2185C16.2288 18.4426 16.6098 17.7299 17.1692 17.1704C17.7286 16.611 18.4413 16.2301 19.2172 16.0757C19.9932 15.9214 20.7974 16.0006 21.5283 16.3033C22.2592 16.6061 22.8839 17.1188 23.3235 17.7766C23.763 18.4344 23.9976 19.2077 23.9976 19.9989C23.9976 21.0597 23.5762 22.0771 22.826 22.8273C22.0759 23.5774 21.0585 23.9989 19.9976 23.9989Z" fill="#00839F"/>
<path d="M26.4032 15.0333C27.1985 15.0333 27.8432 14.3886 27.8432 13.5933C27.8432 12.798 27.1985 12.1533 26.4032 12.1533C25.6079 12.1533 24.9632 12.798 24.9632 13.5933C24.9632 14.3886 25.6079 15.0333 26.4032 15.0333Z" fill="#00839F"/>
</svg>
