<svg width="59" height="26" viewBox="0 0 59 26" fill="none" xmlns="http://www.w3.org/2000/svg">
<path d="M1.248 5.672L3.264 5.672L3.264 15.208L8.08 15.208V17L1.248 17L1.248 5.672ZM14.4506 12.392C14.4506 12.1467 14.4133 11.912 14.3386 11.688C14.2746 11.464 14.168 11.2667 14.0186 11.096C13.8693 10.9253 13.6773 10.792 13.4426 10.696C13.2186 10.5893 12.952 10.536 12.6426 10.536C12.0666 10.536 11.576 10.712 11.1706 11.064C10.776 11.4053 10.5573 11.848 10.5146 12.392L14.4506 12.392ZM16.3706 13.256C16.3706 13.3413 16.3706 13.4267 16.3706 13.512C16.3706 13.5973 16.3653 13.6827 16.3546 13.768L10.5146 13.768C10.536 14.0453 10.6053 14.3013 10.7226 14.536C10.8506 14.76 11.016 14.9573 11.2186 15.128C11.4213 15.288 11.6506 15.416 11.9066 15.512C12.1626 15.608 12.4293 15.656 12.7066 15.656C13.1866 15.656 13.592 15.5707 13.9226 15.4C14.2533 15.2187 14.5253 14.9733 14.7386 14.664L16.0186 15.688C15.2613 16.712 14.1626 17.224 12.7226 17.224C12.1253 17.224 11.576 17.1333 11.0746 16.952C10.5733 16.76 10.136 16.4933 9.76263 16.152C9.39996 15.8107 9.11196 15.3947 8.89863 14.904C8.69596 14.4027 8.59463 13.8373 8.59463 13.208C8.59463 12.5893 8.69596 12.0293 8.89863 11.528C9.11196 11.016 9.39996 10.584 9.76263 10.232C10.1253 9.86933 10.552 9.592 11.0426 9.4C11.544 9.19733 12.0826 9.096 12.6586 9.096C13.192 9.096 13.6826 9.18667 14.1306 9.368C14.5893 9.53867 14.984 9.8 15.3146 10.152C15.6453 10.4933 15.9013 10.9253 16.0826 11.448C16.2746 11.96 16.3706 12.5627 16.3706 13.256ZM22.9044 16.024H22.8564C22.6644 16.3653 22.355 16.648 21.9284 16.872C21.5017 17.0853 21.0164 17.192 20.4724 17.192C20.163 17.192 19.8377 17.1493 19.4964 17.064C19.1657 16.9893 18.8564 16.8613 18.5684 16.68C18.291 16.488 18.0564 16.2427 17.8644 15.944C17.683 15.6347 17.5924 15.256 17.5924 14.808C17.5924 14.232 17.7524 13.7733 18.0724 13.432C18.403 13.0907 18.8244 12.8293 19.3364 12.648C19.8484 12.4667 20.4137 12.3493 21.0324 12.296C21.6617 12.232 22.275 12.2 22.8724 12.2V12.008C22.8724 11.528 22.6964 11.176 22.3444 10.952C22.003 10.7173 21.5924 10.6 21.1124 10.6C20.707 10.6 20.3177 10.6853 19.9444 10.856C19.571 11.0267 19.2617 11.2347 19.0164 11.48L18.0244 10.312C18.4617 9.90667 18.963 9.60267 19.5284 9.4C20.1044 9.19733 20.6857 9.096 21.2724 9.096C21.955 9.096 22.515 9.192 22.9524 9.384C23.4004 9.576 23.7524 9.82667 24.0084 10.136C24.2644 10.4453 24.4404 10.792 24.5364 11.176C24.643 11.56 24.6964 11.944 24.6964 12.328V17H22.9044V16.024ZM22.8724 13.496H22.4404C22.131 13.496 21.8057 13.512 21.4644 13.544C21.123 13.5653 20.8084 13.624 20.5204 13.72C20.2324 13.8053 19.9924 13.9333 19.8004 14.104C19.6084 14.264 19.5124 14.488 19.5124 14.776C19.5124 14.9573 19.5497 15.112 19.6244 15.24C19.7097 15.3573 19.8164 15.4533 19.9444 15.528C20.0724 15.6027 20.2164 15.656 20.3764 15.688C20.5364 15.72 20.6964 15.736 20.8564 15.736C21.5177 15.736 22.019 15.56 22.3604 15.208C22.7017 14.856 22.8724 14.376 22.8724 13.768V13.496ZM26.9333 9.32H28.7733V10.6H28.8053C29.0186 10.152 29.3173 9.78933 29.7013 9.512C30.0853 9.23467 30.5333 9.096 31.0453 9.096C31.1199 9.096 31.1999 9.10133 31.2853 9.112C31.3706 9.112 31.4453 9.12267 31.5093 9.144V10.904C31.3813 10.872 31.2693 10.8507 31.1733 10.84C31.0879 10.8293 31.0026 10.824 30.9173 10.824C30.4799 10.824 30.1279 10.904 29.8613 11.064C29.5946 11.224 29.3866 11.416 29.2373 11.64C29.0879 11.864 28.9866 12.0933 28.9333 12.328C28.8799 12.5627 28.8533 12.7493 28.8533 12.888V17H26.9333V9.32ZM32.7614 9.32H34.5854V10.552H34.6174C34.788 10.168 35.0814 9.832 35.4974 9.544C35.924 9.24533 36.4254 9.096 37.0014 9.096C37.5027 9.096 37.9294 9.18667 38.2814 9.368C38.644 9.53867 38.9374 9.768 39.1614 10.056C39.396 10.344 39.5667 10.6747 39.6734 11.048C39.78 11.4213 39.8334 11.8053 39.8334 12.2L39.8334 17H37.9134L37.9134 12.744C37.9134 12.52 37.8974 12.2853 37.8654 12.04C37.8334 11.7947 37.764 11.576 37.6574 11.384C37.5507 11.1813 37.4014 11.016 37.2094 10.888C37.028 10.76 36.7827 10.696 36.4734 10.696C36.164 10.696 35.8974 10.76 35.6734 10.888C35.4494 11.0053 35.2627 11.16 35.1134 11.352C34.9747 11.544 34.868 11.768 34.7934 12.024C34.7187 12.2693 34.6814 12.52 34.6814 12.776L34.6814 17H32.7614L32.7614 9.32Z" fill="#102D33"/>
<path d="M47 9L51 13L55 9" stroke="#102D33" stroke-width="1.5" stroke-linecap="round" stroke-linejoin="round"/>
</svg>
