<svg width="57" height="26" viewBox="0 0 57 26" fill="none" xmlns="http://www.w3.org/2000/svg">
<path d="M7.024 8.04C6.81067 7.76267 6.50667 7.53333 6.112 7.352C5.728 7.16 5.33867 7.064 4.944 7.064C4.70933 7.064 4.47467 7.096 4.24 7.16C4.00533 7.21333 3.792 7.304 3.6 7.432C3.408 7.54933 3.248 7.70933 3.12 7.912C3.00267 8.104 2.944 8.33867 2.944 8.616C2.944 8.872 2.99733 9.09067 3.104 9.272C3.21067 9.45333 3.35467 9.608 3.536 9.736C3.728 9.864 3.95733 9.976 4.224 10.072C4.49067 10.168 4.784 10.264 5.104 10.36C5.46667 10.4773 5.84 10.6107 6.224 10.76C6.61867 10.9093 6.976 11.1067 7.296 11.352C7.62667 11.5973 7.89333 11.9067 8.096 12.28C8.30933 12.6533 8.416 13.1173 8.416 13.672C8.416 14.28 8.304 14.8133 8.08 15.272C7.856 15.72 7.55733 16.0933 7.184 16.392C6.81067 16.6907 6.37333 16.9147 5.872 17.064C5.37067 17.2133 4.84267 17.288 4.288 17.288C3.552 17.288 2.832 17.1547 2.128 16.888C1.424 16.6107 0.848 16.2053 0.4 15.672L1.84 14.328C2.11733 14.712 2.48533 15.016 2.944 15.24C3.41333 15.464 3.872 15.576 4.32 15.576C4.55467 15.576 4.79467 15.5493 5.04 15.496C5.28533 15.432 5.504 15.3307 5.696 15.192C5.89867 15.0533 6.05867 14.8827 6.176 14.68C6.304 14.4667 6.368 14.2053 6.368 13.896C6.368 13.5973 6.29867 13.352 6.16 13.16C6.02133 12.9573 5.83467 12.7867 5.6 12.648C5.36533 12.4987 5.088 12.3707 4.768 12.264C4.448 12.1573 4.112 12.0453 3.76 11.928C3.41867 11.8213 3.07733 11.6933 2.736 11.544C2.39467 11.3947 2.08533 11.1973 1.808 10.952C1.54133 10.7067 1.32267 10.408 1.152 10.056C0.981333 9.69333 0.896 9.24533 0.896 8.712C0.896 8.136 1.01333 7.64 1.248 7.224C1.49333 6.808 1.808 6.46667 2.192 6.2C2.58667 5.92267 3.02933 5.72 3.52 5.592C4.02133 5.45333 4.528 5.384 5.04 5.384C5.616 5.384 6.19733 5.48533 6.784 5.688C7.38133 5.89067 7.89867 6.19467 8.336 6.6L7.024 8.04ZM14.6115 9.096C15.1128 9.096 15.5395 9.18667 15.8915 9.368C16.2542 9.53867 16.5475 9.768 16.7715 10.056C17.0062 10.344 17.1768 10.6747 17.2835 11.048C17.3902 11.4213 17.4435 11.8053 17.4435 12.2V17H15.5235V12.776C15.5235 12.552 15.5075 12.3227 15.4755 12.088C15.4435 11.8427 15.3742 11.624 15.2675 11.432C15.1715 11.2293 15.0275 11.064 14.8355 10.936C14.6542 10.808 14.4088 10.744 14.0995 10.744C13.7902 10.744 13.5235 10.8027 13.2995 10.92C13.0755 11.0373 12.8888 11.1973 12.7395 11.4C12.5902 11.592 12.4782 11.8107 12.4035 12.056C12.3288 12.3013 12.2915 12.552 12.2915 12.808V17H10.3715L10.3715 4.904H12.2915V10.392H12.3235C12.3982 10.232 12.5048 10.0773 12.6435 9.928C12.7928 9.768 12.9635 9.62933 13.1555 9.512C13.3475 9.384 13.5662 9.28267 13.8115 9.208C14.0568 9.13333 14.3235 9.096 14.6115 9.096ZM19.2353 13.128C19.2353 12.52 19.3419 11.9707 19.5553 11.48C19.7793 10.9787 20.0779 10.552 20.4513 10.2C20.8246 9.848 21.2673 9.576 21.7793 9.384C22.2913 9.192 22.8353 9.096 23.4113 9.096C23.9873 9.096 24.5313 9.192 25.0433 9.384C25.5553 9.576 25.9979 9.848 26.3713 10.2C26.7446 10.552 27.0379 10.9787 27.2513 11.48C27.4753 11.9707 27.5873 12.52 27.5873 13.128C27.5873 13.736 27.4753 14.2907 27.2513 14.792C27.0379 15.2933 26.7446 15.7253 26.3713 16.088C25.9979 16.44 25.5553 16.7173 25.0433 16.92C24.5313 17.1227 23.9873 17.224 23.4113 17.224C22.8353 17.224 22.2913 17.1227 21.7793 16.92C21.2673 16.7173 20.8246 16.44 20.4513 16.088C20.0779 15.7253 19.7793 15.2933 19.5553 14.792C19.3419 14.2907 19.2353 13.736 19.2353 13.128ZM21.1873 13.128C21.1873 13.4267 21.2299 13.7253 21.3153 14.024C21.4113 14.3227 21.5499 14.5893 21.7313 14.824C21.9126 15.0587 22.1419 15.2507 22.4193 15.4C22.6966 15.5493 23.0273 15.624 23.4113 15.624C23.7953 15.624 24.1259 15.5493 24.4033 15.4C24.6806 15.2507 24.9099 15.0587 25.0913 14.824C25.2726 14.5893 25.4059 14.3227 25.4913 14.024C25.5873 13.7253 25.6353 13.4267 25.6353 13.128C25.6353 12.8293 25.5873 12.536 25.4913 12.248C25.4059 11.9493 25.2726 11.6827 25.0913 11.448C24.9099 11.2133 24.6806 11.0267 24.4033 10.888C24.1259 10.7387 23.7953 10.664 23.4113 10.664C23.0273 10.664 22.6966 10.7387 22.4193 10.888C22.1419 11.0267 21.9126 11.2133 21.7313 11.448C21.5499 11.6827 21.4113 11.9493 21.3153 12.248C21.2299 12.536 21.1873 12.8293 21.1873 13.128ZM31.2889 9.32V10.392H31.3369C31.4329 10.2427 31.5555 10.0933 31.7049 9.944C31.8649 9.784 32.0569 9.64533 32.2809 9.528C32.5049 9.4 32.7555 9.29867 33.0329 9.224C33.3209 9.13867 33.6409 9.096 33.9929 9.096C34.5369 9.096 35.0382 9.20267 35.4969 9.416C35.9555 9.61867 36.3502 9.90133 36.6809 10.264C37.0115 10.6267 37.2675 11.0533 37.4489 11.544C37.6302 12.0347 37.7209 12.5627 37.7209 13.128C37.7209 13.6933 37.6302 14.2267 37.4489 14.728C37.2782 15.2187 37.0275 15.6507 36.6969 16.024C36.3769 16.3867 35.9822 16.68 35.5129 16.904C35.0542 17.1173 34.5315 17.224 33.9449 17.224C33.4009 17.224 32.8995 17.112 32.4409 16.888C31.9929 16.664 31.6462 16.36 31.4009 15.976H31.3689V20.84H29.4489V9.32H31.2889ZM35.7689 13.128C35.7689 12.8293 35.7209 12.536 35.6249 12.248C35.5395 11.9493 35.4062 11.6827 35.2249 11.448C35.0435 11.2133 34.8142 11.0267 34.5369 10.888C34.2595 10.7387 33.9342 10.664 33.5609 10.664C33.2089 10.664 32.8942 10.7387 32.6169 10.888C32.3395 11.0373 32.0995 11.2293 31.8969 11.464C31.7049 11.6987 31.5555 11.9653 31.4489 12.264C31.3529 12.5627 31.3049 12.8613 31.3049 13.16C31.3049 13.4587 31.3529 13.7573 31.4489 14.056C31.5555 14.344 31.7049 14.6053 31.8969 14.84C32.0995 15.0747 32.3395 15.2667 32.6169 15.416C32.8942 15.5547 33.2089 15.624 33.5609 15.624C33.9342 15.624 34.2595 15.5493 34.5369 15.4C34.8142 15.2507 35.0435 15.0587 35.2249 14.824C35.4062 14.5893 35.5395 14.3227 35.6249 14.024C35.7209 13.7253 35.7689 13.4267 35.7689 13.128Z" fill="#102D33"/>
<path d="M45 9L49 13L53 9" stroke="#102D33" stroke-width="1.5" stroke-linecap="round" stroke-linejoin="round"/>
</svg>
