<svg width="139" height="26" viewBox="0 0 139 26" fill="none" xmlns="http://www.w3.org/2000/svg">
<path d="M1.248 5.672L4.944 5.672C5.59467 5.672 6.18133 5.73067 6.704 5.848C7.22667 5.96533 7.67467 6.15733 8.048 6.424C8.42133 6.69067 8.70933 7.032 8.912 7.448C9.11467 7.864 9.216 8.36533 9.216 8.952C9.216 9.58133 9.09867 10.1093 8.864 10.536C8.62933 10.9627 8.30933 11.3093 7.904 11.576C7.50933 11.832 7.04533 12.0187 6.512 12.136C5.97867 12.2533 5.41333 12.312 4.816 12.312L3.264 12.312L3.264 17H1.248L1.248 5.672ZM4.672 10.616C5.00267 10.616 5.31733 10.5947 5.616 10.552C5.91467 10.4987 6.18133 10.4133 6.416 10.296C6.65067 10.168 6.83733 9.99733 6.976 9.784C7.11467 9.57067 7.184 9.29333 7.184 8.952C7.184 8.62133 7.11467 8.35467 6.976 8.152C6.83733 7.93867 6.65067 7.77333 6.416 7.656C6.192 7.53867 5.93067 7.464 5.632 7.432C5.344 7.38933 5.04533 7.368 4.736 7.368H3.264L3.264 10.616L4.672 10.616ZM10.1833 9.32L12.0233 9.32V10.6H12.0553C12.2686 10.152 12.5673 9.78933 12.9513 9.512C13.3353 9.23467 13.7833 9.096 14.2953 9.096C14.3699 9.096 14.4499 9.10133 14.5353 9.112C14.6206 9.112 14.6953 9.12267 14.7593 9.144L14.7593 10.904C14.6313 10.872 14.5193 10.8507 14.4233 10.84C14.3379 10.8293 14.2526 10.824 14.1673 10.824C13.7299 10.824 13.3779 10.904 13.1113 11.064C12.8446 11.224 12.6366 11.416 12.4873 11.64C12.3379 11.864 12.2366 12.0933 12.1833 12.328C12.1299 12.5627 12.1033 12.7493 12.1033 12.888V17H10.1833L10.1833 9.32ZM15.2821 13.128C15.2821 12.52 15.3888 11.9707 15.6021 11.48C15.8261 10.9787 16.1248 10.552 16.4981 10.2C16.8715 9.848 17.3141 9.576 17.8261 9.384C18.3381 9.192 18.8821 9.096 19.4581 9.096C20.0341 9.096 20.5781 9.192 21.0901 9.384C21.6021 9.576 22.0448 9.848 22.4181 10.2C22.7915 10.552 23.0848 10.9787 23.2981 11.48C23.5221 11.9707 23.6341 12.52 23.6341 13.128C23.6341 13.736 23.5221 14.2907 23.2981 14.792C23.0848 15.2933 22.7915 15.7253 22.4181 16.088C22.0448 16.44 21.6021 16.7173 21.0901 16.92C20.5781 17.1227 20.0341 17.224 19.4581 17.224C18.8821 17.224 18.3381 17.1227 17.8261 16.92C17.3141 16.7173 16.8715 16.44 16.4981 16.088C16.1248 15.7253 15.8261 15.2933 15.6021 14.792C15.3888 14.2907 15.2821 13.736 15.2821 13.128ZM17.2341 13.128C17.2341 13.4267 17.2768 13.7253 17.3621 14.024C17.4581 14.3227 17.5968 14.5893 17.7781 14.824C17.9595 15.0587 18.1888 15.2507 18.4661 15.4C18.7435 15.5493 19.0741 15.624 19.4581 15.624C19.8421 15.624 20.1728 15.5493 20.4501 15.4C20.7275 15.2507 20.9568 15.0587 21.1381 14.824C21.3195 14.5893 21.4528 14.3227 21.5381 14.024C21.6341 13.7253 21.6821 13.4267 21.6821 13.128C21.6821 12.8293 21.6341 12.536 21.5381 12.248C21.4528 11.9493 21.3195 11.6827 21.1381 11.448C20.9568 11.2133 20.7275 11.0267 20.4501 10.888C20.1728 10.7387 19.8421 10.664 19.4581 10.664C19.0741 10.664 18.7435 10.7387 18.4661 10.888C18.1888 11.0267 17.9595 11.2133 17.7781 11.448C17.5968 11.6827 17.4581 11.9493 17.3621 12.248C17.2768 12.536 17.2341 12.8293 17.2341 13.128ZM33.3038 17H31.4798V15.848H31.4478C31.1811 16.296 30.8078 16.6373 30.3278 16.872C29.8584 17.1067 29.3518 17.224 28.8078 17.224C28.2211 17.224 27.6931 17.1173 27.2238 16.904C26.7651 16.68 26.3704 16.3867 26.0398 16.024C25.7198 15.6507 25.4691 15.2187 25.2878 14.728C25.1171 14.2267 25.0318 13.6933 25.0318 13.128C25.0318 12.5627 25.1224 12.0347 25.3038 11.544C25.4851 11.0533 25.7411 10.6267 26.0718 10.264C26.4024 9.90133 26.7971 9.61867 27.2558 9.416C27.7144 9.20267 28.2158 9.096 28.7598 9.096C29.1118 9.096 29.4264 9.13867 29.7038 9.224C29.9811 9.29867 30.2211 9.39467 30.4238 9.512C30.6371 9.62933 30.8184 9.75733 30.9678 9.896C31.1171 10.0347 31.2398 10.168 31.3358 10.296H31.3838L31.3838 4.904H33.3038L33.3038 17ZM26.9838 13.128C26.9838 13.4267 27.0264 13.7253 27.1118 14.024C27.2078 14.3227 27.3464 14.5893 27.5278 14.824C27.7091 15.0587 27.9384 15.2507 28.2158 15.4C28.4931 15.5493 28.8184 15.624 29.1918 15.624C29.5438 15.624 29.8584 15.5547 30.1358 15.416C30.4131 15.2667 30.6478 15.0747 30.8398 14.84C31.0424 14.6053 31.1918 14.344 31.2878 14.056C31.3944 13.7573 31.4478 13.4587 31.4478 13.16C31.4478 12.8613 31.3944 12.5627 31.2878 12.264C31.1918 11.9653 31.0424 11.6987 30.8398 11.464C30.6478 11.2293 30.4131 11.0373 30.1358 10.888C29.8584 10.7387 29.5438 10.664 29.1918 10.664C28.8184 10.664 28.4931 10.7387 28.2158 10.888C27.9384 11.0267 27.7091 11.2133 27.5278 11.448C27.3464 11.6827 27.2078 11.9493 27.1118 12.248C27.0264 12.536 26.9838 12.8293 26.9838 13.128ZM42.6444 17H40.8204V15.768H40.7884C40.6177 16.152 40.319 16.4933 39.8924 16.792C39.4764 17.08 38.9804 17.224 38.4044 17.224C37.903 17.224 37.471 17.1387 37.1084 16.968C36.7564 16.7867 36.463 16.552 36.2284 16.264C36.0044 15.976 35.839 15.6453 35.7324 15.272C35.6257 14.8987 35.5724 14.5147 35.5724 14.12V9.32H37.4924V13.576C37.4924 13.8 37.5084 14.0347 37.5404 14.28C37.5724 14.5253 37.6417 14.7493 37.7484 14.952C37.855 15.144 37.999 15.304 38.1804 15.432C38.3724 15.56 38.623 15.624 38.9324 15.624C39.231 15.624 39.4924 15.5653 39.7164 15.448C39.951 15.32 40.1377 15.16 40.2764 14.968C40.4257 14.776 40.5377 14.5573 40.6124 14.312C40.687 14.056 40.7244 13.8 40.7244 13.544V9.32H42.6444L42.6444 17ZM50.1969 11.448C50.0475 11.2347 49.8235 11.0587 49.5249 10.92C49.2262 10.7707 48.9222 10.696 48.6129 10.696C48.2609 10.696 47.9515 10.7707 47.6849 10.92C47.4182 11.0587 47.1942 11.2453 47.0129 11.48C46.8422 11.7147 46.7142 11.9813 46.6289 12.28C46.5435 12.568 46.5009 12.8613 46.5009 13.16C46.5009 13.4587 46.5435 13.7573 46.6289 14.056C46.7249 14.344 46.8635 14.6053 47.0449 14.84C47.2262 15.0747 47.4502 15.2667 47.7169 15.416C47.9942 15.5547 48.3142 15.624 48.6769 15.624C48.9755 15.624 49.2742 15.5653 49.5729 15.448C49.8715 15.3307 50.1115 15.16 50.2929 14.936L51.4929 16.152C51.1729 16.4933 50.7622 16.76 50.2609 16.952C49.7702 17.1333 49.2369 17.224 48.6609 17.224C48.0955 17.224 47.5569 17.1333 47.0449 16.952C46.5435 16.7707 46.1009 16.504 45.7169 16.152C45.3435 15.8 45.0449 15.3733 44.8209 14.872C44.6075 14.3707 44.5009 13.8 44.5009 13.16C44.5009 12.5413 44.6075 11.9813 44.8209 11.48C45.0449 10.9787 45.3435 10.552 45.7169 10.2C46.0902 9.848 46.5222 9.576 47.0129 9.384C47.5142 9.192 48.0475 9.096 48.6129 9.096C49.1782 9.096 49.7222 9.20267 50.2449 9.416C50.7782 9.62933 51.1995 9.92267 51.5089 10.296L50.1969 11.448ZM51.6574 10.856V9.32H53.0014V7.096H54.8894V9.32H56.8094V10.856H54.8894V14.424C54.8894 14.7653 54.948 15.048 55.0654 15.272C55.1934 15.496 55.4707 15.608 55.8974 15.608C56.0254 15.608 56.164 15.5973 56.3134 15.576C56.4627 15.544 56.596 15.5013 56.7134 15.448L56.7774 16.952C56.6067 17.016 56.404 17.064 56.1694 17.096C55.9347 17.1387 55.7107 17.16 55.4974 17.16C54.9854 17.16 54.5694 17.0907 54.2494 16.952C53.9294 16.8027 53.6734 16.6053 53.4814 16.36C53.3 16.104 53.172 15.816 53.0974 15.496C53.0334 15.1653 53.0014 14.8133 53.0014 14.44V10.856H51.6574ZM68.0709 8.04C67.8575 7.76267 67.5535 7.53333 67.1589 7.352C66.7749 7.16 66.3855 7.064 65.9909 7.064C65.7562 7.064 65.5215 7.096 65.2869 7.16C65.0522 7.21333 64.8389 7.304 64.6469 7.432C64.4549 7.54933 64.2949 7.70933 64.1669 7.912C64.0495 8.104 63.9909 8.33867 63.9909 8.616C63.9909 8.872 64.0442 9.09067 64.1509 9.272C64.2575 9.45333 64.4015 9.608 64.5829 9.736C64.7749 9.864 65.0042 9.976 65.2709 10.072C65.5375 10.168 65.8309 10.264 66.1509 10.36C66.5135 10.4773 66.8869 10.6107 67.2709 10.76C67.6655 10.9093 68.0229 11.1067 68.3429 11.352C68.6735 11.5973 68.9402 11.9067 69.1429 12.28C69.3562 12.6533 69.4629 13.1173 69.4629 13.672C69.4629 14.28 69.3509 14.8133 69.1269 15.272C68.9029 15.72 68.6042 16.0933 68.2309 16.392C67.8575 16.6907 67.4202 16.9147 66.9189 17.064C66.4175 17.2133 65.8895 17.288 65.3349 17.288C64.5989 17.288 63.8789 17.1547 63.1749 16.888C62.4709 16.6107 61.8949 16.2053 61.4469 15.672L62.8869 14.328C63.1642 14.712 63.5322 15.016 63.9909 15.24C64.4602 15.464 64.9189 15.576 65.3669 15.576C65.6015 15.576 65.8415 15.5493 66.0869 15.496C66.3322 15.432 66.5509 15.3307 66.7429 15.192C66.9455 15.0533 67.1055 14.8827 67.2229 14.68C67.3509 14.4667 67.4149 14.2053 67.4149 13.896C67.4149 13.5973 67.3455 13.352 67.2069 13.16C67.0682 12.9573 66.8815 12.7867 66.6469 12.648C66.4122 12.4987 66.1349 12.3707 65.8149 12.264C65.4949 12.1573 65.1589 12.0453 64.8069 11.928C64.4655 11.8213 64.1242 11.6933 63.7829 11.544C63.4415 11.3947 63.1322 11.1973 62.8549 10.952C62.5882 10.7067 62.3695 10.408 62.1989 10.056C62.0282 9.69333 61.9429 9.24533 61.9429 8.712C61.9429 8.136 62.0602 7.64 62.2949 7.224C62.5402 6.808 62.8549 6.46667 63.2389 6.2C63.6335 5.92267 64.0762 5.72 64.5669 5.592C65.0682 5.45333 65.5749 5.384 66.0869 5.384C66.6629 5.384 67.2442 5.48533 67.8309 5.688C68.4282 5.89067 68.9455 6.19467 69.3829 6.6L68.0709 8.04ZM78.3944 17H76.5704V15.768H76.5384C76.3677 16.152 76.069 16.4933 75.6424 16.792C75.2264 17.08 74.7304 17.224 74.1544 17.224C73.653 17.224 73.221 17.1387 72.8584 16.968C72.5064 16.7867 72.213 16.552 71.9784 16.264C71.7544 15.976 71.589 15.6453 71.4824 15.272C71.3757 14.8987 71.3224 14.5147 71.3224 14.12V9.32H73.2424V13.576C73.2424 13.8 73.2584 14.0347 73.2904 14.28C73.3224 14.5253 73.3917 14.7493 73.4984 14.952C73.605 15.144 73.749 15.304 73.9304 15.432C74.1224 15.56 74.373 15.624 74.6824 15.624C74.981 15.624 75.2424 15.5653 75.4664 15.448C75.701 15.32 75.8877 15.16 76.0264 14.968C76.1757 14.776 76.2877 14.5573 76.3624 14.312C76.437 14.056 76.4744 13.8 76.4744 13.544V9.32H78.3944V17ZM82.5389 9.32V10.392H82.5869C82.6829 10.2427 82.8055 10.0933 82.9549 9.944C83.1149 9.784 83.3069 9.64533 83.5309 9.528C83.7549 9.4 84.0055 9.29867 84.2829 9.224C84.5709 9.13867 84.8909 9.096 85.2429 9.096C85.7869 9.096 86.2882 9.20267 86.7469 9.416C87.2055 9.61867 87.6002 9.90133 87.9309 10.264C88.2615 10.6267 88.5175 11.0533 88.6989 11.544C88.8802 12.0347 88.9709 12.5627 88.9709 13.128C88.9709 13.6933 88.8802 14.2267 88.6989 14.728C88.5282 15.2187 88.2775 15.6507 87.9469 16.024C87.6269 16.3867 87.2322 16.68 86.7629 16.904C86.3042 17.1173 85.7815 17.224 85.1949 17.224C84.6509 17.224 84.1495 17.112 83.6909 16.888C83.2429 16.664 82.8962 16.36 82.6509 15.976H82.6189V20.84H80.6989V9.32H82.5389ZM87.0189 13.128C87.0189 12.8293 86.9709 12.536 86.8749 12.248C86.7895 11.9493 86.6562 11.6827 86.4749 11.448C86.2935 11.2133 86.0642 11.0267 85.7869 10.888C85.5095 10.7387 85.1842 10.664 84.8109 10.664C84.4589 10.664 84.1442 10.7387 83.8669 10.888C83.5895 11.0373 83.3495 11.2293 83.1469 11.464C82.9549 11.6987 82.8055 11.9653 82.6989 12.264C82.6029 12.5627 82.5549 12.8613 82.5549 13.16C82.5549 13.4587 82.6029 13.7573 82.6989 14.056C82.8055 14.344 82.9549 14.6053 83.1469 14.84C83.3495 15.0747 83.5895 15.2667 83.8669 15.416C84.1442 15.5547 84.4589 15.624 84.8109 15.624C85.1842 15.624 85.5095 15.5493 85.7869 15.4C86.0642 15.2507 86.2935 15.0587 86.4749 14.824C86.6562 14.5893 86.7895 14.3227 86.8749 14.024C86.9709 13.7253 87.0189 13.4267 87.0189 13.128ZM92.6639 9.32V10.392H92.7119C92.8079 10.2427 92.9305 10.0933 93.0799 9.944C93.2399 9.784 93.4319 9.64533 93.6559 9.528C93.8799 9.4 94.1305 9.29867 94.4079 9.224C94.6959 9.13867 95.0159 9.096 95.3679 9.096C95.9119 9.096 96.4132 9.20267 96.8719 9.416C97.3305 9.61867 97.7252 9.90133 98.0559 10.264C98.3865 10.6267 98.6425 11.0533 98.8239 11.544C99.0052 12.0347 99.0959 12.5627 99.0959 13.128C99.0959 13.6933 99.0052 14.2267 98.8239 14.728C98.6532 15.2187 98.4025 15.6507 98.0719 16.024C97.7519 16.3867 97.3572 16.68 96.8879 16.904C96.4292 17.1173 95.9065 17.224 95.3199 17.224C94.7759 17.224 94.2745 17.112 93.8159 16.888C93.3679 16.664 93.0212 16.36 92.7759 15.976H92.7439V20.84H90.8239V9.32H92.6639ZM97.1439 13.128C97.1439 12.8293 97.0959 12.536 96.9999 12.248C96.9145 11.9493 96.7812 11.6827 96.5999 11.448C96.4185 11.2133 96.1892 11.0267 95.9119 10.888C95.6345 10.7387 95.3092 10.664 94.9359 10.664C94.5839 10.664 94.2692 10.7387 93.9919 10.888C93.7145 11.0373 93.4745 11.2293 93.2719 11.464C93.0799 11.6987 92.9305 11.9653 92.8239 12.264C92.7279 12.5627 92.6799 12.8613 92.6799 13.16C92.6799 13.4587 92.7279 13.7573 92.8239 14.056C92.9305 14.344 93.0799 14.6053 93.2719 14.84C93.4745 15.0747 93.7145 15.2667 93.9919 15.416C94.2692 15.5547 94.5839 15.624 94.9359 15.624C95.3092 15.624 95.6345 15.5493 95.9119 15.4C96.1892 15.2507 96.4185 15.0587 96.5999 14.824C96.7812 14.5893 96.9145 14.3227 96.9999 14.024C97.0959 13.7253 97.1439 13.4267 97.1439 13.128ZM100.501 13.128C100.501 12.52 100.608 11.9707 100.821 11.48C101.045 10.9787 101.344 10.552 101.717 10.2C102.09 9.848 102.533 9.576 103.045 9.384C103.557 9.192 104.101 9.096 104.677 9.096C105.253 9.096 105.797 9.192 106.309 9.384C106.821 9.576 107.264 9.848 107.637 10.2C108.01 10.552 108.304 10.9787 108.517 11.48C108.741 11.9707 108.853 12.52 108.853 13.128C108.853 13.736 108.741 14.2907 108.517 14.792C108.304 15.2933 108.01 15.7253 107.637 16.088C107.264 16.44 106.821 16.7173 106.309 16.92C105.797 17.1227 105.253 17.224 104.677 17.224C104.101 17.224 103.557 17.1227 103.045 16.92C102.533 16.7173 102.09 16.44 101.717 16.088C101.344 15.7253 101.045 15.2933 100.821 14.792C100.608 14.2907 100.501 13.736 100.501 13.128ZM102.453 13.128C102.453 13.4267 102.496 13.7253 102.581 14.024C102.677 14.3227 102.816 14.5893 102.997 14.824C103.178 15.0587 103.408 15.2507 103.685 15.4C103.962 15.5493 104.293 15.624 104.677 15.624C105.061 15.624 105.392 15.5493 105.669 15.4C105.946 15.2507 106.176 15.0587 106.357 14.824C106.538 14.5893 106.672 14.3227 106.757 14.024C106.853 13.7253 106.901 13.4267 106.901 13.128C106.901 12.8293 106.853 12.536 106.757 12.248C106.672 11.9493 106.538 11.6827 106.357 11.448C106.176 11.2133 105.946 11.0267 105.669 10.888C105.392 10.7387 105.061 10.664 104.677 10.664C104.293 10.664 103.962 10.7387 103.685 10.888C103.408 11.0267 103.178 11.2133 102.997 11.448C102.816 11.6827 102.677 11.9493 102.581 12.248C102.496 12.536 102.453 12.8293 102.453 13.128ZM110.715 9.32L112.555 9.32V10.6H112.587C112.8 10.152 113.099 9.78933 113.483 9.512C113.867 9.23467 114.315 9.096 114.827 9.096C114.901 9.096 114.981 9.10133 115.067 9.112C115.152 9.112 115.227 9.12267 115.291 9.144V10.904C115.163 10.872 115.051 10.8507 114.955 10.84C114.869 10.8293 114.784 10.824 114.699 10.824C114.261 10.824 113.909 10.904 113.643 11.064C113.376 11.224 113.168 11.416 113.019 11.64C112.869 11.864 112.768 12.0933 112.715 12.328C112.661 12.5627 112.635 12.7493 112.635 12.888V17H110.715V9.32ZM115.251 10.856V9.32H116.595V7.096L118.483 7.096V9.32L120.403 9.32V10.856L118.483 10.856V14.424C118.483 14.7653 118.542 15.048 118.659 15.272C118.787 15.496 119.064 15.608 119.491 15.608C119.619 15.608 119.758 15.5973 119.907 15.576C120.056 15.544 120.19 15.5013 120.307 15.448L120.371 16.952C120.2 17.016 119.998 17.064 119.763 17.096C119.528 17.1387 119.304 17.16 119.091 17.16C118.579 17.16 118.163 17.0907 117.843 16.952C117.523 16.8027 117.267 16.6053 117.075 16.36C116.894 16.104 116.766 15.816 116.691 15.496C116.627 15.1653 116.595 14.8133 116.595 14.44V10.856H115.251Z" fill="#102D33"/>
<path d="M127 9L131 13L135 9" stroke="#102D33" stroke-width="1.5" stroke-linecap="round" stroke-linejoin="round"/>
</svg>
