<svg width="154" height="26" viewBox="0 0 154 26" fill="none" xmlns="http://www.w3.org/2000/svg">
<path d="M0.096 5.672L2.304 5.672L4.496 13.992H4.528L7.024 5.672L9.104 5.672L11.552 13.992H11.584L13.824 5.672H15.968L12.656 17H10.704L8.048 8.504H8.016L5.36 17H3.408L0.096 5.672ZM21.4865 9.096C21.9878 9.096 22.4145 9.18667 22.7665 9.368C23.1292 9.53867 23.4225 9.768 23.6465 10.056C23.8812 10.344 24.0518 10.6747 24.1585 11.048C24.2652 11.4213 24.3185 11.8053 24.3185 12.2V17H22.3985V12.776C22.3985 12.552 22.3825 12.3227 22.3505 12.088C22.3185 11.8427 22.2492 11.624 22.1425 11.432C22.0465 11.2293 21.9025 11.064 21.7105 10.936C21.5292 10.808 21.2838 10.744 20.9745 10.744C20.6652 10.744 20.3985 10.8027 20.1745 10.92C19.9505 11.0373 19.7638 11.1973 19.6145 11.4C19.4652 11.592 19.3532 11.8107 19.2785 12.056C19.2038 12.3013 19.1665 12.552 19.1665 12.808V17H17.2465L17.2465 4.904H19.1665L19.1665 10.392H19.1985C19.2732 10.232 19.3798 10.0773 19.5185 9.928C19.6678 9.768 19.8385 9.62933 20.0305 9.512C20.2225 9.384 20.4412 9.28267 20.6865 9.208C20.9318 9.13333 21.1985 9.096 21.4865 9.096ZM31.3263 16.024H31.2783C31.0863 16.3653 30.7769 16.648 30.3503 16.872C29.9236 17.0853 29.4383 17.192 28.8943 17.192C28.5849 17.192 28.2596 17.1493 27.9183 17.064C27.5876 16.9893 27.2783 16.8613 26.9903 16.68C26.7129 16.488 26.4783 16.2427 26.2863 15.944C26.1049 15.6347 26.0143 15.256 26.0143 14.808C26.0143 14.232 26.1743 13.7733 26.4943 13.432C26.8249 13.0907 27.2463 12.8293 27.7582 12.648C28.2703 12.4667 28.8356 12.3493 29.4543 12.296C30.0836 12.232 30.6969 12.2 31.2943 12.2V12.008C31.2943 11.528 31.1183 11.176 30.7663 10.952C30.4249 10.7173 30.0143 10.6 29.5343 10.6C29.1289 10.6 28.7396 10.6853 28.3663 10.856C27.9929 11.0267 27.6836 11.2347 27.4383 11.48L26.4463 10.312C26.8836 9.90667 27.3849 9.60267 27.9503 9.4C28.5263 9.19733 29.1076 9.096 29.6943 9.096C30.3769 9.096 30.9369 9.192 31.3743 9.384C31.8223 9.576 32.1743 9.82667 32.4303 10.136C32.6863 10.4453 32.8623 10.792 32.9583 11.176C33.0649 11.56 33.1183 11.944 33.1183 12.328L33.1183 17H31.3263V16.024ZM31.2943 13.496H30.8623C30.5529 13.496 30.2276 13.512 29.8863 13.544C29.5449 13.5653 29.2303 13.624 28.9423 13.72C28.6543 13.8053 28.4143 13.9333 28.2223 14.104C28.0303 14.264 27.9343 14.488 27.9343 14.776C27.9343 14.9573 27.9716 15.112 28.0463 15.24C28.1316 15.3573 28.2383 15.4533 28.3663 15.528C28.4943 15.6027 28.6383 15.656 28.7983 15.688C28.9583 15.72 29.1183 15.736 29.2783 15.736C29.9396 15.736 30.4409 15.56 30.7823 15.208C31.1236 14.856 31.2943 14.376 31.2943 13.768V13.496ZM34.0949 10.856V9.32H35.4389V7.096H37.3269V9.32H39.2469V10.856H37.3269V14.424C37.3269 14.7653 37.3855 15.048 37.5029 15.272C37.6309 15.496 37.9082 15.608 38.3349 15.608C38.4629 15.608 38.6015 15.5973 38.7509 15.576C38.9002 15.544 39.0335 15.5013 39.1509 15.448L39.2149 16.952C39.0442 17.016 38.8415 17.064 38.6069 17.096C38.3722 17.1387 38.1482 17.16 37.9349 17.16C37.4229 17.16 37.0069 17.0907 36.6869 16.952C36.3669 16.8027 36.1109 16.6053 35.9189 16.36C35.7375 16.104 35.6095 15.816 35.5349 15.496C35.4709 15.1653 35.4389 14.8133 35.4389 14.44V10.856H34.0949ZM41.667 5.672L43.523 5.672L42.163 9.896H40.547L41.667 5.672ZM48.7819 11.368C48.6112 11.144 48.3765 10.952 48.0779 10.792C47.7792 10.6213 47.4539 10.536 47.1019 10.536C46.7925 10.536 46.5099 10.6 46.2539 10.728C45.9979 10.856 45.8699 11.0693 45.8699 11.368C45.8699 11.6667 46.0085 11.88 46.2859 12.008C46.5739 12.1253 46.9899 12.248 47.5339 12.376C47.8219 12.44 48.1099 12.5253 48.3979 12.632C48.6965 12.7387 48.9632 12.8827 49.1979 13.064C49.4432 13.2347 49.6405 13.4533 49.7899 13.72C49.9392 13.976 50.0139 14.2907 50.0139 14.664C50.0139 15.1333 49.9232 15.5333 49.7419 15.864C49.5712 16.184 49.3365 16.4453 49.0379 16.648C48.7499 16.8507 48.4085 16.9947 48.0139 17.08C47.6299 17.176 47.2299 17.224 46.8139 17.224C46.2165 17.224 45.6352 17.1173 45.0699 16.904C44.5045 16.68 44.0352 16.3653 43.6619 15.96L44.9259 14.776C45.1392 15.0533 45.4165 15.2827 45.7579 15.464C46.0992 15.6453 46.4779 15.736 46.8939 15.736C47.0325 15.736 47.1712 15.72 47.3099 15.688C47.4592 15.656 47.5925 15.608 47.7099 15.544C47.8379 15.4693 47.9392 15.3733 48.0139 15.256C48.0885 15.1387 48.1259 14.9947 48.1259 14.824C48.1259 14.504 47.9765 14.2747 47.6779 14.136C47.3899 13.9973 46.9525 13.8587 46.3659 13.72C46.0779 13.656 45.7952 13.576 45.5179 13.48C45.2512 13.3733 45.0112 13.24 44.7979 13.08C44.5845 12.9093 44.4139 12.7013 44.2859 12.456C44.1579 12.2107 44.0939 11.9067 44.0939 11.544C44.0939 11.1173 44.1792 10.7493 44.3499 10.44C44.5312 10.1307 44.7659 9.88 45.0539 9.688C45.3419 9.48533 45.6672 9.336 46.0299 9.24C46.3925 9.144 46.7659 9.096 47.1499 9.096C47.7045 9.096 48.2432 9.192 48.7659 9.384C49.2992 9.576 49.7205 9.86933 50.0299 10.264L48.7819 11.368ZM55.7793 5.672L57.7953 5.672L57.7953 17H55.7793L55.7793 5.672ZM60.1989 9.32L62.0229 9.32V10.552H62.0549C62.2255 10.168 62.5189 9.832 62.9349 9.544C63.3615 9.24533 63.8629 9.096 64.4389 9.096C64.9402 9.096 65.3669 9.18667 65.7189 9.368C66.0815 9.53867 66.3749 9.768 66.5989 10.056C66.8335 10.344 67.0042 10.6747 67.1109 11.048C67.2175 11.4213 67.2709 11.8053 67.2709 12.2V17H65.3509V12.744C65.3509 12.52 65.3349 12.2853 65.3029 12.04C65.2709 11.7947 65.2015 11.576 65.0949 11.384C64.9882 11.1813 64.8389 11.016 64.6469 10.888C64.4655 10.76 64.2202 10.696 63.9109 10.696C63.6015 10.696 63.3349 10.76 63.1109 10.888C62.8869 11.0053 62.7002 11.16 62.5509 11.352C62.4122 11.544 62.3055 11.768 62.2309 12.024C62.1562 12.2693 62.1189 12.52 62.1189 12.776L62.1189 17H60.1989L60.1989 9.32ZM75.9528 12.088L71.6967 5.672H74.1608L77.0088 10.44L79.8888 5.672L82.2248 5.672L77.9688 12.088V17H75.9528V12.088ZM81.1415 13.128C81.1415 12.52 81.2482 11.9707 81.4615 11.48C81.6855 10.9787 81.9842 10.552 82.3575 10.2C82.7308 9.848 83.1735 9.576 83.6855 9.384C84.1975 9.192 84.7415 9.096 85.3175 9.096C85.8935 9.096 86.4375 9.192 86.9495 9.384C87.4615 9.576 87.9042 9.848 88.2775 10.2C88.6508 10.552 88.9442 10.9787 89.1575 11.48C89.3815 11.9707 89.4935 12.52 89.4935 13.128C89.4935 13.736 89.3815 14.2907 89.1575 14.792C88.9442 15.2933 88.6508 15.7253 88.2775 16.088C87.9042 16.44 87.4615 16.7173 86.9495 16.92C86.4375 17.1227 85.8935 17.224 85.3175 17.224C84.7415 17.224 84.1975 17.1227 83.6855 16.92C83.1735 16.7173 82.7308 16.44 82.3575 16.088C81.9842 15.7253 81.6855 15.2933 81.4615 14.792C81.2482 14.2907 81.1415 13.736 81.1415 13.128ZM83.0935 13.128C83.0935 13.4267 83.1362 13.7253 83.2215 14.024C83.3175 14.3227 83.4562 14.5893 83.6375 14.824C83.8188 15.0587 84.0482 15.2507 84.3255 15.4C84.6028 15.5493 84.9335 15.624 85.3175 15.624C85.7015 15.624 86.0322 15.5493 86.3095 15.4C86.5868 15.2507 86.8162 15.0587 86.9975 14.824C87.1788 14.5893 87.3122 14.3227 87.3975 14.024C87.4935 13.7253 87.5415 13.4267 87.5415 13.128C87.5415 12.8293 87.4935 12.536 87.3975 12.248C87.3122 11.9493 87.1788 11.6827 86.9975 11.448C86.8162 11.2133 86.5868 11.0267 86.3095 10.888C86.0322 10.7387 85.7015 10.664 85.3175 10.664C84.9335 10.664 84.6028 10.7387 84.3255 10.888C84.0482 11.0267 83.8188 11.2133 83.6375 11.448C83.4562 11.6827 83.3175 11.9493 83.2215 12.248C83.1362 12.536 83.0935 12.8293 83.0935 13.128ZM98.3631 17H96.5391V15.768H96.5071C96.3365 16.152 96.0378 16.4933 95.6111 16.792C95.1951 17.08 94.6991 17.224 94.1231 17.224C93.6218 17.224 93.1898 17.1387 92.8271 16.968C92.4751 16.7867 92.1818 16.552 91.9471 16.264C91.7231 15.976 91.5578 15.6453 91.4511 15.272C91.3445 14.8987 91.2911 14.5147 91.2911 14.12V9.32H93.2111V13.576C93.2111 13.8 93.2271 14.0347 93.2591 14.28C93.2911 14.5253 93.3605 14.7493 93.4671 14.952C93.5738 15.144 93.7178 15.304 93.8991 15.432C94.0911 15.56 94.3418 15.624 94.6511 15.624C94.9498 15.624 95.2111 15.5653 95.4351 15.448C95.6698 15.32 95.8565 15.16 95.9951 14.968C96.1445 14.776 96.2565 14.5573 96.3311 14.312C96.4058 14.056 96.4431 13.8 96.4431 13.544V9.32L98.3631 9.32V17ZM100.668 9.32H102.508V10.6H102.54C102.753 10.152 103.052 9.78933 103.436 9.512C103.82 9.23467 104.268 9.096 104.78 9.096C104.854 9.096 104.934 9.10133 105.02 9.112C105.105 9.112 105.18 9.12267 105.244 9.144V10.904C105.116 10.872 105.004 10.8507 104.908 10.84C104.822 10.8293 104.737 10.824 104.652 10.824C104.214 10.824 103.862 10.904 103.596 11.064C103.329 11.224 103.121 11.416 102.972 11.64C102.822 11.864 102.721 12.0933 102.668 12.328C102.614 12.5627 102.588 12.7493 102.588 12.888V17H100.668V9.32ZM109.252 5.672L111.46 5.672L113.652 13.992H113.684L116.18 5.672L118.26 5.672L120.708 13.992H120.74L122.98 5.672L125.124 5.672L121.812 17H119.86L117.204 8.504H117.172L114.516 17H112.564L109.252 5.672ZM130.561 16.024H130.513C130.321 16.3653 130.011 16.648 129.585 16.872C129.158 17.0853 128.673 17.192 128.129 17.192C127.819 17.192 127.494 17.1493 127.153 17.064C126.822 16.9893 126.513 16.8613 126.225 16.68C125.947 16.488 125.713 16.2427 125.521 15.944C125.339 15.6347 125.249 15.256 125.249 14.808C125.249 14.232 125.409 13.7733 125.729 13.432C126.059 13.0907 126.481 12.8293 126.993 12.648C127.505 12.4667 128.07 12.3493 128.689 12.296C129.318 12.232 129.931 12.2 130.529 12.2V12.008C130.529 11.528 130.353 11.176 130.001 10.952C129.659 10.7173 129.249 10.6 128.769 10.6C128.363 10.6 127.974 10.6853 127.601 10.856C127.227 11.0267 126.918 11.2347 126.673 11.48L125.681 10.312C126.118 9.90667 126.619 9.60267 127.185 9.4C127.761 9.19733 128.342 9.096 128.929 9.096C129.611 9.096 130.171 9.192 130.609 9.384C131.057 9.576 131.409 9.82667 131.665 10.136C131.921 10.4453 132.097 10.792 132.193 11.176C132.299 11.56 132.353 11.944 132.353 12.328V17H130.561V16.024ZM130.529 13.496H130.097C129.787 13.496 129.462 13.512 129.121 13.544C128.779 13.5653 128.465 13.624 128.177 13.72C127.889 13.8053 127.649 13.9333 127.457 14.104C127.265 14.264 127.169 14.488 127.169 14.776C127.169 14.9573 127.206 15.112 127.281 15.24C127.366 15.3573 127.473 15.4533 127.601 15.528C127.729 15.6027 127.873 15.656 128.033 15.688C128.193 15.72 128.353 15.736 128.513 15.736C129.174 15.736 129.675 15.56 130.017 15.208C130.358 14.856 130.529 14.376 130.529 13.768V13.496ZM133.329 10.856V9.32L134.673 9.32V7.096L136.561 7.096V9.32H138.481V10.856H136.561V14.424C136.561 14.7653 136.62 15.048 136.737 15.272C136.865 15.496 137.143 15.608 137.569 15.608C137.697 15.608 137.836 15.5973 137.985 15.576C138.135 15.544 138.268 15.5013 138.385 15.448L138.449 16.952C138.279 17.016 138.076 17.064 137.841 17.096C137.607 17.1387 137.383 17.16 137.169 17.16C136.657 17.16 136.241 17.0907 135.921 16.952C135.601 16.8027 135.345 16.6053 135.153 16.36C134.972 16.104 134.844 15.816 134.769 15.496C134.705 15.1653 134.673 14.8133 134.673 14.44V10.856L133.329 10.856ZM145.279 12.392C145.279 12.1467 145.241 11.912 145.167 11.688C145.103 11.464 144.996 11.2667 144.847 11.096C144.697 10.9253 144.505 10.792 144.271 10.696C144.047 10.5893 143.78 10.536 143.471 10.536C142.895 10.536 142.404 10.712 141.999 11.064C141.604 11.4053 141.385 11.848 141.343 12.392L145.279 12.392ZM147.199 13.256C147.199 13.3413 147.199 13.4267 147.199 13.512C147.199 13.5973 147.193 13.6827 147.183 13.768L141.343 13.768C141.364 14.0453 141.433 14.3013 141.551 14.536C141.679 14.76 141.844 14.9573 142.047 15.128C142.249 15.288 142.479 15.416 142.735 15.512C142.991 15.608 143.257 15.656 143.535 15.656C144.015 15.656 144.42 15.5707 144.751 15.4C145.081 15.2187 145.353 14.9733 145.567 14.664L146.847 15.688C146.089 16.712 144.991 17.224 143.551 17.224C142.953 17.224 142.404 17.1333 141.903 16.952C141.401 16.76 140.964 16.4933 140.591 16.152C140.228 15.8107 139.94 15.3947 139.727 14.904C139.524 14.4027 139.423 13.8373 139.423 13.208C139.423 12.5893 139.524 12.0293 139.727 11.528C139.94 11.016 140.228 10.584 140.591 10.232C140.953 9.86933 141.38 9.592 141.871 9.4C142.372 9.19733 142.911 9.096 143.487 9.096C144.02 9.096 144.511 9.18667 144.959 9.368C145.417 9.53867 145.812 9.8 146.143 10.152C146.473 10.4933 146.729 10.9253 146.911 11.448C147.103 11.96 147.199 12.5627 147.199 13.256ZM149.058 9.32H150.898V10.6H150.93C151.144 10.152 151.442 9.78933 151.826 9.512C152.21 9.23467 152.658 9.096 153.17 9.096C153.245 9.096 153.325 9.10133 153.41 9.112C153.496 9.112 153.57 9.12267 153.634 9.144V10.904C153.506 10.872 153.394 10.8507 153.298 10.84C153.213 10.8293 153.128 10.824 153.042 10.824C152.605 10.824 152.253 10.904 151.986 11.064C151.72 11.224 151.512 11.416 151.362 11.64C151.213 11.864 151.112 12.0933 151.058 12.328C151.005 12.5627 150.978 12.7493 150.978 12.888V17H149.058V9.32Z" fill="#102D33"/>
</svg>
