<svg width="137" height="32" viewBox="0 0 137 32" fill="none" xmlns="http://www.w3.org/2000/svg">
<path d="M87.1456 2.21947L87.0306 2.62357C88.8074 2.7144 89.3099 3.4789 89.3099 4.14362C89.3099 4.53344 89.1517 4.98501 88.8345 5.49198C88.8345 5.49198 80.0914 19.0549 79.4065 20.117C79.3671 19.9493 75.7776 4.83294 75.7776 4.83294C75.7135 4.55459 75.6814 4.31031 75.6814 4.09614C75.6814 3.04762 76.4948 2.68447 78.0671 2.62649L78.183 2.2193H71.2417L71.1223 2.6234C72.6066 2.68051 73.474 3.07446 73.9406 4.94545C74.7688 8.32066 77.9763 21.726 78.0697 22.1181C74.7122 26.9803 71.8805 29.7968 67.3543 29.7968C64.0544 29.7968 61.5665 27.538 61.5665 24.5421C61.5665 21.5533 63.9788 19.121 66.9433 19.121C68.7873 19.121 69.7828 20.0513 69.7828 20.9282C69.7828 21.432 69.5019 21.6844 69.2912 21.8311C69.0447 21.9867 68.816 22.1826 68.816 22.5552C68.816 22.9099 69.0958 23.1673 69.4816 23.1673C70.1172 23.1673 70.4606 22.408 70.4606 21.6939C70.4606 19.8554 69.113 18.7126 66.9435 18.7126C63.308 18.7126 61.0573 21.7888 61.0573 24.6383C61.0573 27.4097 63.4128 30.2764 67.3545 30.2764C73.1105 30.2764 76.1438 25.7582 79.3554 20.9756C79.3554 20.9756 88.5936 6.73593 89.5729 5.29294C90.7071 3.62082 92.1752 2.69152 93.8016 2.62546L93.9183 2.2193L87.1456 2.21947ZM86.6292 16.8819C86.6292 20.1597 88.8123 21.8738 90.9689 21.8738C92.8504 21.8738 94.7948 20.9192 96.3047 19.2528C97.852 17.5445 98.7398 15.276 98.7398 13.0286C98.7398 10.2002 97.0447 8.30036 94.5215 8.30036C90.6123 8.30019 86.6292 12.631 86.6292 16.8819ZM88.1294 17.3849C88.1294 13.6665 91.2532 8.67486 94.4493 8.67486C96.716 8.67486 97.1916 10.6821 97.1916 12.3577C97.1916 15.5445 95.0457 21.4989 90.9439 21.4989C89.1819 21.4989 88.1294 19.9555 88.1294 17.3849ZM107.211 8.51539C107.211 8.51539 104.881 8.55668 104.881 8.55668C103.737 8.58507 102.531 8.61328 101.646 8.58696L101.553 8.89867C102.868 8.98108 103.362 9.30673 102.873 10.8627L100.238 19.5051C99.8963 20.5937 99.1534 21.1618 97.9986 21.2283L97.8767 21.5626H103.154L103.248 21.2283C102.26 21.1822 101.52 21.0274 101.52 20.1637C101.52 19.9667 101.56 19.7396 101.639 19.4785C101.639 19.4785 102.92 15.2467 102.936 15.1956C102.989 15.1956 105.283 15.1956 105.327 15.1956C105.335 15.2115 105.344 15.2283 105.344 15.2283C106.39 17.3023 107.692 19.8808 108.459 21.5414L108.468 21.5626H115.554L115.646 21.2263C114.669 21.2055 113.898 20.998 113.898 20.1537C113.898 19.9596 113.937 19.7353 114.014 19.4783C114.014 19.4783 115.062 16.0193 115.099 15.8991C115.117 15.8848 116.847 14.5502 116.914 14.497C119.331 19.3264 123.369 27.3567 131.237 27.3567C133.494 27.3567 135.262 25.9626 135.262 24.184C135.262 22.8224 134.234 22.089 133.267 22.089C132.312 22.089 131.804 22.7353 131.804 23.2022C131.804 23.4818 132.035 23.6698 132.252 23.6698C132.508 23.6698 132.677 23.5643 132.816 23.3158C132.956 23.0646 133.248 22.8263 133.652 22.8263C134.41 22.8263 134.922 23.3374 134.922 24.184C134.922 25.708 133.312 26.9478 131.333 26.9478C126.35 26.9478 122.04 22.5858 118.158 13.6143C118.204 13.5801 122.727 10.161 122.727 10.161C124.227 9.06296 124.959 8.94581 125.556 8.89988L125.652 8.58713H121.227L121.134 8.89781C121.871 8.93962 122.306 9.21246 122.306 9.58524C122.306 9.87494 122.055 10.2245 121.569 10.6059C121.569 10.6059 116.026 14.7494 115.256 15.3255C115.32 15.1196 116.648 10.813 116.648 10.813C116.648 10.8147 116.677 10.7298 116.677 10.7298C117.07 9.6095 117.313 8.98039 118.939 8.89799L119.032 8.5873H114.024L113.925 8.90005C114.652 8.93187 115.094 9.08137 115.28 9.34285C115.475 9.61724 115.458 10.058 115.224 10.8641L112.614 19.5051C112.275 20.5829 111.584 21.2263 110.764 21.2263C110.017 21.2263 109.521 20.7778 108.937 19.5712C108.937 19.5712 106.895 15.4425 106.685 15.0174C108.718 14.6389 111.067 13.4021 111.067 11.1369C111.066 9.54963 109.952 8.50628 107.211 8.51539ZM106.801 8.82745C109.147 8.82745 109.639 9.99295 109.639 10.9699C109.639 12.744 108.798 14.8586 104.794 14.8586C104.794 14.8586 103.126 14.8586 103.031 14.8586C103.06 14.7656 104.857 8.94461 104.871 8.89764C105.169 8.87253 106.053 8.82745 106.801 8.82745Z" fill="#0C2B45"/>
<path d="M32.4357 18.3245C30.3343 14.6822 27.5378 8.92882 26.0523 2.21986H19.1518C17.3684 2.21986 14.3767 2.59764 14.3767 5.10771C14.3767 6.09258 15.167 7.1552 16.4445 7.1552C17.604 7.1552 18.2215 6.39707 18.2215 5.85019C18.2215 5.50889 18.0287 5.14246 17.6043 5.14246C17.1779 5.14246 16.9873 5.4977 16.9873 5.85019C16.9873 6.27958 16.6945 6.57959 16.2748 6.57959C15.4289 6.57959 14.8375 5.95427 14.8375 5.06023C14.8375 3.44815 16.2893 2.63084 19.1516 2.63084H22.0781C23.7921 2.63084 24.5482 3.47241 24.1185 5.17137C21.1861 15.41 15.3188 26.3519 7.64622 26.3519C4.11599 26.3519 2.26906 24.3117 2.26906 22.2951C2.26906 20.8367 3.27095 19.7469 4.16601 19.7469C4.75902 19.7469 4.97736 20.1363 5.18788 20.5126C5.38537 20.8661 5.58981 21.2308 6.09927 21.2308C6.45726 21.2308 6.83766 20.9748 6.83766 20.5007C6.83766 19.6877 5.90751 19.0754 4.67356 19.0754C3.25497 19.0754 1.73633 20.3693 1.73633 22.2953C1.73633 24.9382 4.22177 26.8565 7.6464 26.8565C11.7526 26.8565 15.5861 23.9998 19.0413 18.3653C22.3421 12.9818 24.1442 6.90077 24.6644 4.98076C27.6712 15.63 36.6499 30.2799 45.8118 30.2799C48.2672 30.2799 49.9819 28.9258 49.9819 26.9879C49.9819 25.786 49.2436 24.8482 48.3012 24.8482C47.7353 24.8482 47.3697 25.0937 47.3697 25.4794C47.3697 25.8169 47.6834 26.0196 47.9874 26.0196C48.1427 26.0196 48.2637 25.9675 48.381 25.9172C48.4881 25.8708 48.5901 25.8271 48.7119 25.8271C49.2085 25.8271 49.5691 26.3457 49.5691 27.0598C49.5691 28.6891 48.0195 29.8715 45.8842 29.8715C41.4923 29.8715 37.1888 26.2644 32.7273 18.8437C34.5558 12.9959 38.2311 3.20576 42.3311 3.20576C43.0797 3.20576 43.5456 3.39104 43.9565 3.55481C44.28 3.68314 44.5853 3.80408 44.9664 3.80408C45.8535 3.80408 46.0902 3.25479 46.0902 2.92948C46.0902 2.20627 45.3661 1.72046 44.2892 1.72046C38.3063 1.71994 34.6611 11.1712 32.4357 18.3245ZM63.9839 8.58735L63.888 8.89493C65.0099 8.97269 65.3455 9.5631 65.3455 10.0506C65.3455 10.3157 65.2602 10.6178 65.0905 10.9541L60.317 20.0159L59.5975 10.1975C59.52 9.17981 60.0776 8.90956 61.1863 8.90009L61.2824 8.58735H56.7334L56.6382 8.89493C57.7646 8.98783 58.1087 9.3773 58.1087 9.83077C58.1087 10.0475 58.0502 10.2655 57.888 10.5949C57.8876 10.5949 53.2327 19.9731 53.2327 19.9731L52.5091 10.2196C52.4521 9.10361 53.0171 8.9388 54.0583 8.89838L54.1523 8.58717H49.5065L49.4091 8.89838C50.7181 8.97407 51.12 9.34892 51.2128 10.5418L52.1337 21.7882H52.6986L58.3009 10.5297L59.2157 21.7882H59.7556L65.4685 10.9873C66.2315 9.55914 67.083 8.96719 68.1969 8.89803L68.2906 8.58735H63.9839ZM48.349 8.58735H39.4757L39.3819 8.89597C40.1069 8.94706 40.5607 9.09501 40.7508 9.36526C40.9365 9.62984 40.9365 10.0332 40.7483 10.6729L38.0413 19.6017C37.7262 20.6094 36.9612 21.1632 35.823 21.2336L35.7036 21.564H47.0185L48.9802 17.7267L48.7478 17.6282C47.1368 20.1659 44.7741 21.2267 40.6386 21.2267C40.6386 21.2267 39.0424 21.2267 38.9487 21.2267C38.9766 21.1348 40.844 14.9842 40.8599 14.9328C40.913 14.9328 42.7415 14.9328 42.7415 14.9328C43.5004 14.9328 44.0062 15.1004 44.2888 15.4449C44.6131 15.8404 44.6545 16.5157 44.4382 17.5404L44.7269 17.5418L46.2929 12.3742L45.9992 12.3722C45.4465 13.8055 44.293 14.6195 42.7664 14.6195C42.7664 14.6195 41.0488 14.6195 40.955 14.6195C40.983 14.5277 42.6811 8.95084 42.6971 8.89992C42.75 8.89992 44.4584 8.89992 44.4584 8.89992C46.6819 8.89992 48.0718 9.86552 48.5665 11.7054L48.802 11.6715L48.3818 8.58717H48.349V8.58735Z" fill="#0C2B45"/>
</svg>
