<svg width="86" height="14" viewBox="0 0 86 14" fill="none" xmlns="http://www.w3.org/2000/svg">
<path d="M6.56104 0.804892C6.75054 0.457422 7.24946 0.457422 7.43896 0.804893L9.06704 3.79017C9.13896 3.92204 9.26634 4.01459 9.41397 4.04223L12.7563 4.66813C13.1453 4.74098 13.2994 5.21549 13.0275 5.50309L10.6915 7.97398C10.5883 8.08313 10.5396 8.23288 10.559 8.38183L10.9965 11.7539C11.0475 12.1464 10.6438 12.4397 10.2863 12.27L7.21441 10.8118C7.07873 10.7474 6.92127 10.7474 6.78558 10.8118L3.71374 12.27C3.35619 12.4397 2.95255 12.1464 3.00348 11.7539L3.44104 8.38183C3.46037 8.23287 3.41171 8.08313 3.30852 7.97398L0.972455 5.50309C0.70055 5.21549 0.854728 4.74098 1.24375 4.66813L4.58603 4.04223C4.73366 4.01459 4.86104 3.92204 4.93296 3.79017L6.56104 0.804892Z" fill="#F38B00"/>
<path d="M24.561 0.804892C24.7505 0.457422 25.2495 0.457422 25.439 0.804893L27.067 3.79017C27.139 3.92204 27.2663 4.01459 27.414 4.04223L30.7563 4.66813C31.1453 4.74098 31.2994 5.21549 31.0275 5.50309L28.6915 7.97398C28.5883 8.08313 28.5396 8.23288 28.559 8.38183L28.9965 11.7539C29.0475 12.1464 28.6438 12.4397 28.2863 12.27L25.2144 10.8118C25.0787 10.7474 24.9213 10.7474 24.7856 10.8118L21.7137 12.27C21.3562 12.4397 20.9525 12.1464 21.0035 11.7539L21.441 8.38183C21.4604 8.23287 21.4117 8.08313 21.3085 7.97398L18.9725 5.50309C18.7005 5.21549 18.8547 4.74098 19.2438 4.66813L22.586 4.04223C22.7337 4.01459 22.861 3.92204 22.933 3.79017L24.561 0.804892Z" fill="#F38B00"/>
<path d="M42.561 0.804892C42.7505 0.457422 43.2495 0.457422 43.439 0.804893L45.067 3.79017C45.139 3.92204 45.2663 4.01459 45.414 4.04223L48.7563 4.66813C49.1453 4.74098 49.2994 5.21549 49.0275 5.50309L46.6915 7.97398C46.5883 8.08313 46.5396 8.23288 46.559 8.38183L46.9965 11.7539C47.0475 12.1464 46.6438 12.4397 46.2863 12.27L43.2144 10.8118C43.0787 10.7474 42.9213 10.7474 42.7856 10.8118L39.7137 12.27C39.3562 12.4397 38.9525 12.1464 39.0035 11.7539L39.441 8.38183C39.4604 8.23287 39.4117 8.08313 39.3085 7.97398L36.9725 5.50309C36.7005 5.21549 36.8547 4.74098 37.2438 4.66813L40.586 4.04223C40.7337 4.01459 40.861 3.92204 40.933 3.79017L42.561 0.804892Z" fill="#F38B00"/>
<path d="M60.561 0.804892C60.7505 0.457422 61.2495 0.457422 61.439 0.804893L63.067 3.79017C63.139 3.92204 63.2663 4.01459 63.414 4.04223L66.7563 4.66813C67.1453 4.74098 67.2994 5.21549 67.0275 5.50309L64.6915 7.97398C64.5883 8.08313 64.5396 8.23288 64.559 8.38183L64.9965 11.7539C65.0475 12.1464 64.6438 12.4397 64.2863 12.27L61.2144 10.8118C61.0787 10.7474 60.9213 10.7474 60.7856 10.8118L57.7137 12.27C57.3562 12.4397 56.9525 12.1464 57.0035 11.7539L57.441 8.38183C57.4604 8.23287 57.4117 8.08313 57.3085 7.97398L54.9725 5.50309C54.7005 5.21549 54.8547 4.74098 55.2438 4.66813L58.586 4.04223C58.7337 4.01459 58.861 3.92204 58.933 3.79017L60.561 0.804892Z" fill="#F38B00"/>
<path d="M78.561 0.804892C78.7505 0.457422 79.2495 0.457422 79.439 0.804893L81.067 3.79017C81.139 3.92204 81.2663 4.01459 81.414 4.04223L84.7563 4.66813C85.1453 4.74098 85.2994 5.21549 85.0275 5.50309L82.6915 7.97398C82.5883 8.08313 82.5396 8.23288 82.559 8.38183L82.9965 11.7539C83.0475 12.1464 82.6438 12.4397 82.2863 12.27L79.2144 10.8118C79.0787 10.7474 78.9213 10.7474 78.7856 10.8118L75.7137 12.27C75.3562 12.4397 74.9525 12.1464 75.0035 11.7539L75.441 8.38183C75.4604 8.23287 75.4117 8.08313 75.3085 7.97398L72.9725 5.50309C72.7005 5.21549 72.8547 4.74098 73.2438 4.66813L76.586 4.04223C76.7337 4.01459 76.861 3.92204 76.933 3.79017L78.561 0.804892Z" fill="#F38B00"/>
</svg>
