<svg width="18" height="20" viewBox="0 0 18 20" fill="none" xmlns="http://www.w3.org/2000/svg">
<path d="M0.720581 13.8761C0.720581 10.7889 3.27455 8.23553 6.40157 8.17499V11.8268C5.28318 11.8822 4.43216 12.7541 4.43216 13.8761C4.43216 15.0359 5.34133 15.9284 6.51518 15.9284C7.68904 15.9284 8.59822 15.0359 8.59822 13.8761V0.419434H12.3133C12.3649 1.24974 12.9704 2.24382 13.888 3.03114C14.3737 3.44787 14.9615 3.76272 15.4367 3.97293C15.6749 4.07829 15.8863 4.15803 16.0448 4.21161C16.124 4.23838 16.1905 4.25884 16.2411 4.27275C16.2436 4.27345 16.2462 4.27414 16.2486 4.27482V7.9454C14.8715 7.91339 13.6628 7.30263 12.4887 6.47928L12.3098 6.35386V6.57227V13.8761C12.3098 17.0007 9.69374 19.5784 6.51518 19.5784C3.33665 19.5784 0.720581 17.0007 0.720581 13.8761Z" fill="#00839F" stroke="#00839F" stroke-width="0.227179"/>
</svg>
